<?xml version="1.0" standalone="no"?>
<!DOCTYPE svg PUBLIC "-//W3C//DTD SVG 1.1//EN" "http://www.w3.org/Graphics/SVG/1.1/DTD/svg11.dtd" >
<svg xmlns="http://www.w3.org/2000/svg" xmlns:xlink="http://www.w3.org/1999/xlink" version="1.1">
<metadata>
Created by FontForge 20190801 at Thu Nov  7 21:35:59 2019
 By Jimmy Wärting
Copyright \(c\) 2019 by Rick Banks. All rights reserved.
</metadata>
<defs>
<font id="F37GingerPro-Bold" horiz-adv-x="600" >
  <font-face 
    font-family="F37 Ginger Pro Bold"
    font-weight="700"
    font-stretch="normal"
    units-per-em="1000"
    panose-1="0 0 8 0 0 0 0 0 0 0"
    ascent="800"
    descent="-200"
    x-height="475"
    cap-height="740"
    bbox="-853 -285 1260 1011"
    underline-thickness="50"
    underline-position="-100"
    stemh="125"
    stemv="132"
    unicode-range="U+0020-FB02"
  />
<missing-glyph horiz-adv-x="729" 
d="M100 740h529v-740h-529v740zM226 608v-476h277v476h-277z" />
    <glyph glyph-name="fi" unicode="fi" 
d="M542 475v-475h-126v356h-196v-356h-126v356h-69v119h69v109c0 105 49 166 150 166c28 0 69 -4 93 -12v-111c-1 0 -35 5 -58 5c-39 0 -59 -14 -59 -64v-93h322zM480 558c-46 0 -82 34 -82 81c0 46 36 81 82 81s82 -35 82 -81c0 -47 -36 -81 -82 -81z" />
    <glyph glyph-name="fl" unicode="fl" horiz-adv-x="625" 
d="M594 105c4 0 12 0 19 1v-111c-20 -4 -39 -8 -60 -8c-92 0 -137 51 -137 141v228h-196v-356h-126v356h-69v119h69v109c0 105 49 166 150 166c28 0 69 -4 93 -12v-111c-1 0 -35 5 -58 5c-39 0 -59 -14 -59 -64v-93h196v265h126v-583c0 -32 9 -52 52 -52z" />
    <glyph glyph-name="f_f" unicode="ff" horiz-adv-x="635" 
d="M586 632c-38 0 -58 -14 -58 -64v-93h106v-119h-106v-356h-126v356h-182v-356h-126v356h-69v119h69v109c0 104 48 166 149 166c29 0 69 -4 94 -12v-111c-1 0 -35 5 -58 5c-39 0 -59 -14 -59 -64v-93h182v109c0 104 48 166 149 166c28 0 69 -4 93 -12v-111s-35 5 -58 5z
" />
    <glyph glyph-name="f_f_i" unicode="ffi" horiz-adv-x="915" 
d="M850 475v-475h-126v356h-196v-356h-126v356h-182v-356h-126v356h-69v119h69v109c0 104 48 166 149 166c29 0 69 -4 94 -12v-111c-1 0 -35 5 -58 5c-39 0 -59 -14 -59 -64v-93h182v109c0 105 48 166 150 166c27 0 69 -4 93 -12v-111c-1 0 -36 5 -58 5
c-39 0 -59 -14 -59 -64v-93h322zM788 558c-47 0 -82 34 -82 81c0 46 35 81 82 81c46 0 81 -35 81 -81c0 -47 -35 -81 -81 -81z" />
    <glyph glyph-name="f_f_l" unicode="ffl" horiz-adv-x="934" 
d="M903 105c4 0 12 0 19 1v-111c-20 -4 -40 -8 -61 -8c-92 0 -136 51 -136 141v228h-196v-356h-126v356h-183v-356h-126v356h-69v119h69v109c0 104 48 166 149 166c29 0 69 -4 94 -12v-111c-1 0 -35 5 -58 5c-39 0 -59 -14 -59 -64v-93h183v109c0 105 48 166 150 166
c28 0 69 -4 93 -12v-111c-1 0 -35 5 -58 5c-39 0 -59 -14 -59 -64v-93h196v265h126v-583c0 -32 9 -52 52 -52z" />
    <glyph glyph-name=".notdef" horiz-adv-x="729" 
d="M100 740h529v-740h-529v740zM226 608v-476h277v476h-277z" />
    <glyph glyph-name="space" unicode=" " horiz-adv-x="266" 
 />
    <glyph glyph-name="exclam" unicode="!" horiz-adv-x="283" 
d="M75 498v242h133v-242l-29 -265h-75zM142 -7c-45 0 -79 33 -79 78s34 78 79 78c44 0 78 -33 78 -78s-34 -78 -78 -78z" />
    <glyph glyph-name="quotedbl" unicode="&#x22;" horiz-adv-x="435" 
d="M46 740h145l-21 -256h-104zM245 740h145l-21 -256h-104z" />
    <glyph glyph-name="numbersign" unicode="#" horiz-adv-x="646" 
d="M611 437h-116l-17 -118h101v-95h-114l-25 -177h-98l25 177h-130l-25 -177h-97l25 177h-105v95h118l17 118h-103v95h116l23 166h97l-23 -166h130l23 166h98l-23 -166h103v-95zM380 319l17 118h-130l-17 -118h130z" />
    <glyph glyph-name="dollar" unicode="$" horiz-adv-x="550" 
d="M532 211c0 -115 -65 -199 -190 -219v-75h-108v73c-73 9 -144 42 -206 126l82 88c42 -47 92 -95 173 -95c83 0 115 50 115 96c0 143 -326 91 -326 334c0 108 65 180 162 205v79h108v-71c58 -5 118 -24 179 -69l-69 -104c-42 37 -99 52 -146 52c-64 0 -102 -29 -102 -78
c0 -147 328 -81 328 -342z" />
    <glyph glyph-name="percent" unicode="%" horiz-adv-x="878" 
d="M405 573c0 -103 -86 -187 -189 -187s-189 84 -189 187s86 187 189 187s189 -84 189 -187zM590 740h110l-406 -740h-110zM216 496c42 0 75 35 75 77c0 43 -33 76 -75 76c-43 0 -75 -33 -75 -76c0 -42 32 -77 75 -77zM851 173c0 -103 -86 -187 -189 -187s-189 84 -189 187
s86 187 189 187s189 -84 189 -187zM662 96c42 0 75 35 75 77s-33 76 -75 76c-43 0 -75 -34 -75 -76s32 -77 75 -77z" />
    <glyph glyph-name="ampersand" unicode="&#x26;" horiz-adv-x="636" 
d="M598 336h-75v-214h75v-122h-318c-136 0 -236 94 -236 218c0 87 42 145 118 179c-67 31 -100 85 -100 158c0 106 70 198 213 198c71 0 120 -20 156 -57l-83 -92c-17 17 -38 26 -66 26c-57 0 -85 -38 -85 -82c0 -49 33 -90 97 -90h103v96h126v-96h75v-122zM397 122v214
h-106c-71 0 -112 -58 -112 -111c0 -49 31 -103 103 -103h115z" />
    <glyph glyph-name="quotesingle" unicode="'" horiz-adv-x="236" 
d="M46 740h145l-21 -256h-104z" />
    <glyph glyph-name="parenleft" unicode="(" horiz-adv-x="361" 
d="M299 -198c-166 98 -264 273 -264 475c0 206 97 379 264 475l57 -92c-119 -84 -189 -228 -189 -383c0 -151 71 -297 189 -383z" />
    <glyph glyph-name="parenright" unicode=")" horiz-adv-x="361" 
d="M5 -106c118 86 189 232 189 383c0 154 -70 299 -189 383l57 92c167 -96 264 -269 264 -475c0 -202 -98 -377 -264 -475z" />
    <glyph glyph-name="asterisk" unicode="*" horiz-adv-x="407" 
d="M367 619l-90 -42l90 -43l-45 -78l-82 56l8 -99h-90l8 99l-82 -56l-45 78l90 43l-90 42l45 79l82 -57l-8 99h90l-8 -99l82 57z" />
    <glyph glyph-name="plus" unicode="+" horiz-adv-x="677" 
d="M274 286h-213v120h213v228h125v-228h218v-120h-218v-228h-125v228z" />
    <glyph glyph-name="comma" unicode="," horiz-adv-x="247" 
d="M122 149c54 0 84 -45 84 -108c0 -101 -74 -191 -154 -194v62c36 0 75 28 85 89c-6 -1 -12 -2 -20 -2c-43 0 -72 31 -72 75s32 78 77 78z" />
    <glyph glyph-name="hyphen" unicode="-" horiz-adv-x="413" 
d="M56 341h302v-116h-302v116z" />
    <glyph glyph-name="period" unicode="." horiz-adv-x="244" 
d="M123 -7c-45 0 -79 33 -79 79c0 44 34 77 79 77c44 0 78 -33 78 -77c0 -46 -34 -79 -78 -79z" />
    <glyph glyph-name="slash" unicode="/" horiz-adv-x="576" 
d="M428 740h127l-406 -740h-127z" />
    <glyph glyph-name="zero" unicode="0" horiz-adv-x="596" 
d="M298 -13c-160 0 -239 116 -239 256v254c0 140 79 256 239 256c153 0 238 -107 238 -256v-254c0 -149 -85 -256 -238 -256zM298 110c80 0 108 60 108 144v232c0 84 -28 144 -108 144c-77 0 -109 -54 -109 -144v-232c0 -90 32 -144 109 -144z" />
    <glyph glyph-name="one" unicode="1" horiz-adv-x="360" 
d="M142 612h-118v128h252v-740h-134v612z" />
    <glyph glyph-name="two" unicode="2" horiz-adv-x="553" 
d="M374 277l-153 -149h285v-128h-463v129l186 181c103 101 143 165 143 226c0 55 -33 94 -94 94c-57 0 -96 -34 -111 -95h-127c21 148 118 218 241 218c124 0 226 -76 226 -215c0 -79 -41 -172 -133 -261z" />
    <glyph glyph-name="three" unicode="3" horiz-adv-x="559" 
d="M394 397c75 -34 118 -93 118 -185c0 -131 -100 -225 -236 -225c-150 0 -234 92 -244 227h127c10 -66 48 -104 116 -104c72 0 102 53 102 109c0 59 -42 117 -113 117h-34v124h32c64 0 98 41 98 90c0 42 -23 80 -80 80c-63 0 -89 -43 -92 -93h-128c4 121 77 216 222 216
c142 0 212 -92 212 -198c0 -73 -33 -126 -100 -158z" />
    <glyph glyph-name="four" unicode="4" horiz-adv-x="587" 
d="M550 235v-118h-76v-117h-129v117h-326v114l333 509h122v-505h76zM161 235h184v286z" />
    <glyph glyph-name="five" unicode="5" horiz-adv-x="578" 
d="M304 494c133 0 236 -101 236 -249c0 -150 -109 -258 -255 -258c-138 0 -241 97 -255 228h128c4 -34 34 -106 125 -106c81 0 127 56 127 135c0 92 -63 135 -130 135c-41 0 -82 -16 -112 -43l-94 75l57 329h374l-10 -122h-258l-27 -143c29 14 60 19 94 19z" />
    <glyph glyph-name="six" unicode="6" horiz-adv-x="563" 
d="M298 462c128 0 233 -103 233 -234c0 -129 -105 -241 -247 -241c-141 0 -245 112 -245 241c0 43 10 86 41 146l192 366h148l-148 -280c8 1 17 2 26 2zM284 107c72 0 123 59 123 121s-51 121 -123 121c-71 0 -121 -59 -121 -121s50 -121 121 -121z" />
    <glyph glyph-name="seven" unicode="7" horiz-adv-x="527" 
d="M20 740h483v-127l-290 -613h-146l295 612h-342v128z" />
    <glyph glyph-name="eight" unicode="8" horiz-adv-x="604" 
d="M465 445c60 -47 98 -119 98 -201c0 -142 -115 -257 -262 -257c-146 0 -261 115 -261 257c0 83 38 156 99 202c-27 31 -39 68 -39 109c0 111 90 198 201 198c112 0 202 -87 202 -198c0 -41 -13 -79 -38 -110zM301 631c-41 0 -76 -35 -76 -77c0 -23 10 -43 26 -58
c16 3 33 5 50 5s34 -2 51 -5c16 15 27 35 27 58c0 42 -35 77 -78 77zM301 107c77 0 138 63 138 137c0 73 -61 137 -138 137c-75 0 -137 -64 -137 -137c0 -74 62 -137 137 -137z" />
    <glyph glyph-name="nine" unicode="9" horiz-adv-x="563" 
d="M279 753c140 0 245 -112 245 -241c0 -43 -10 -86 -41 -145l-193 -367h-148l149 280c-9 -1 -17 -2 -26 -2c-128 0 -233 104 -233 234c0 129 105 241 247 241zM279 392c70 0 121 58 121 120s-51 121 -121 121c-72 0 -123 -59 -123 -121s51 -120 123 -120z" />
    <glyph glyph-name="colon" unicode=":" horiz-adv-x="259" 
d="M130 309c-44 0 -79 33 -79 78s35 78 79 78s78 -33 78 -78s-34 -78 -78 -78zM130 -7c-44 0 -79 33 -79 79c0 44 35 77 79 77s78 -33 78 -77c0 -46 -34 -79 -78 -79z" />
    <glyph glyph-name="semicolon" unicode=";" horiz-adv-x="265" 
d="M131 309c-44 0 -79 33 -79 78s35 78 79 78s78 -33 78 -78s-34 -78 -78 -78zM129 149c55 0 84 -45 84 -108c0 -101 -74 -191 -153 -194v62c35 0 74 28 84 89c-6 -1 -12 -2 -20 -2c-42 0 -72 31 -72 75s32 78 77 78z" />
    <glyph glyph-name="less" unicode="&#x3c;" horiz-adv-x="648" 
d="M127 346l299 309l85 -84l-227 -225l227 -225l-85 -84z" />
    <glyph glyph-name="equal" unicode="=" horiz-adv-x="656" 
d="M61 415v120h534v-120h-534zM61 157v120h534v-120h-534z" />
    <glyph glyph-name="greater" unicode="&#x3e;" horiz-adv-x="648" 
d="M138 121l226 225l-226 225l84 84l300 -309l-300 -309z" />
    <glyph glyph-name="question" unicode="?" horiz-adv-x="505" 
d="M141 274c0 166 199 153 199 268c0 55 -32 89 -92 89c-59 0 -99 -43 -99 -107h-121c0 134 96 230 227 230c132 0 218 -82 218 -207c0 -186 -198 -183 -198 -283v-33h-134v43zM206 -7c-44 0 -78 33 -78 78s34 78 78 78s78 -33 78 -78s-34 -78 -78 -78z" />
    <glyph glyph-name="at" unicode="@" horiz-adv-x="940" 
d="M437 -14c-120 0 -194 95 -194 207s75 206 201 206c37 0 82 -8 122 -45v38h112v-235c0 -38 13 -58 36 -58c43 0 73 70 73 152c0 115 -83 277 -309 277c-140 0 -326 -87 -326 -341c0 -238 154 -341 337 -341c72 0 143 20 203 56l60 -95c-61 -40 -148 -69 -276 -69
c-247 0 -441 164 -441 449c0 301 228 457 435 457c215 0 431 -131 431 -390c0 -139 -71 -268 -193 -269c-57 0 -99 35 -113 78c-44 -67 -118 -77 -158 -77zM456 82c70 0 111 48 111 111c0 61 -41 109 -111 109s-110 -48 -110 -109c0 -62 40 -111 110 -111z" />
    <glyph glyph-name="A" unicode="A" horiz-adv-x="736" 
d="M587 0l-60 156h-318l-60 -156h-143l295 740h136l294 -740h-144zM368 569l-111 -286h222z" />
    <glyph glyph-name="B" unicode="B" horiz-adv-x="616" 
d="M81 0v740h215c170 0 250 -70 250 -189c0 -84 -40 -136 -115 -163c101 -22 144 -94 144 -183c0 -141 -108 -205 -286 -205h-208zM215 449h112c53 0 87 27 87 81c0 56 -33 84 -91 84h-108v-165zM215 126h103c95 0 125 46 125 98s-29 100 -126 100h-102v-198z" />
    <glyph glyph-name="C" unicode="C" horiz-adv-x="710" 
d="M424 -13c-214 0 -387 166 -387 382c0 211 166 384 386 384c111 0 207 -45 277 -117l-83 -93c-49 56 -116 87 -194 87c-144 0 -252 -120 -252 -262c0 -144 112 -259 253 -259c71 0 141 35 187 81l78 -93c-69 -66 -160 -110 -265 -110z" />
    <glyph glyph-name="D" unicode="D" horiz-adv-x="730" 
d="M81 0v740h213c236 0 398 -139 398 -370s-162 -370 -398 -370h-213zM215 128h76c146 0 267 65 267 242s-121 242 -267 242h-76v-484z" />
    <glyph glyph-name="E" unicode="E" horiz-adv-x="593" 
d="M81 0v740h471v-128h-337v-162h266v-128h-266v-194h337v-128h-471z" />
    <glyph glyph-name="F" unicode="F" horiz-adv-x="565" 
d="M81 0v740h462v-128h-328v-163h256v-128h-256v-321h-134z" />
    <glyph glyph-name="G" unicode="G" horiz-adv-x="799" 
d="M429 -13c-221 0 -392 166 -392 381c0 212 166 385 386 385c112 0 210 -44 280 -115l-80 -92c-54 62 -128 84 -195 84c-151 0 -257 -120 -257 -262c0 -144 108 -259 260 -259c114 0 202 72 202 191v1h-231v127h363v-85c0 -191 -113 -356 -336 -356z" />
    <glyph glyph-name="H" unicode="H" horiz-adv-x="782" 
d="M567 740h134v-740h-134v325h-352v-325h-134v740h134v-286h352v286z" />
    <glyph glyph-name="I" unicode="I" horiz-adv-x="297" 
d="M81 0v740h134v-740h-134z" />
    <glyph glyph-name="J" unicode="J" horiz-adv-x="293" 
d="M-39 -224v122c79 10 116 49 116 194v648h134v-647c0 -209 -66 -302 -250 -317z" />
    <glyph glyph-name="K" unicode="K" horiz-adv-x="668" 
d="M336 365l349 -365h-176l-294 312v-312h-134v740h134v-325l276 325h168z" />
    <glyph glyph-name="L" unicode="L" horiz-adv-x="568" 
d="M81 0v740h134v-612h341v-128h-475z" />
    <glyph glyph-name="M" unicode="M" horiz-adv-x="915" 
d="M660 740h173v-740h-133v557l-180 -283h-129l-176 279v-553h-134v740h173l202 -323z" />
    <glyph glyph-name="N" unicode="N" horiz-adv-x="839" 
d="M625 740h133v-740h-140l-403 563v-563h-134v740h168l376 -525v525z" />
    <glyph glyph-name="O" unicode="O" horiz-adv-x="849" 
d="M424 -13c-214 0 -387 166 -387 382c0 211 166 384 387 384s387 -173 387 -384c0 -216 -174 -382 -387 -382zM424 110c141 0 252 114 252 258c0 142 -107 262 -252 262s-253 -120 -253 -262c0 -144 112 -258 253 -258z" />
    <glyph glyph-name="P" unicode="P" horiz-adv-x="622" 
d="M81 0v740h238c195 0 280 -112 280 -246c0 -135 -85 -248 -280 -248h-104v-246h-134zM215 373h103c106 0 149 54 149 120c0 65 -43 120 -149 120h-103v-240z" />
    <glyph glyph-name="Q" unicode="Q" horiz-adv-x="856" 
d="M685 128h142v-128h-347h-56c-214 0 -387 154 -387 369c0 211 166 384 387 384s387 -173 387 -383c0 -97 -35 -184 -126 -242zM171 368c0 -143 112 -246 253 -246c150 0 252 103 252 246c0 142 -107 262 -252 262s-253 -120 -253 -262z" />
    <glyph glyph-name="R" unicode="R" horiz-adv-x="658" 
d="M629 0h-153l-175 305h-86v-305h-134v740h278c185 0 257 -92 257 -217c0 -103 -49 -184 -170 -210zM215 613v-180h154c78 0 114 33 114 89s-36 91 -114 91h-154z" />
    <glyph glyph-name="S" unicode="S" horiz-adv-x="573" 
d="M110 204c42 -47 92 -95 173 -95c83 0 115 50 115 96c0 143 -326 91 -326 334c0 135 101 214 241 214c66 0 137 -18 208 -70l-69 -104c-42 37 -99 52 -146 52c-64 0 -102 -29 -102 -78c0 -147 328 -81 328 -342c0 -132 -86 -224 -250 -224c-89 0 -178 26 -254 129z" />
    <glyph glyph-name="T" unicode="T" horiz-adv-x="631" 
d="M249 0v612h-237v128h607v-128h-236v-612h-134z" />
    <glyph glyph-name="U" unicode="U" horiz-adv-x="763" 
d="M382 -13c-187 0 -311 113 -311 341v412h134v-371c0 -179 42 -260 177 -260s177 81 177 260v371h134v-412c0 -228 -124 -341 -311 -341z" />
    <glyph glyph-name="V" unicode="V" horiz-adv-x="731" 
d="M580 740h145l-289 -740h-140l-290 740h145l215 -565z" />
    <glyph glyph-name="W" unicode="W" horiz-adv-x="1030" 
d="M878 740h144l-231 -740h-130l-146 510l-146 -510h-131l-230 740h144l151 -528l145 528h134l145 -527z" />
    <glyph glyph-name="X" unicode="X" horiz-adv-x="655" 
d="M659 740l-251 -375l243 -365h-158l-170 255l-169 -255h-158l249 373l-245 367h158l172 -258l170 258h159z" />
    <glyph glyph-name="Y" unicode="Y" horiz-adv-x="696" 
d="M527 740h155l-267 -415v-325h-134v324l-267 416h155l179 -284z" />
    <glyph glyph-name="Z" unicode="Z" horiz-adv-x="651" 
d="M202 128h418v-128h-594v127l418 485h-407v128h582v-127z" />
    <glyph glyph-name="bracketleft" unicode="[" horiz-adv-x="380" 
d="M78 740h283v-111h-150v-720h150v-111h-283v942z" />
    <glyph glyph-name="backslash" unicode="\" horiz-adv-x="576" 
d="M21 740h127l406 -740h-127z" />
    <glyph glyph-name="bracketright" unicode="]" horiz-adv-x="380" 
d="M19 -91h151v720h-151v111h283v-942h-283v111z" />
    <glyph glyph-name="asciicircum" unicode="^" horiz-adv-x="658" 
d="M328 635l-133 -299h-133l193 404h148l193 -404h-133z" />
    <glyph glyph-name="underscore" unicode="_" horiz-adv-x="606" 
d="M42 0h523v-112h-523v112z" />
    <glyph glyph-name="grave" unicode="`" horiz-adv-x="407" 
d="M60 638l47 107l240 -105l-44 -99z" />
    <glyph glyph-name="a" unicode="a" horiz-adv-x="602" 
d="M414 475h126v-475h-126v38c-37 -30 -84 -47 -137 -47c-131 0 -245 108 -245 247s114 246 245 246c53 0 100 -17 137 -47v38zM286 109c72 0 128 59 128 129c0 69 -56 128 -128 128c-69 0 -126 -59 -126 -128c0 -70 57 -129 126 -129z" />
    <glyph glyph-name="b" unicode="b" horiz-adv-x="602" 
d="M326 484c130 0 245 -107 245 -246s-115 -247 -245 -247c-54 0 -101 18 -138 47v-38h-126v740h126v-303c37 29 84 47 138 47zM316 109c69 0 127 59 127 129c0 69 -58 128 -127 128c-72 0 -128 -59 -128 -128c0 -70 56 -129 128 -129z" />
    <glyph glyph-name="c" unicode="c" horiz-adv-x="516" 
d="M284 -13c-140 0 -252 112 -252 249c0 138 112 248 252 248c91 0 168 -45 213 -112l-105 -64c-24 34 -62 56 -107 56c-71 0 -125 -59 -125 -128c0 -70 54 -129 125 -129c47 0 87 24 110 61l104 -65c-44 -69 -124 -116 -215 -116z" />
    <glyph glyph-name="d" unicode="d" horiz-adv-x="602" 
d="M414 740h126v-740h-126v38c-37 -30 -84 -47 -137 -47c-131 0 -245 108 -245 247s114 246 245 246c53 0 100 -17 137 -47v303zM286 109c72 0 128 59 128 129c0 69 -56 128 -128 128c-69 0 -126 -59 -126 -128c0 -70 57 -129 126 -129z" />
    <glyph glyph-name="e" unicode="e" horiz-adv-x="546" 
d="M274 484c153 0 243 -109 243 -248c0 -10 -1 -26 -2 -39h-358c14 -58 58 -98 128 -98c49 0 91 20 116 53l85 -68c-41 -55 -103 -97 -198 -97c-168 0 -256 122 -256 251s99 246 242 246zM159 287h233c-10 52 -47 84 -115 84c-56 0 -101 -31 -118 -84z" />
    <glyph glyph-name="f" unicode="f" horiz-adv-x="328" 
d="M279 632c-39 0 -59 -14 -59 -64v-93h106v-119h-106v-356h-126v356h-69v119h69v109c0 104 48 166 149 166c29 0 69 -4 94 -12v-111c-1 0 -35 5 -58 5z" />
    <glyph glyph-name="g" unicode="g" horiz-adv-x="601" 
d="M414 475h126v-471c0 -230 -160 -267 -246 -267c-102 0 -181 47 -225 117l114 51c24 -29 61 -48 111 -48c62 0 120 35 120 123v58c-37 -30 -84 -47 -137 -47c-131 0 -245 108 -245 247s114 246 245 246c53 0 100 -17 137 -47v38zM286 109c72 0 128 59 128 129
c0 69 -56 128 -128 128c-69 0 -126 -59 -126 -128c0 -70 57 -129 126 -129z" />
    <glyph glyph-name="h" unicode="h" horiz-adv-x="563" 
d="M316 484c101 0 191 -59 191 -216v-268h-126v255c0 68 -29 109 -94 109c-62 0 -99 -30 -99 -112v-252h-126v740h126v-303c30 29 72 47 128 47z" />
    <glyph glyph-name="i" unicode="i" horiz-adv-x="252" 
d="M127 572c-45 0 -80 34 -80 80c0 44 35 78 80 78c44 0 79 -34 79 -78c0 -46 -35 -80 -79 -80zM62 475h126v-475h-126v475z" />
    <glyph glyph-name="j" unicode="j" horiz-adv-x="252" 
d="M128 572c-45 0 -80 34 -80 80c0 44 35 78 80 78c44 0 78 -34 78 -78c0 -46 -34 -80 -78 -80zM62 475h126v-728h-126v728z" />
    <glyph glyph-name="k" unicode="k" horiz-adv-x="527" 
d="M538 0h-167l-183 210v-210h-126v740h126v-447l170 182h165l-209 -223z" />
    <glyph glyph-name="l" unicode="l" horiz-adv-x="270" 
d="M203 -13c-92 0 -143 51 -143 141v612h126v-583c0 -32 9 -52 52 -52c4 0 12 0 19 1v-111c-14 -4 -33 -8 -54 -8z" />
    <glyph glyph-name="m" unicode="m" horiz-adv-x="861" 
d="M625 484c90 0 180 -53 180 -211v-273h-126v256c0 73 -26 108 -84 108c-62 0 -98 -30 -98 -112v-252h-126v256c0 73 -26 108 -85 108c-61 0 -98 -30 -98 -112v-252h-126v475h126v-38c30 29 73 47 129 47c55 0 110 -20 144 -71c34 40 86 71 164 71z" />
    <glyph glyph-name="n" unicode="n" horiz-adv-x="563" 
d="M316 484c101 0 191 -59 191 -216v-268h-126v255c0 68 -29 109 -94 109c-62 0 -99 -30 -99 -112v-252h-126v475h126v-38c30 29 72 47 128 47z" />
    <glyph glyph-name="o" unicode="o" horiz-adv-x="570" 
d="M284 -13c-141 0 -252 112 -252 249c0 138 111 248 252 248c143 0 254 -110 254 -248c0 -137 -111 -249 -254 -249zM284 107c72 0 126 59 126 129c0 69 -54 128 -126 128c-71 0 -124 -59 -124 -128c0 -70 53 -129 124 -129z" />
    <glyph glyph-name="p" unicode="p" horiz-adv-x="603" 
d="M326 484c130 0 245 -107 245 -246s-115 -247 -245 -247c-54 0 -101 18 -138 47v-291h-126v728h126v-38c37 29 84 47 138 47zM316 109c69 0 127 59 127 129c0 69 -58 128 -127 128c-72 0 -128 -59 -128 -128c0 -70 56 -129 128 -129z" />
    <glyph glyph-name="q" unicode="q" horiz-adv-x="601" 
d="M414 475h126v-728h-126v291c-37 -30 -84 -47 -137 -47c-131 0 -245 108 -245 247s114 246 245 246c53 0 100 -17 137 -47v38zM286 109c72 0 128 59 128 129c0 69 -56 128 -128 128c-69 0 -126 -59 -126 -128c0 -70 57 -129 126 -129z" />
    <glyph glyph-name="r" unicode="r" horiz-adv-x="368" 
d="M340 484h20v-120h-9c-106 0 -163 -28 -163 -115v-249h-126v475h126v-42c33 34 88 51 152 51z" />
    <glyph glyph-name="s" unicode="s" horiz-adv-x="435" 
d="M89 149c45 -38 97 -49 132 -49c43 0 57 17 57 34c0 70 -232 27 -232 198c0 88 63 152 171 152c77 0 144 -23 184 -59l-65 -90c-35 24 -73 36 -118 36c-38 0 -48 -13 -48 -29c0 -66 228 -34 228 -204c0 -87 -64 -151 -184 -151c-89 0 -146 34 -190 67z" />
    <glyph glyph-name="t" unicode="t" horiz-adv-x="367" 
d="M346 356h-125v-187c0 -34 10 -64 53 -64c31 0 59 5 60 5v-111c-1 0 -36 -12 -95 -12c-95 0 -144 61 -144 157v212h-74v119h74v156h126v-156h125v-119z" />
    <glyph glyph-name="u" unicode="u" horiz-adv-x="558" 
d="M278 -13c-126 0 -224 67 -224 215v273h126v-245c0 -79 26 -122 98 -122c73 0 99 43 99 122v245h126v-273c0 -148 -99 -215 -225 -215z" />
    <glyph glyph-name="v" unicode="v" horiz-adv-x="533" 
d="M386 475h136l-189 -475h-133l-190 475h137l118 -322z" />
    <glyph glyph-name="w" unicode="w" horiz-adv-x="818" 
d="M674 475h137l-170 -475h-133l-98 312l-99 -312h-133l-169 475h136l101 -319l99 319h130l99 -320z" />
    <glyph glyph-name="x" unicode="x" horiz-adv-x="479" 
d="M478 0h-146l-94 142l-94 -142h-145l166 252l-147 223h146l81 -123l82 123h146l-155 -233z" />
    <glyph glyph-name="y" unicode="y" horiz-adv-x="532" 
d="M385 475h136l-290 -728h-126l97 244l-193 484h136l120 -322z" />
    <glyph glyph-name="z" unicode="z" horiz-adv-x="447" 
d="M415 475v-114l-215 -242h215v-119h-383v117l216 239h-216v119h383z" />
    <glyph glyph-name="braceleft" unicode="{" horiz-adv-x="391" 
d="M12 323c84 3 119 38 119 118v167c0 80 54 131 126 131h110v-111h-51c-35 0 -53 -23 -53 -66v-139c0 -75 -39 -137 -127 -155c88 -18 127 -80 127 -155v-139c0 -43 18 -66 53 -66h51v-111h-110c-72 0 -126 51 -126 131v167c0 79 -34 113 -119 116v112z" />
    <glyph glyph-name="bar" unicode="|" horiz-adv-x="283" 
d="M77 740h128v-880h-128v880z" />
    <glyph glyph-name="braceright" unicode="}" horiz-adv-x="391" 
d="M380 211c-85 -3 -119 -37 -119 -116v-167c0 -80 -55 -131 -127 -131h-110v111h51c36 0 53 23 53 66v139c0 75 39 137 127 155c-88 18 -127 80 -127 155v139c0 43 -17 66 -53 66h-51v111h110c72 0 127 -51 127 -131v-167c0 -80 34 -115 119 -118v-112z" />
    <glyph glyph-name="asciitilde" unicode="~" horiz-adv-x="660" 
d="M69 250c0 106 55 174 157 174c94 0 146 -44 204 -44c40 0 61 21 61 64h104c0 -106 -56 -174 -155 -174c-96 0 -148 44 -204 44c-41 0 -62 -23 -62 -64h-105z" />
    <glyph glyph-name="uni00A0" unicode="&#xa0;" horiz-adv-x="266" 
 />
    <glyph glyph-name="exclamdown" unicode="&#xa1;" horiz-adv-x="281" 
d="M140 399c-45 0 -78 33 -78 77c0 45 33 79 78 79s79 -34 79 -79c0 -44 -34 -77 -79 -77zM74 50l29 265h75l29 -265v-242h-133v242z" />
    <glyph glyph-name="cent" unicode="&#xa2;" horiz-adv-x="536" 
d="M504 240c-35 -55 -94 -97 -163 -111v-129h-108v130c-113 25 -196 125 -196 243c0 119 83 217 196 242v125h108v-124c68 -14 125 -53 161 -107l-105 -64c-24 34 -62 56 -107 56c-71 0 -125 -59 -125 -128c0 -70 54 -129 125 -129c47 0 87 24 110 61z" />
    <glyph glyph-name="sterling" unicode="&#xa3;" horiz-adv-x="606" 
d="M291 279c0 -55 -25 -108 -68 -151h335v-128h-518v109c79 43 118 100 118 170v4h-115v115h86c-17 44 -35 89 -35 143c0 126 95 212 233 212c134 0 223 -79 244 -218h-128c-15 62 -55 95 -116 95s-99 -33 -99 -97c0 -45 19 -89 36 -135h230v-115h-203v-4z" />
    <glyph glyph-name="currency" unicode="&#xa4;" horiz-adv-x="681" 
d="M581 365c0 -48 -14 -93 -37 -131l89 -89l-75 -75l-88 89c-40 -27 -89 -43 -142 -43c-46 0 -90 12 -127 33l-79 -79l-75 75l75 75c-29 41 -46 91 -46 145s17 103 46 143l-75 75l74 75l78 -79c38 22 82 34 129 34c54 0 103 -16 144 -43l87 88l74 -75l-88 -89
c23 -37 36 -82 36 -129zM328 236c72 0 126 59 126 129c0 69 -54 128 -126 128c-71 0 -125 -59 -125 -128c0 -70 54 -129 125 -129z" />
    <glyph glyph-name="yen" unicode="&#xa5;" horiz-adv-x="719" 
d="M695 740l-210 -325h143v-94h-201v-78h201v-94h-201v-149h-134v149h-218v94h218v78h-218v94h160l-209 325h155l179 -284l179 284h156z" />
    <glyph glyph-name="brokenbar" unicode="&#xa6;" horiz-adv-x="284" 
d="M77 740h129v-350h-129v350zM77 210h129v-350h-129v350z" />
    <glyph glyph-name="section" unicode="&#xa7;" horiz-adv-x="582" 
d="M542 270c0 -65 -35 -112 -84 -143c31 -27 51 -70 51 -119c0 -99 -81 -188 -213 -188c-155 0 -232 105 -232 215h129c0 -49 33 -91 98 -91c58 0 90 28 90 71c0 34 -17 61 -73 88l-150 70c-83 39 -120 91 -120 167c0 64 29 111 89 144c-16 20 -28 57 -28 99
c0 85 73 167 195 167c129 0 212 -82 212 -191h-126c0 41 -32 67 -81 67c-48 0 -74 -21 -74 -55c0 -29 16 -50 48 -65l148 -69c85 -41 121 -94 121 -167zM413 264c0 32 -11 51 -38 64l-174 81c-21 -14 -34 -35 -34 -64c0 -31 11 -51 38 -64l174 -81c21 14 34 37 34 64z" />
    <glyph glyph-name="dieresis" unicode="&#xa8;" horiz-adv-x="504" 
d="M141 567c-45 0 -79 33 -79 79c0 45 34 78 79 78s80 -33 80 -78c0 -46 -35 -79 -80 -79zM363 567c-45 0 -79 33 -79 79c0 45 34 78 79 78s80 -33 80 -78c0 -46 -35 -79 -80 -79z" />
    <glyph glyph-name="copyright" unicode="&#xa9;" horiz-adv-x="842" 
d="M421 -13c-214 0 -382 166 -382 382c0 211 161 384 382 384s382 -173 382 -384c0 -216 -169 -382 -382 -382zM421 76c164 0 290 124 290 292c0 165 -121 296 -290 296s-291 -131 -291 -296c0 -168 127 -292 291 -292zM429 148c-129 0 -230 99 -230 223
c0 125 102 222 230 222c82 0 149 -38 190 -98l-77 -53c-27 36 -65 56 -110 56c-70 0 -124 -59 -124 -127c0 -69 54 -128 124 -128c51 0 89 26 113 61l76 -55c-41 -62 -110 -101 -192 -101z" />
    <glyph glyph-name="ordfeminine" unicode="&#xaa;" horiz-adv-x="442" 
d="M294 436c-25 -30 -61 -38 -94 -38c-104 0 -168 78 -168 170s65 170 168 170c33 0 69 -8 94 -39v33h91v-325h-91v29zM206 485c54 0 81 36 81 83c0 46 -27 82 -81 82c-52 0 -76 -36 -76 -82c0 -47 24 -83 76 -83z" />
    <glyph glyph-name="guillemotleft" unicode="&#xab;" horiz-adv-x="560" 
d="M32 241l127 189h134l-124 -189l126 -191h-136zM261 241l127 189h133l-124 -189l126 -191h-135z" />
    <glyph glyph-name="logicalnot" unicode="&#xac;" horiz-adv-x="677" 
d="M612 406v-298h-125v178h-431v120h556z" />
    <glyph glyph-name="uni00AD" unicode="&#xad;" horiz-adv-x="413" 
d="M56 341h302v-116h-302v116z" />
    <glyph glyph-name="registered" unicode="&#xae;" horiz-adv-x="842" 
d="M421 753c221 0 382 -173 382 -384c0 -216 -169 -382 -382 -382c-214 0 -382 166 -382 382c0 211 161 384 382 384zM421 76c164 0 290 124 290 292c0 165 -121 296 -290 296s-291 -131 -291 -296c0 -168 127 -292 291 -292zM588 446c0 -55 -27 -97 -78 -117l86 -155h-106
l-73 143h-38v-143h-102v400h161c96 0 150 -51 150 -128zM379 485v-87h53c34 0 51 16 51 43c0 26 -17 44 -51 44h-53z" />
    <glyph glyph-name="macron" unicode="&#xaf;" horiz-adv-x="459" 
d="M60 701h339v-113h-339v113z" />
    <glyph glyph-name="degree" unicode="&#xb0;" horiz-adv-x="362" 
d="M332 599c0 -83 -67 -150 -151 -150c-83 0 -150 67 -150 150c0 84 67 151 150 151c84 0 151 -67 151 -151zM248 599c0 38 -30 68 -67 68s-66 -30 -66 -68c0 -37 29 -67 66 -67s67 30 67 67z" />
    <glyph glyph-name="plusminus" unicode="&#xb1;" horiz-adv-x="677" 
d="M274 376h-213v120h213v168h125v-168h218v-120h-218v-168h-125v168zM61 149h556v-120h-556v120z" />
    <glyph glyph-name="uni00B2" unicode="&#xb2;" horiz-adv-x="404" 
d="M51 377l148 140c34 31 52 58 52 91c0 29 -17 53 -53 53s-54 -25 -55 -59h-97c0 92 68 145 156 145c96 0 150 -63 150 -135c0 -51 -23 -96 -80 -149l-86 -79h163v-88h-298v81z" />
    <glyph glyph-name="uni00B3" unicode="&#xb3;" horiz-adv-x="403" 
d="M196 279c-101 0 -168 65 -168 160h94c0 -41 30 -69 70 -69c44 0 70 25 70 62c0 36 -27 61 -67 61h-21v81h20c34 0 59 20 59 46s-20 45 -49 45c-31 0 -50 -22 -50 -53h-96c0 80 62 135 150 135c85 0 144 -47 144 -115c0 -46 -25 -83 -72 -100c54 -18 83 -59 83 -113
c0 -80 -71 -140 -167 -140z" />
    <glyph glyph-name="acute" unicode="&#xb4;" horiz-adv-x="406" 
d="M59 640l240 105l47 -107l-243 -97z" />
    <glyph glyph-name="paragraph" unicode="&#xb6;" horiz-adv-x="753" 
d="M505 638h-102v-831h-109v441c-149 15 -268 94 -268 243c0 125 83 249 274 249h418v-102h-104v-831h-109v831zM294 640c-114 0 -164 -58 -164 -140c0 -84 53 -145 164 -153v293z" />
    <glyph glyph-name="periodcentered" unicode="&#xb7;" horiz-adv-x="247" 
d="M124 176c-44 0 -79 34 -79 79c0 44 35 78 79 78s78 -34 78 -78c0 -45 -34 -79 -78 -79z" />
    <glyph glyph-name="cedilla" unicode="&#xb8;" horiz-adv-x="363" 
d="M174 -253c-45 0 -81 11 -114 41l52 62c12 -15 37 -26 58 -26c26 0 38 9 38 26c0 20 -13 31 -40 31h-79l46 131h80l-21 -59h10c56 0 99 -37 99 -99s-50 -107 -129 -107z" />
    <glyph glyph-name="uni00B9" unicode="&#xb9;" horiz-adv-x="260" 
d="M101 652h-85v88h183v-444h-98v356z" />
    <glyph glyph-name="ordmasculine" unicode="&#xba;" horiz-adv-x="409" 
d="M379 570c0 -94 -76 -171 -174 -171c-95 0 -174 73 -174 169c0 94 75 173 174 173c96 0 174 -75 174 -171zM206 493c44 0 75 35 75 77s-31 77 -76 77s-76 -35 -76 -78c0 -42 32 -76 77 -76z" />
    <glyph glyph-name="guillemotright" unicode="&#xbb;" horiz-adv-x="560" 
d="M163 241l-124 189h134l127 -189l-127 -191h-136zM392 241l-124 189h133l127 -189l-127 -191h-135z" />
    <glyph glyph-name="onequarter" unicode="&#xbc;" horiz-adv-x="780" 
d="M112 652h-85v88h182v-444h-97v356zM528 740h99l-404 -740h-100zM596 65h-203v79l190 290h104v-286h57v-83h-57v-65h-91v65zM495 148h101v166z" />
    <glyph glyph-name="onehalf" unicode="&#xbd;" horiz-adv-x="830" 
d="M112 652h-85v88h182v-444h-97v356zM528 740h99l-404 -740h-100zM490 81l149 140c39 36 52 62 52 91s-18 53 -54 53c-35 0 -53 -25 -54 -59h-97c0 92 68 145 156 145c96 0 150 -63 150 -135c0 -51 -23 -96 -80 -149l-86 -79h163v-88h-299v81z" />
    <glyph glyph-name="threequarters" unicode="&#xbe;" horiz-adv-x="881" 
d="M196 279c-101 0 -167 65 -167 160h93c0 -41 30 -69 70 -69c45 0 70 25 70 62c0 36 -26 61 -67 61h-21v81h20c35 0 59 20 59 46s-19 45 -49 45s-50 -22 -50 -53h-95c0 80 61 135 149 135c86 0 145 -47 145 -115c0 -46 -26 -83 -73 -100c54 -18 84 -59 84 -113
c0 -80 -72 -140 -168 -140zM633 740h100l-404 -740h-100zM701 65h-203v79l190 290h104v-286h58v-83h-58v-65h-91v65zM600 148h101v166z" />
    <glyph glyph-name="questiondown" unicode="&#xbf;" horiz-adv-x="505" 
d="M298 397c-43 0 -77 33 -77 77c0 46 34 79 77 79c45 0 79 -33 79 -79c0 -44 -34 -77 -79 -77zM249 -206c-131 0 -217 82 -217 207c0 186 198 182 198 283v33h133v-44c0 -165 -198 -152 -198 -268c0 -54 32 -89 91 -89c60 0 99 44 99 108h122c0 -134 -96 -230 -228 -230z
" />
    <glyph glyph-name="Agrave" unicode="&#xc0;" horiz-adv-x="736" 
d="M505 905l-43 -99l-243 97l46 107zM587 0l-60 156h-318l-60 -156h-143l295 740h136l294 -740h-144zM368 569l-111 -286h222z" />
    <glyph glyph-name="Aacute" unicode="&#xc1;" horiz-adv-x="736" 
d="M505 903l-242 -97l-44 99l240 105zM587 0l-60 156h-318l-60 -156h-143l295 740h136l294 -740h-144zM368 569l-111 -286h222z" />
    <glyph glyph-name="Acircumflex" unicode="&#xc2;" horiz-adv-x="736" 
d="M363 892l-131 -86l-59 89l168 115h43l168 -115l-59 -89zM587 0l-60 156h-318l-60 -156h-143l295 740h136l294 -740h-144zM368 569l-111 -286h222z" />
    <glyph glyph-name="Atilde" unicode="&#xc3;" horiz-adv-x="736" 
d="M292 885c-24 0 -37 -14 -37 -47h-94c0 92 42 150 124 150c69 0 116 -47 151 -47c22 0 34 11 34 47h94c0 -92 -44 -150 -120 -150c-72 0 -119 47 -152 47zM587 0l-60 156h-318l-60 -156h-143l295 740h136l294 -740h-144zM368 569l-111 -286h222z" />
    <glyph glyph-name="Adieresis" unicode="&#xc4;" horiz-adv-x="736" 
d="M242 826c-48 0 -85 36 -85 84c0 47 37 84 85 84s85 -37 85 -84c0 -48 -37 -84 -85 -84zM484 826c-48 0 -86 36 -86 84c0 47 38 84 86 84c47 0 85 -37 85 -84c0 -48 -38 -84 -85 -84zM587 0l-60 156h-318l-60 -156h-143l295 740h136l294 -740h-144zM368 569l-111 -286h222
z" />
    <glyph glyph-name="Aring" unicode="&#xc5;" horiz-adv-x="736" 
d="M363 766c-75 0 -128 54 -128 122c0 67 53 122 128 122s128 -55 128 -122c0 -68 -53 -122 -128 -122zM363 935c-29 0 -48 -21 -48 -47s19 -47 48 -47c28 0 47 21 47 47s-19 47 -47 47zM587 0l-60 156h-318l-60 -156h-143l295 740h136l294 -740h-144zM368 569l-111 -286
h222z" />
    <glyph glyph-name="AE" unicode="&#xc6;" horiz-adv-x="1040" 
d="M999 612h-338v-162h266v-128h-266v-194h338v-128h-471v162h-290l-100 -162h-152l463 740h550v-128zM316 289h212v342z" />
    <glyph glyph-name="Ccedilla" unicode="&#xc7;" horiz-adv-x="710" 
d="M424 -13h-2l-12 -34h10c56 0 99 -37 99 -99s-50 -107 -130 -107c-44 0 -81 11 -114 41l53 62c12 -15 37 -26 57 -26c26 0 38 9 38 26c0 20 -13 31 -40 31h-79l40 114c-176 35 -307 186 -307 374c0 211 166 384 386 384c111 0 207 -45 277 -117l-83 -93
c-49 56 -116 87 -194 87c-144 0 -252 -120 -252 -262c0 -144 112 -259 253 -259c71 0 141 35 187 81l78 -93c-69 -66 -160 -110 -265 -110z" />
    <glyph glyph-name="Egrave" unicode="&#xc8;" horiz-adv-x="593" 
d="M178 903l47 107l240 -105l-44 -99zM81 0v740h471v-128h-337v-162h266v-128h-266v-194h337v-128h-471z" />
    <glyph glyph-name="Eacute" unicode="&#xc9;" horiz-adv-x="593" 
d="M222 806l-44 99l240 105l47 -107zM81 0v740h471v-128h-337v-162h266v-128h-266v-194h337v-128h-471z" />
    <glyph glyph-name="Ecircumflex" unicode="&#xca;" horiz-adv-x="593" 
d="M322 892l-131 -86l-59 89l168 115h44l168 -115l-59 -89zM552 612h-337v-162h266v-128h-266v-194h337v-128h-471v740h471v-128z" />
    <glyph glyph-name="Edieresis" unicode="&#xcb;" horiz-adv-x="593" 
d="M201 826c-48 0 -85 36 -85 84c0 47 37 84 85 84s85 -37 85 -84c0 -48 -37 -84 -85 -84zM443 826c-48 0 -85 36 -85 84c0 47 37 84 85 84s85 -37 85 -84c0 -48 -37 -84 -85 -84zM81 0v740h471v-128h-337v-162h266v-128h-266v-194h337v-128h-471z" />
    <glyph glyph-name="Igrave" unicode="&#xcc;" horiz-adv-x="299" 
d="M6 903l46 107l240 -105l-44 -99zM84 0v740h134v-740h-134z" />
    <glyph glyph-name="Iacute" unicode="&#xcd;" horiz-adv-x="299" 
d="M49 806l-43 99l240 105l46 -107zM84 0v740h134v-740h-134z" />
    <glyph glyph-name="Icircumflex" unicode="&#xce;" horiz-adv-x="297" 
d="M170 1010l168 -115l-59 -89l-130 86l-131 -86l-59 89l168 115h43zM83 0v740h134v-740h-134z" />
    <glyph glyph-name="Idieresis" unicode="&#xcf;" horiz-adv-x="304" 
d="M30 826c-47 0 -85 36 -85 84c0 47 38 84 85 84c48 0 86 -37 86 -84c0 -48 -38 -84 -86 -84zM272 826c-48 0 -85 36 -85 84c0 47 37 84 85 84s85 -37 85 -84c0 -48 -37 -84 -85 -84zM86 0v740h134v-740h-134z" />
    <glyph glyph-name="Eth" unicode="&#xd0;" horiz-adv-x="744" 
d="M308 740c236 0 398 -139 398 -370s-162 -370 -398 -370h-213v318h-79v113h79v309h213zM305 128c146 0 268 65 268 242s-122 242 -268 242h-76v-181h166v-113h-166v-190h76z" />
    <glyph glyph-name="Ntilde" unicode="&#xd1;" horiz-adv-x="839" 
d="M367 885c-24 0 -37 -14 -37 -47h-94c0 92 42 150 124 150c69 0 116 -47 151 -47c22 0 34 11 34 47h94c0 -92 -44 -150 -120 -150c-72 0 -119 47 -152 47zM625 740h133v-740h-140l-403 563v-563h-134v740h168l376 -525v525z" />
    <glyph glyph-name="Ograve" unicode="&#xd2;" horiz-adv-x="849" 
d="M273 903l47 107l240 -105l-44 -99zM424 -13c-214 0 -387 166 -387 382c0 211 166 384 387 384s387 -173 387 -384c0 -216 -174 -382 -387 -382zM424 110c141 0 252 114 252 258c0 142 -107 262 -252 262s-253 -120 -253 -262c0 -144 112 -258 253 -258z" />
    <glyph glyph-name="Oacute" unicode="&#xd3;" horiz-adv-x="849" 
d="M317 806l-44 99l240 105l47 -107zM424 -13c-214 0 -387 166 -387 382c0 211 166 384 387 384s387 -173 387 -384c0 -216 -174 -382 -387 -382zM424 110c141 0 252 114 252 258c0 142 -107 262 -252 262s-253 -120 -253 -262c0 -144 112 -258 253 -258z" />
    <glyph glyph-name="Ocircumflex" unicode="&#xd4;" horiz-adv-x="849" 
d="M417 892l-131 -86l-58 89l168 115h43l168 -115l-59 -89zM424 753c221 0 387 -173 387 -384c0 -216 -174 -382 -387 -382c-214 0 -387 166 -387 382c0 211 166 384 387 384zM424 110c141 0 252 114 252 258c0 142 -107 262 -252 262s-253 -120 -253 -262
c0 -144 112 -258 253 -258z" />
    <glyph glyph-name="Otilde" unicode="&#xd5;" horiz-adv-x="849" 
d="M216 838c0 92 42 150 123 150c69 0 117 -47 152 -47c22 0 33 11 33 47h95c0 -92 -44 -150 -120 -150c-73 0 -119 47 -152 47c-24 0 -37 -14 -37 -47h-94zM424 -13c-214 0 -387 166 -387 382c0 211 166 384 387 384s387 -173 387 -384c0 -216 -174 -382 -387 -382z
M424 110c141 0 252 114 252 258c0 142 -107 262 -252 262s-253 -120 -253 -262c0 -144 112 -258 253 -258z" />
    <glyph glyph-name="Odieresis" unicode="&#xd6;" horiz-adv-x="849" 
d="M296 826c-48 0 -85 36 -85 84c0 47 37 84 85 84s85 -37 85 -84c0 -48 -37 -84 -85 -84zM538 826c-48 0 -85 36 -85 84c0 47 37 84 85 84s85 -37 85 -84c0 -48 -37 -84 -85 -84zM424 -13c-214 0 -387 166 -387 382c0 211 166 384 387 384s387 -173 387 -384
c0 -216 -174 -382 -387 -382zM424 110c141 0 252 114 252 258c0 142 -107 262 -252 262s-253 -120 -253 -262c0 -144 112 -258 253 -258z" />
    <glyph glyph-name="multiply" unicode="&#xd7;" horiz-adv-x="665" 
d="M83 182l164 164l-164 165l84 84l165 -165l164 165l85 -85l-165 -164l165 -165l-85 -84l-164 165l-165 -165z" />
    <glyph glyph-name="Oslash" unicode="&#xd8;" horiz-adv-x="871" 
d="M831 677l-77 -77c48 -65 76 -145 76 -231c0 -216 -174 -382 -388 -382c-85 0 -164 27 -229 72l-86 -86l-88 90l86 86c-44 61 -70 137 -70 220c0 211 166 384 387 384c83 0 159 -25 221 -66l80 80zM190 368c0 -45 11 -87 30 -124l351 351c-38 22 -81 35 -129 35
c-145 0 -252 -120 -252 -262zM695 368c0 50 -13 96 -36 137l-354 -354c39 -26 86 -41 137 -41c141 0 253 114 253 258z" />
    <glyph glyph-name="Ugrave" unicode="&#xd9;" horiz-adv-x="763" 
d="M247 903l47 107l240 -105l-44 -99zM382 -13c-187 0 -311 113 -311 341v412h134v-371c0 -179 42 -260 177 -260s177 81 177 260v371h134v-412c0 -228 -124 -341 -311 -341z" />
    <glyph glyph-name="Uacute" unicode="&#xda;" horiz-adv-x="763" 
d="M291 806l-44 99l240 105l47 -107zM382 -13c-187 0 -311 113 -311 341v412h134v-371c0 -179 42 -260 177 -260s177 81 177 260v371h134v-412c0 -228 -124 -341 -311 -341z" />
    <glyph glyph-name="Ucircumflex" unicode="&#xdb;" horiz-adv-x="763" 
d="M391 892l-131 -86l-59 89l168 115h44l168 -115l-59 -89zM559 740h134v-412c0 -228 -124 -341 -311 -341s-311 113 -311 341v412h134v-371c0 -179 42 -260 177 -260s177 81 177 260v371z" />
    <glyph glyph-name="Udieresis" unicode="&#xdc;" horiz-adv-x="763" 
d="M270 826c-48 0 -85 36 -85 84c0 47 37 84 85 84s85 -37 85 -84c0 -48 -37 -84 -85 -84zM512 826c-48 0 -85 36 -85 84c0 47 37 84 85 84s85 -37 85 -84c0 -48 -37 -84 -85 -84zM382 -13c-187 0 -311 113 -311 341v412h134v-371c0 -179 42 -260 177 -260s177 81 177 260
v371h134v-412c0 -228 -124 -341 -311 -341z" />
    <glyph glyph-name="Yacute" unicode="&#xdd;" horiz-adv-x="696" 
d="M483 903l-243 -97l-44 99l240 105zM527 740h155l-267 -415v-325h-134v324l-267 416h155l179 -284z" />
    <glyph glyph-name="Thorn" unicode="&#xde;" horiz-adv-x="633" 
d="M319 618c195 0 280 -111 280 -246s-85 -247 -280 -247h-104v-125h-134v740h134v-122h104zM318 252c106 0 149 54 149 119c0 66 -43 120 -149 120h-103v-239h103z" />
    <glyph glyph-name="germandbls" unicode="&#xdf;" horiz-adv-x="568" 
d="M402 406c84 -28 135 -97 135 -195c0 -147 -110 -211 -270 -211h-20v118h37c86 0 127 42 127 110c0 67 -40 117 -119 117h-45v114h27c62 0 96 40 96 90c0 46 -24 83 -83 83c-65 0 -99 -46 -99 -108v-524h-126v521c0 126 72 229 227 229c132 0 206 -78 206 -184
c0 -82 -42 -134 -93 -160z" />
    <glyph glyph-name="agrave" unicode="&#xe0;" horiz-adv-x="602" 
d="M445 640l-44 -99l-243 97l47 107zM414 475h126v-475h-126v38c-37 -30 -84 -47 -137 -47c-131 0 -245 108 -245 247s114 246 245 246c53 0 100 -17 137 -47v38zM286 109c72 0 128 59 128 129c0 69 -56 128 -128 128c-69 0 -126 -59 -126 -128c0 -70 57 -129 126 -129z" />
    <glyph glyph-name="aacute" unicode="&#xe1;" horiz-adv-x="602" 
d="M444 638l-243 -97l-44 99l240 105zM414 475h126v-475h-126v38c-37 -30 -84 -47 -137 -47c-131 0 -245 108 -245 247s114 246 245 246c53 0 100 -17 137 -47v38zM286 109c72 0 128 59 128 129c0 69 -56 128 -128 128c-69 0 -126 -59 -126 -128c0 -70 57 -129 126 -129z
" />
    <glyph glyph-name="acircumflex" unicode="&#xe2;" horiz-adv-x="602" 
d="M302 627l-131 -86l-59 89l169 115h42l169 -115l-59 -89zM414 475h126v-475h-126v38c-37 -30 -84 -47 -137 -47c-131 0 -245 108 -245 247s114 246 245 246c53 0 100 -17 137 -47v38zM286 109c72 0 128 59 128 129c0 69 -56 128 -128 128c-69 0 -126 -59 -126 -128
c0 -70 57 -129 126 -129z" />
    <glyph glyph-name="atilde" unicode="&#xe3;" horiz-adv-x="602" 
d="M232 613c-24 0 -37 -14 -37 -47h-94c0 92 42 150 123 150c69 0 116 -47 151 -47c22 0 34 11 34 47h95c0 -92 -44 -150 -120 -150c-73 0 -119 47 -152 47zM414 475h126v-475h-126v38c-37 -30 -84 -47 -137 -47c-131 0 -245 108 -245 247s114 246 245 246
c53 0 100 -17 137 -47v38zM286 109c72 0 128 59 128 129c0 69 -56 128 -128 128c-69 0 -126 -59 -126 -128c0 -70 57 -129 126 -129z" />
    <glyph glyph-name="adieresis" unicode="&#xe4;" horiz-adv-x="602" 
d="M187 567c-45 0 -79 33 -79 79c0 45 34 78 79 78s80 -33 80 -78c0 -46 -35 -79 -80 -79zM409 567c-45 0 -79 33 -79 79c0 45 34 78 79 78s80 -33 80 -78c0 -46 -35 -79 -80 -79zM414 475h126v-475h-126v38c-37 -30 -84 -47 -137 -47c-131 0 -245 108 -245 247
s114 246 245 246c53 0 100 -17 137 -47v38zM286 109c72 0 128 59 128 129c0 69 -56 128 -128 128c-69 0 -126 -59 -126 -128c0 -70 57 -129 126 -129z" />
    <glyph glyph-name="aring" unicode="&#xe5;" horiz-adv-x="602" 
d="M291 501c-75 0 -128 54 -128 122c0 67 53 122 128 122s128 -55 128 -122c0 -68 -53 -122 -128 -122zM291 670c-29 0 -48 -21 -48 -47s19 -47 48 -47c28 0 47 21 47 47s-19 47 -47 47zM414 475h126v-475h-126v38c-37 -30 -84 -47 -137 -47c-131 0 -245 108 -245 247
s114 246 245 246c53 0 100 -17 137 -47v38zM286 109c72 0 128 59 128 129c0 69 -56 128 -128 128c-69 0 -126 -59 -126 -128c0 -70 57 -129 126 -129z" />
    <glyph glyph-name="ae" unicode="&#xe6;" horiz-adv-x="934" 
d="M663 484c143 0 243 -109 243 -248c0 -10 -1 -26 -2 -39h-359c14 -58 58 -98 128 -98c49 0 91 20 116 53l85 -68c-41 -55 -103 -97 -197 -97c-61 0 -111 16 -150 43v-30h-113v38c-37 -30 -84 -47 -137 -47c-131 0 -245 108 -245 247s114 246 245 246c53 0 100 -17 137 -47
v38h113v-33c37 26 84 42 136 42zM547 287h233c-12 52 -55 84 -115 84c-56 0 -101 -31 -118 -84zM286 109c72 0 128 59 128 129c0 69 -56 128 -128 128c-69 0 -126 -59 -126 -128c0 -70 57 -129 126 -129z" />
    <glyph glyph-name="ccedilla" unicode="&#xe7;" horiz-adv-x="516" 
d="M499 103c-42 -65 -116 -111 -201 -116l-12 -34h10c56 0 99 -37 99 -99s-50 -107 -129 -107c-45 0 -81 11 -114 41l52 62c12 -15 37 -26 58 -26c26 0 38 9 38 26c0 20 -13 31 -40 31h-79l40 114c-109 27 -189 125 -189 241c0 138 112 248 252 248c91 0 168 -45 213 -112
l-105 -64c-24 34 -62 56 -107 56c-71 0 -125 -59 -125 -128c0 -70 54 -129 125 -129c47 0 87 24 110 61z" />
    <glyph glyph-name="egrave" unicode="&#xe8;" horiz-adv-x="546" 
d="M427 640l-43 -99l-243 97l46 107zM274 484c153 0 243 -109 243 -248c0 -10 -1 -26 -2 -39h-358c14 -58 58 -98 128 -98c49 0 91 20 116 53l85 -68c-41 -55 -103 -97 -198 -97c-168 0 -256 122 -256 251s99 246 242 246zM159 287h233c-10 52 -47 84 -115 84
c-56 0 -101 -31 -118 -84z" />
    <glyph glyph-name="eacute" unicode="&#xe9;" horiz-adv-x="546" 
d="M426 638l-242 -97l-44 99l240 105zM274 484c153 0 243 -109 243 -248c0 -10 -1 -26 -2 -39h-358c14 -58 58 -98 128 -98c49 0 91 20 116 53l85 -68c-41 -55 -103 -97 -198 -97c-168 0 -256 122 -256 251s99 246 242 246zM159 287h233c-10 52 -47 84 -115 84
c-56 0 -101 -31 -118 -84z" />
    <glyph glyph-name="ecircumflex" unicode="&#xea;" horiz-adv-x="546" 
d="M285 627l-131 -86l-59 89l168 115h43l168 -115l-59 -89zM274 484c153 0 243 -109 243 -248c0 -10 -1 -26 -2 -39h-358c14 -58 58 -98 128 -98c49 0 91 20 116 53l85 -68c-41 -55 -103 -97 -198 -97c-168 0 -256 122 -256 251s99 246 242 246zM159 287h233
c-10 52 -47 84 -115 84c-56 0 -101 -31 -118 -84z" />
    <glyph glyph-name="edieresis" unicode="&#xeb;" horiz-adv-x="546" 
d="M170 567c-45 0 -80 33 -80 79c0 45 35 78 80 78s79 -33 79 -78c0 -46 -34 -79 -79 -79zM392 567c-45 0 -80 33 -80 79c0 45 35 78 80 78s79 -33 79 -78c0 -46 -34 -79 -79 -79zM274 484c153 0 243 -109 243 -248c0 -10 -1 -26 -2 -39h-358c14 -58 58 -98 128 -98
c49 0 91 20 116 53l85 -68c-41 -55 -103 -97 -198 -97c-168 0 -256 122 -256 251s99 246 242 246zM159 287h233c-10 52 -47 84 -115 84c-56 0 -101 -31 -118 -84z" />
    <glyph glyph-name="igrave" unicode="&#xec;" horiz-adv-x="259" 
d="M-12 638l47 107l240 -105l-44 -99zM57 475h126v-475h-126v475z" />
    <glyph glyph-name="iacute" unicode="&#xed;" horiz-adv-x="258" 
d="M-14 640l240 105l47 -107l-243 -97zM56 475h126v-475h-126v475z" />
    <glyph glyph-name="icircumflex" unicode="&#xee;" horiz-adv-x="257" 
d="M152 745l168 -115l-58 -89l-131 86l-131 -86l-59 89l169 115h42zM56 0v475h126v-475h-126z" />
    <glyph glyph-name="idieresis" unicode="&#xef;" horiz-adv-x="248" 
d="M11 567c-45 0 -79 33 -79 79c0 45 34 78 79 78s80 -33 80 -78c0 -46 -35 -79 -80 -79zM233 567c-45 0 -79 33 -79 79c0 45 34 78 79 78s79 -33 79 -78c0 -46 -34 -79 -79 -79zM51 475h126v-475h-126v475z" />
    <glyph glyph-name="eth" unicode="&#xf0;" horiz-adv-x="570" 
d="M487 405c40 -69 51 -120 51 -169c0 -137 -112 -249 -254 -249c-141 0 -252 112 -252 249c0 138 111 243 239 243c12 0 23 -1 33 -3l-45 73l-112 -30l-27 101l83 22l-59 98h144l38 -65l103 28l27 -101l-74 -20zM284 107c73 0 126 59 126 129c0 69 -53 128 -126 128
c-71 0 -124 -59 -124 -128c0 -70 53 -129 124 -129z" />
    <glyph glyph-name="ntilde" unicode="&#xf1;" horiz-adv-x="563" 
d="M231 613c-24 0 -37 -14 -37 -47h-94c0 92 42 150 123 150c69 0 117 -47 152 -47c22 0 34 11 34 47h94c0 -92 -44 -150 -120 -150c-73 0 -119 47 -152 47zM316 484c101 0 191 -59 191 -216v-268h-126v255c0 68 -29 109 -94 109c-62 0 -99 -30 -99 -112v-252h-126v475h126
v-38c30 29 72 47 128 47z" />
    <glyph glyph-name="ograve" unicode="&#xf2;" horiz-adv-x="570" 
d="M144 638l47 107l240 -105l-44 -99zM284 -13c-141 0 -252 112 -252 249c0 138 111 248 252 248c143 0 254 -110 254 -248c0 -137 -111 -249 -254 -249zM284 107c72 0 126 59 126 129c0 69 -54 128 -126 128c-71 0 -124 -59 -124 -128c0 -70 53 -129 124 -129z" />
    <glyph glyph-name="oacute" unicode="&#xf3;" horiz-adv-x="570" 
d="M143 640l240 105l47 -107l-243 -97zM284 -13c-141 0 -252 112 -252 249c0 138 111 248 252 248c143 0 254 -110 254 -248c0 -137 -111 -249 -254 -249zM284 107c72 0 126 59 126 129c0 69 -54 128 -126 128c-71 0 -124 -59 -124 -128c0 -70 53 -129 124 -129z" />
    <glyph glyph-name="ocircumflex" unicode="&#xf4;" horiz-adv-x="570" 
d="M288 627l-131 -86l-58 89l168 115h42l169 -115l-59 -89zM284 484c143 0 254 -110 254 -248c0 -137 -111 -249 -254 -249c-141 0 -252 112 -252 249c0 138 111 248 252 248zM284 107c72 0 126 59 126 129c0 69 -54 128 -126 128c-71 0 -124 -59 -124 -128
c0 -70 53 -129 124 -129z" />
    <glyph glyph-name="otilde" unicode="&#xf5;" horiz-adv-x="570" 
d="M87 566c0 92 42 150 123 150c69 0 117 -47 152 -47c22 0 34 11 34 47h94c0 -92 -44 -150 -120 -150c-73 0 -119 47 -152 47c-24 0 -37 -14 -37 -47h-94zM284 -13c-141 0 -252 112 -252 249c0 138 111 248 252 248c143 0 254 -110 254 -248c0 -137 -111 -249 -254 -249z
M284 107c72 0 126 59 126 129c0 69 -54 128 -126 128c-71 0 -124 -59 -124 -128c0 -70 53 -129 124 -129z" />
    <glyph glyph-name="odieresis" unicode="&#xf6;" horiz-adv-x="570" 
d="M174 567c-45 0 -80 33 -80 79c0 45 35 78 80 78s79 -33 79 -78c0 -46 -34 -79 -79 -79zM395 567c-45 0 -79 33 -79 79c0 45 34 78 79 78s80 -33 80 -78c0 -46 -35 -79 -80 -79zM284 -13c-141 0 -252 112 -252 249c0 138 111 248 252 248c143 0 254 -110 254 -248
c0 -137 -111 -249 -254 -249zM284 107c72 0 126 59 126 129c0 69 -54 128 -126 128c-71 0 -124 -59 -124 -128c0 -70 53 -129 124 -129z" />
    <glyph glyph-name="divide" unicode="&#xf7;" horiz-adv-x="677" 
d="M339 488c-44 0 -78 33 -78 78s34 78 78 78s78 -33 78 -78s-34 -78 -78 -78zM61 406h556v-120h-556v120zM339 48c-44 0 -78 33 -78 79c0 44 34 77 78 77s78 -33 78 -77c0 -46 -34 -79 -78 -79z" />
    <glyph glyph-name="oslash" unicode="&#xf8;" horiz-adv-x="606" 
d="M580 433l-66 -66c24 -38 38 -83 38 -131c0 -137 -112 -249 -254 -249c-47 0 -92 13 -129 35l-63 -63l-83 83l61 61c-25 38 -39 84 -39 133c0 138 112 248 253 248c49 0 94 -13 132 -35l67 67zM298 107c72 0 126 59 126 129c0 69 -54 128 -126 128
c-71 0 -125 -59 -125 -128c0 -70 54 -129 125 -129z" />
    <glyph glyph-name="ugrave" unicode="&#xf9;" horiz-adv-x="558" 
d="M144 638l47 107l240 -105l-44 -99zM278 -13c-126 0 -224 67 -224 215v273h126v-245c0 -79 26 -122 98 -122c73 0 99 43 99 122v245h126v-273c0 -148 -99 -215 -225 -215z" />
    <glyph glyph-name="uacute" unicode="&#xfa;" horiz-adv-x="558" 
d="M143 640l240 105l47 -107l-243 -97zM278 -13c-126 0 -224 67 -224 215v273h126v-245c0 -79 26 -122 98 -122c73 0 99 43 99 122v245h126v-273c0 -148 -99 -215 -225 -215z" />
    <glyph glyph-name="ucircumflex" unicode="&#xfb;" horiz-adv-x="558" 
d="M288 627l-131 -86l-59 89l169 115h42l169 -115l-59 -89zM377 475h126v-273c0 -148 -99 -215 -225 -215s-224 67 -224 215v273h126v-245c0 -79 26 -122 98 -122c73 0 99 43 99 122v245z" />
    <glyph glyph-name="udieresis" unicode="&#xfc;" horiz-adv-x="558" 
d="M173 567c-45 0 -79 33 -79 79c0 45 34 78 79 78s80 -33 80 -78c0 -46 -35 -79 -80 -79zM395 567c-45 0 -79 33 -79 79c0 45 34 78 79 78s80 -33 80 -78c0 -46 -35 -79 -80 -79zM278 -13c-126 0 -224 67 -224 215v273h126v-245c0 -79 26 -122 98 -122c73 0 99 43 99 122
v245h126v-273c0 -148 -99 -215 -225 -215z" />
    <glyph glyph-name="yacute" unicode="&#xfd;" horiz-adv-x="532" 
d="M408 638l-242 -97l-44 99l240 105zM385 475h136l-290 -728h-126l97 244l-193 484h136l120 -322z" />
    <glyph glyph-name="thorn" unicode="&#xfe;" horiz-adv-x="603" 
d="M326 484c130 0 245 -107 245 -246s-115 -247 -245 -247c-54 0 -101 18 -138 47v-291h-126v993h126v-303c37 29 84 47 138 47zM316 109c69 0 127 59 127 129c0 69 -58 128 -127 128c-72 0 -128 -59 -128 -128c0 -70 56 -129 128 -129z" />
    <glyph glyph-name="ydieresis" unicode="&#xff;" horiz-adv-x="532" 
d="M152 567c-45 0 -80 33 -80 79c0 45 35 78 80 78s79 -33 79 -78c0 -46 -34 -79 -79 -79zM374 567c-45 0 -80 33 -80 79c0 45 35 78 80 78s79 -33 79 -78c0 -46 -34 -79 -79 -79zM385 475h136l-290 -728h-126l97 244l-193 484h136l120 -322z" />
    <glyph glyph-name="Amacron" unicode="&#x100;" horiz-adv-x="736" 
d="M532 966v-113h-339v113h339zM587 0l-60 156h-318l-60 -156h-143l295 740h136l294 -740h-144zM368 569l-111 -286h222z" />
    <glyph glyph-name="amacron" unicode="&#x101;" horiz-adv-x="602" 
d="M472 701v-113h-339v113h339zM414 475h126v-475h-126v38c-37 -30 -84 -47 -137 -47c-131 0 -245 108 -245 247s114 246 245 246c53 0 100 -17 137 -47v38zM286 109c72 0 128 59 128 129c0 69 -56 128 -128 128c-69 0 -126 -59 -126 -128c0 -70 57 -129 126 -129z" />
    <glyph glyph-name="Abreve" unicode="&#x102;" horiz-adv-x="736" 
d="M357 806c-110 0 -185 82 -185 194h106c0 -52 26 -85 79 -85s78 33 78 85h106c0 -112 -75 -194 -184 -194zM587 0l-60 156h-318l-60 -156h-143l295 740h136l294 -740h-144zM368 569l-111 -286h222z" />
    <glyph glyph-name="abreve" unicode="&#x103;" horiz-adv-x="602" 
d="M302 541c-109 0 -184 82 -184 194h106c0 -52 25 -85 78 -85s79 33 79 85h105c0 -112 -76 -194 -184 -194zM414 475h126v-475h-126v38c-37 -30 -84 -47 -137 -47c-131 0 -245 108 -245 247s114 246 245 246c53 0 100 -17 137 -47v38zM286 109c72 0 128 59 128 129
c0 69 -56 128 -128 128c-69 0 -126 -59 -126 -128c0 -70 57 -129 126 -129z" />
    <glyph glyph-name="Aogonek" unicode="&#x104;" horiz-adv-x="749" 
d="M655 -88c0 -33 18 -47 48 -47c11 0 19 1 28 4v-82c-16 -5 -35 -8 -57 -8c-67 0 -116 35 -116 98c0 48 23 97 68 123h-39l-60 156h-318l-60 -156h-143l295 740h136l294 -740h-21c-42 -26 -55 -57 -55 -88zM368 569l-111 -286h222z" />
    <glyph glyph-name="aogonek" unicode="&#x105;" horiz-adv-x="605" 
d="M513 -135c11 0 19 1 28 4v-82c-16 -5 -35 -8 -57 -8c-67 0 -116 35 -116 98c0 48 23 97 68 123h-22v38c-37 -30 -84 -47 -137 -47c-131 0 -245 108 -245 247s114 246 245 246c53 0 100 -17 137 -47v38h126v-475h-20c-42 -26 -55 -57 -55 -88c0 -33 18 -47 48 -47z
M286 109c72 0 128 59 128 129c0 69 -56 128 -128 128c-69 0 -126 -59 -126 -128c0 -70 57 -129 126 -129z" />
    <glyph glyph-name="Cacute" unicode="&#x106;" horiz-adv-x="710" 
d="M323 806l-44 99l240 105l47 -107zM424 -13c-214 0 -387 166 -387 382c0 211 166 384 386 384c111 0 207 -45 277 -117l-83 -93c-49 56 -116 87 -194 87c-144 0 -252 -120 -252 -262c0 -144 112 -259 253 -259c71 0 141 35 187 81l78 -93c-69 -66 -160 -110 -265 -110z
" />
    <glyph glyph-name="cacute" unicode="&#x107;" horiz-adv-x="516" 
d="M141 640l240 105l47 -107l-243 -97zM284 -13c-140 0 -252 112 -252 249c0 138 112 248 252 248c91 0 168 -45 213 -112l-105 -64c-24 34 -62 56 -107 56c-71 0 -125 -59 -125 -128c0 -70 54 -129 125 -129c47 0 87 24 110 61l104 -65c-44 -69 -124 -116 -215 -116z" />
    <glyph glyph-name="Cdotaccent" unicode="&#x10a;" horiz-adv-x="710" 
d="M423 822c-50 0 -89 38 -89 87c0 50 39 88 89 88s88 -38 88 -88c0 -49 -38 -87 -88 -87zM424 -13c-214 0 -387 166 -387 382c0 211 166 384 386 384c111 0 207 -45 277 -117l-83 -93c-49 56 -116 87 -194 87c-144 0 -252 -120 -252 -262c0 -144 112 -259 253 -259
c71 0 141 35 187 81l78 -93c-69 -66 -160 -110 -265 -110z" />
    <glyph glyph-name="cdotaccent" unicode="&#x10b;" horiz-adv-x="516" 
d="M290 572c-45 0 -80 34 -80 80c0 44 35 78 80 78c44 0 78 -34 78 -78c0 -46 -34 -80 -78 -80zM284 -13c-140 0 -252 112 -252 249c0 138 112 248 252 248c91 0 168 -45 213 -112l-105 -64c-24 34 -62 56 -107 56c-71 0 -125 -59 -125 -128c0 -70 54 -129 125 -129
c47 0 87 24 110 61l104 -65c-44 -69 -124 -116 -215 -116z" />
    <glyph glyph-name="Ccaron" unicode="&#x10c;" horiz-adv-x="710" 
d="M444 806h-42l-169 115l59 89l131 -86l131 86l59 -89zM424 109c71 0 141 35 187 81l78 -93c-69 -66 -160 -110 -265 -110c-214 0 -387 166 -387 382c0 211 166 384 386 384c111 0 207 -45 277 -117l-83 -93c-49 56 -116 87 -194 87c-144 0 -252 -120 -252 -262
c0 -144 112 -259 253 -259z" />
    <glyph glyph-name="ccaron" unicode="&#x10d;" horiz-adv-x="516" 
d="M307 541h-42l-169 115l59 89l131 -86l131 86l59 -89zM395 168l104 -65c-44 -69 -124 -116 -215 -116c-140 0 -252 112 -252 249c0 138 112 248 252 248c91 0 168 -45 213 -112l-105 -64c-24 34 -62 56 -107 56c-71 0 -125 -59 -125 -128c0 -70 54 -129 125 -129
c47 0 87 24 110 61z" />
    <glyph glyph-name="Dcaron" unicode="&#x10e;" horiz-adv-x="730" 
d="M359 806h-42l-168 115l58 89l131 -86l131 86l59 -89zM294 740c236 0 398 -139 398 -370s-162 -370 -398 -370h-213v740h213zM291 128c146 0 267 65 267 242s-121 242 -267 242h-76v-484h76z" />
    <glyph glyph-name="dcaron" unicode="&#x10f;" horiz-adv-x="622" 
d="M414 437v303h126v-740h-126v38c-37 -30 -84 -47 -137 -47c-131 0 -245 108 -245 247s114 246 245 246c53 0 100 -17 137 -47zM617 740h112l-35 -240h-107zM286 109c72 0 128 59 128 129c0 69 -56 128 -128 128c-69 0 -126 -59 -126 -128c0 -70 57 -129 126 -129z" />
    <glyph glyph-name="Dcroat" unicode="&#x110;" horiz-adv-x="744" 
d="M308 740c236 0 398 -139 398 -370s-162 -370 -398 -370h-213v318h-79v113h79v309h213zM305 128c146 0 268 65 268 242s-122 242 -268 242h-76v-181h166v-113h-166v-190h76z" />
    <glyph glyph-name="dcroat" unicode="&#x111;" horiz-adv-x="620" 
d="M637 662v-113h-97v-549h-126v38c-37 -30 -84 -47 -137 -47c-131 0 -245 108 -245 247s114 246 245 246c53 0 100 -17 137 -47v112h-156v113h156v78h126v-78h97zM286 109c72 0 128 59 128 129c0 69 -56 128 -128 128c-69 0 -126 -59 -126 -128c0 -70 57 -129 126 -129z
" />
    <glyph glyph-name="Emacron" unicode="&#x112;" horiz-adv-x="593" 
d="M153 966h339v-113h-339v113zM81 0v740h471v-128h-337v-162h266v-128h-266v-194h337v-128h-471z" />
    <glyph glyph-name="emacron" unicode="&#x113;" horiz-adv-x="546" 
d="M454 701v-113h-339v113h339zM274 484c153 0 243 -109 243 -248c0 -10 -1 -26 -2 -39h-358c14 -58 58 -98 128 -98c49 0 91 20 116 53l85 -68c-41 -55 -103 -97 -198 -97c-168 0 -256 122 -256 251s99 246 242 246zM159 287h233c-10 52 -47 84 -115 84
c-56 0 -101 -31 -118 -84z" />
    <glyph glyph-name="Edotaccent" unicode="&#x116;" horiz-adv-x="593" 
d="M322 822c-50 0 -88 38 -88 87c0 50 38 88 88 88s89 -38 89 -88c0 -49 -39 -87 -89 -87zM81 0v740h471v-128h-337v-162h266v-128h-266v-194h337v-128h-471z" />
    <glyph glyph-name="edotaccent" unicode="&#x117;" horiz-adv-x="546" 
d="M288 572c-45 0 -79 34 -79 80c0 44 34 78 79 78s79 -34 79 -78c0 -46 -34 -80 -79 -80zM274 484c153 0 243 -109 243 -248c0 -10 -1 -26 -2 -39h-358c14 -58 58 -98 128 -98c49 0 91 20 116 53l85 -68c-41 -55 -103 -97 -198 -97c-168 0 -256 122 -256 251
s99 246 242 246zM159 287h233c-10 52 -47 84 -115 84c-56 0 -101 -31 -118 -84z" />
    <glyph glyph-name="Eogonek" unicode="&#x118;" horiz-adv-x="593" 
d="M552 612h-337v-162h266v-128h-266v-194h337v-128h-24c-42 -26 -55 -57 -55 -88c0 -33 18 -47 48 -47c11 0 19 1 28 4v-82c-16 -5 -35 -8 -57 -8c-67 0 -116 35 -116 98c0 48 23 97 68 123h-363v740h471v-128z" />
    <glyph glyph-name="eogonek" unicode="&#x119;" horiz-adv-x="546" 
d="M274 484c153 0 243 -109 243 -248c0 -10 -1 -26 -2 -39h-358c14 -58 58 -98 128 -98c49 0 91 20 116 53l85 -68c-24 -32 -54 -59 -94 -76c-40 -27 -52 -56 -52 -86c0 -33 18 -47 48 -47c11 0 19 1 28 4v-82c-16 -6 -34 -9 -57 -9c-67 0 -116 36 -116 98
c0 37 13 74 39 101c-164 3 -250 123 -250 251c0 129 99 246 242 246zM159 287h233c-10 52 -47 84 -115 84c-56 0 -101 -31 -118 -84z" />
    <glyph glyph-name="Ecaron" unicode="&#x11a;" horiz-adv-x="593" 
d="M343 806h-42l-169 115l59 89l131 -86l131 86l59 -89zM552 612h-337v-162h266v-128h-266v-194h337v-128h-471v740h471v-128z" />
    <glyph glyph-name="ecaron" unicode="&#x11b;" horiz-adv-x="546" 
d="M306 541h-43l-168 115l59 89l131 -86l130 86l59 -89zM274 484c153 0 243 -109 243 -248c0 -10 -1 -26 -2 -39h-358c14 -58 58 -98 128 -98c49 0 91 20 116 53l85 -68c-41 -55 -103 -97 -198 -97c-168 0 -256 122 -256 251s99 246 242 246zM159 287h233
c-10 52 -47 84 -115 84c-56 0 -101 -31 -118 -84z" />
    <glyph glyph-name="Gbreve" unicode="&#x11e;" horiz-adv-x="799" 
d="M409 806c-110 0 -185 82 -185 194h106c0 -52 26 -85 79 -85c52 0 78 33 78 85h106c0 -112 -76 -194 -184 -194zM429 -13c-221 0 -392 166 -392 381c0 212 166 385 386 385c112 0 210 -44 280 -115l-80 -92c-54 62 -128 84 -195 84c-151 0 -257 -120 -257 -262
c0 -144 108 -259 260 -259c114 0 202 72 202 191v1h-231v127h363v-85c0 -191 -113 -356 -336 -356z" />
    <glyph glyph-name="gbreve" unicode="&#x11f;" horiz-adv-x="601" 
d="M302 541c-109 0 -184 82 -184 194h106c0 -52 25 -85 78 -85s79 33 79 85h105c0 -112 -76 -194 -184 -194zM414 475h126v-471c0 -230 -160 -267 -246 -267c-102 0 -181 47 -225 117l114 51c24 -29 61 -48 111 -48c62 0 120 35 120 123v58c-37 -30 -84 -47 -137 -47
c-131 0 -245 108 -245 247s114 246 245 246c53 0 100 -17 137 -47v38zM286 109c72 0 128 59 128 129c0 69 -56 128 -128 128c-69 0 -126 -59 -126 -128c0 -70 57 -129 126 -129z" />
    <glyph glyph-name="Gdotaccent" unicode="&#x120;" horiz-adv-x="799" 
d="M415 822c-50 0 -89 38 -89 87c0 50 39 88 89 88s88 -38 88 -88c0 -49 -38 -87 -88 -87zM429 -13c-221 0 -392 166 -392 381c0 212 166 385 386 385c112 0 210 -44 280 -115l-80 -92c-54 62 -128 84 -195 84c-151 0 -257 -120 -257 -262c0 -144 108 -259 260 -259
c114 0 202 72 202 191v1h-231v127h363v-85c0 -191 -113 -356 -336 -356z" />
    <glyph glyph-name="gdotaccent" unicode="&#x121;" horiz-adv-x="601" 
d="M306 572c-45 0 -80 34 -80 80c0 44 35 78 80 78c44 0 79 -34 79 -78c0 -46 -35 -80 -79 -80zM414 475h126v-471c0 -230 -160 -267 -246 -267c-102 0 -181 47 -225 117l114 51c24 -29 61 -48 111 -48c62 0 120 35 120 123v58c-37 -30 -84 -47 -137 -47
c-131 0 -245 108 -245 247s114 246 245 246c53 0 100 -17 137 -47v38zM286 109c72 0 128 59 128 129c0 69 -56 128 -128 128c-69 0 -126 -59 -126 -128c0 -70 57 -129 126 -129z" />
    <glyph glyph-name="uni0122" unicode="&#x122;" horiz-adv-x="799" 
d="M429 -13c-221 0 -392 166 -392 381c0 212 166 385 386 385c112 0 210 -44 280 -115l-80 -92c-54 62 -128 84 -195 84c-151 0 -257 -120 -257 -262c0 -144 108 -259 260 -259c114 0 202 72 202 191v1h-231v127h363v-85c0 -191 -113 -356 -336 -356zM345 -247
c49 24 67 56 67 77c-3 -1 -8 -2 -17 -2c-27 0 -54 24 -54 56c0 36 29 65 69 65s72 -31 72 -83c0 -62 -36 -110 -108 -151z" />
    <glyph glyph-name="uni0123" unicode="&#x123;" horiz-adv-x="601" 
d="M303 546c-40 0 -71 32 -71 83c0 62 36 110 107 152l29 -39c-49 -24 -67 -56 -67 -77c3 1 8 2 17 2c28 0 55 -24 55 -56c0 -35 -30 -65 -70 -65zM414 475h126v-471c0 -230 -160 -267 -246 -267c-102 0 -181 47 -225 117l114 51c24 -29 61 -48 111 -48c62 0 120 35 120 123
v58c-37 -30 -84 -47 -137 -47c-131 0 -245 108 -245 247s114 246 245 246c53 0 100 -17 137 -47v38zM286 109c72 0 128 59 128 129c0 69 -56 128 -128 128c-69 0 -126 -59 -126 -128c0 -70 57 -129 126 -129z" />
    <glyph glyph-name="Hbar" unicode="&#x126;" horiz-adv-x="805" 
d="M786 661v-113h-72v-548h-134v325h-352v-325h-133v548h-76v113h76v79h133v-79h352v79h134v-79h72zM580 454v94h-352v-94h352z" />
    <glyph glyph-name="hbar" unicode="&#x127;" horiz-adv-x="566" 
d="M319 484c100 0 191 -59 191 -216v-268h-126v255c0 68 -29 109 -95 109c-61 0 -98 -30 -98 -112v-252h-126v549h-82v113h82v78h126v-78h171v-113h-171v-111c30 28 72 46 128 46z" />
    <glyph glyph-name="Itilde" unicode="&#x128;" horiz-adv-x="314" 
d="M-44 838c0 92 42 150 123 150c69 0 116 -47 151 -47c22 0 34 11 34 47h94c0 -92 -43 -150 -119 -150c-73 0 -119 47 -152 47c-24 0 -37 -14 -37 -47h-94zM92 0v740h133v-740h-133z" />
    <glyph glyph-name="itilde" unicode="&#x129;" horiz-adv-x="275" 
d="M-62 566c0 92 42 150 123 150c69 0 117 -47 152 -47c22 0 34 11 34 47h94c0 -92 -44 -150 -120 -150c-73 0 -119 47 -152 47c-24 0 -37 -14 -37 -47h-94zM64 475h126v-475h-126v475z" />
    <glyph glyph-name="Imacron" unicode="&#x12a;" horiz-adv-x="295" 
d="M-22 966h339v-113h-339v113zM82 0v740h134v-740h-134z" />
    <glyph glyph-name="imacron" unicode="&#x12b;" horiz-adv-x="255" 
d="M-40 701h339v-113h-339v113zM55 475h126v-475h-126v475z" />
    <glyph glyph-name="Iogonek" unicode="&#x12e;" horiz-adv-x="299" 
d="M193 0c-42 -26 -55 -57 -55 -88c0 -33 18 -47 48 -47c11 0 19 1 28 4v-82c-16 -5 -35 -8 -57 -8c-67 0 -116 35 -116 98c0 48 23 97 68 123h-25v740h134v-740h-25z" />
    <glyph glyph-name="iogonek" unicode="&#x12f;" horiz-adv-x="254" 
d="M124 572c-45 0 -80 34 -80 80c0 44 35 78 80 78c44 0 79 -34 79 -78c0 -46 -35 -80 -79 -80zM116 -88c0 -33 18 -47 48 -47c11 0 19 1 28 4v-82c-16 -5 -34 -8 -57 -8c-67 0 -116 35 -116 98c0 48 23 97 69 123h-31v475h126v-475h-11c-43 -26 -56 -57 -56 -88z" />
    <glyph glyph-name="Idotaccent" unicode="&#x130;" horiz-adv-x="298" 
d="M148 822c-50 0 -88 38 -88 87c0 50 38 88 88 88s89 -38 89 -88c0 -49 -39 -87 -89 -87zM83 0v740h134v-740h-134z" />
    <glyph glyph-name="dotlessi" unicode="&#x131;" horiz-adv-x="252" 
d="M62 475h126v-475h-126v475z" />
    <glyph glyph-name="IJ" unicode="&#x132;" horiz-adv-x="582" 
d="M81 0v740h134v-740h-134zM253 -224v122c79 10 116 49 116 194v648h134v-647c0 -209 -66 -302 -250 -317z" />
    <glyph glyph-name="ij" unicode="&#x133;" horiz-adv-x="535" 
d="M127 572c-45 0 -80 34 -80 80c0 44 35 78 80 78c44 0 79 -34 79 -78c0 -46 -35 -80 -79 -80zM401 572c-45 0 -79 34 -79 80c0 44 34 78 79 78c44 0 79 -34 79 -78c0 -46 -35 -80 -79 -80zM62 475h126v-475h-126v475zM336 475h126v-728h-126v728z" />
    <glyph glyph-name="uni0136" unicode="&#x136;" horiz-adv-x="668" 
d="M336 365l349 -365h-176l-294 312v-312h-134v740h134v-325l276 325h168zM343 -51c40 0 71 -31 71 -83c0 -62 -36 -110 -107 -151l-30 38c49 24 68 56 68 77c-4 -1 -9 -2 -17 -2c-28 0 -55 24 -55 56c0 36 30 65 70 65z" />
    <glyph glyph-name="uni0137" unicode="&#x137;" horiz-adv-x="527" 
d="M314 252l224 -252h-167l-183 210v-210h-126v740h126v-447l170 182h165zM281 -51c40 0 71 -31 71 -83c0 -62 -36 -110 -107 -151l-30 38c49 24 67 56 67 77c-3 -1 -8 -2 -17 -2c-27 0 -54 24 -54 56c0 36 30 65 70 65z" />
    <glyph glyph-name="kgreenlandic" unicode="&#x138;" horiz-adv-x="527" 
d="M538 0h-167l-183 200v-200h-126v475h126v-193l170 193h165l-209 -231z" />
    <glyph glyph-name="Lacute" unicode="&#x139;" horiz-adv-x="571" 
d="M49 806l-43 99l240 105l46 -107zM84 0v740h134v-612h341v-128h-475z" />
    <glyph glyph-name="lacute" unicode="&#x13a;" horiz-adv-x="280" 
d="M24 806l-43 99l240 105l46 -107zM185 -13c-92 0 -142 51 -142 141v612h126v-583c0 -32 9 -52 52 -52c4 0 12 0 19 1v-111c-14 -4 -33 -8 -55 -8z" />
    <glyph glyph-name="uni013B" unicode="&#x13b;" horiz-adv-x="568" 
d="M81 0v740h134v-612h341v-128h-475zM255 -247c49 24 67 56 67 77c-3 -1 -8 -2 -17 -2c-27 0 -55 24 -55 56c0 36 30 65 70 65s72 -31 72 -83c0 -62 -36 -110 -108 -151z" />
    <glyph glyph-name="uni013C" unicode="&#x13c;" horiz-adv-x="270" 
d="M203 -13c-92 0 -143 51 -143 141v612h126v-583c0 -32 9 -52 52 -52c4 0 12 0 19 1v-111c-14 -4 -33 -8 -54 -8zM112 -247c49 24 67 56 67 77c-3 -1 -8 -2 -17 -2c-27 0 -54 24 -54 56c0 36 30 65 69 65c41 0 72 -31 72 -83c0 -62 -36 -110 -108 -151z" />
    <glyph glyph-name="Lcaron" unicode="&#x13d;" horiz-adv-x="568" 
d="M81 0v740h134v-612h341v-128h-475zM359 500l30 240h111l-35 -240h-106z" />
    <glyph glyph-name="lcaron" unicode="&#x13e;" horiz-adv-x="315" 
d="M203 -13c-92 0 -143 51 -143 141v612h126v-583c0 -32 9 -52 52 -52c4 0 12 0 19 1v-111c-14 -4 -33 -8 -54 -8zM244 500l30 240h112l-35 -240h-107z" />
    <glyph glyph-name="Ldot" unicode="&#x13f;" horiz-adv-x="568" 
d="M81 0v740h134v-612h341v-128h-475zM382 311c-45 0 -79 33 -79 78s34 78 79 78c43 0 78 -33 78 -78s-35 -78 -78 -78z" />
    <glyph glyph-name="ldot" unicode="&#x140;" horiz-adv-x="385" 
d="M203 -13c-92 0 -143 51 -143 141v612h126v-583c0 -32 9 -52 52 -52c4 0 12 0 19 1v-111c-14 -4 -33 -8 -54 -8zM279 286c-45 0 -79 33 -79 79c0 44 34 77 79 77c44 0 78 -33 78 -77c0 -46 -34 -79 -78 -79z" />
    <glyph glyph-name="Lslash" unicode="&#x141;" horiz-adv-x="612" 
d="M258 128h341v-128h-475v270l-57 -27l-49 102l106 50v345h134v-283l83 39l49 -102l-132 -62v-204z" />
    <glyph glyph-name="lslash" unicode="&#x142;" horiz-adv-x="376" 
d="M220 157c0 -32 9 -52 52 -52c4 0 12 0 19 1v-111c-15 -4 -34 -8 -55 -8c-92 0 -142 51 -142 141v175l-54 -15l-27 102l81 22v328h126v-294l102 27l27 -101l-129 -35v-180z" />
    <glyph glyph-name="Nacute" unicode="&#x143;" horiz-adv-x="839" 
d="M580 903l-243 -97l-43 99l240 105zM625 740h133v-740h-140l-403 563v-563h-134v740h168l376 -525v525z" />
    <glyph glyph-name="nacute" unicode="&#x144;" horiz-adv-x="563" 
d="M443 638l-243 -97l-44 99l240 105zM316 484c101 0 191 -59 191 -216v-268h-126v255c0 68 -29 109 -94 109c-62 0 -99 -30 -99 -112v-252h-126v475h126v-38c30 29 72 47 128 47z" />
    <glyph glyph-name="uni0145" unicode="&#x145;" horiz-adv-x="839" 
d="M625 740h133v-740h-140l-403 563v-563h-134v740h168l376 -525v525zM418 -51c41 0 72 -31 72 -83c0 -62 -36 -110 -107 -151l-30 38c49 24 67 56 67 77c-3 -1 -8 -2 -17 -2c-27 0 -54 24 -54 56c0 36 30 65 69 65z" />
    <glyph glyph-name="uni0146" unicode="&#x146;" horiz-adv-x="563" 
d="M316 484c101 0 191 -59 191 -216v-268h-126v255c0 68 -29 109 -94 109c-62 0 -99 -30 -99 -112v-252h-126v475h126v-38c30 29 72 47 128 47zM298 -51c40 0 72 -31 72 -83c0 -62 -36 -110 -108 -151l-29 38c49 24 67 56 67 77c-3 -1 -8 -2 -17 -2c-27 0 -54 24 -54 56
c0 36 29 65 69 65z" />
    <glyph glyph-name="Ncaron" unicode="&#x147;" horiz-adv-x="839" 
d="M459 806h-43l-168 115l59 89l131 -86l130 86l59 -89zM625 740h133v-740h-140l-403 563v-563h-134v740h168l376 -525v525z" />
    <glyph glyph-name="ncaron" unicode="&#x148;" horiz-adv-x="563" 
d="M322 541h-42l-168 115l58 89l131 -86l131 86l59 -89zM316 484c101 0 191 -59 191 -216v-268h-126v255c0 68 -29 109 -94 109c-62 0 -99 -30 -99 -112v-252h-126v475h126v-38c30 29 72 47 128 47z" />
    <glyph glyph-name="Eng" unicode="&#x14a;" horiz-adv-x="839" 
d="M625 740h133v-657c0 -208 -66 -302 -251 -317v122c64 8 100 34 112 118l-404 558v-564h-134v740h168l376 -517v517z" />
    <glyph glyph-name="eng" unicode="&#x14b;" horiz-adv-x="563" 
d="M316 484c101 0 191 -59 191 -216v-351c0 -90 -50 -141 -142 -141c-21 0 -41 4 -55 8v110c7 -1 15 -1 19 -1c43 0 52 20 52 52v310c0 68 -29 109 -94 109c-62 0 -99 -30 -99 -112v-252h-126v475h126v-38c30 29 72 47 128 47z" />
    <glyph glyph-name="Omacron" unicode="&#x14c;" horiz-adv-x="849" 
d="M248 966h339v-113h-339v113zM424 -13c-214 0 -387 166 -387 382c0 211 166 384 387 384s387 -173 387 -384c0 -216 -174 -382 -387 -382zM424 110c141 0 252 114 252 258c0 142 -107 262 -252 262s-253 -120 -253 -262c0 -144 112 -258 253 -258z" />
    <glyph glyph-name="omacron" unicode="&#x14d;" horiz-adv-x="570" 
d="M119 701h339v-113h-339v113zM284 -13c-141 0 -252 112 -252 249c0 138 111 248 252 248c143 0 254 -110 254 -248c0 -137 -111 -249 -254 -249zM284 107c72 0 126 59 126 129c0 69 -54 128 -126 128c-71 0 -124 -59 -124 -128c0 -70 53 -129 124 -129z" />
    <glyph glyph-name="Ohungarumlaut" unicode="&#x150;" horiz-adv-x="849" 
d="M336 806l-86 66l110 139l90 -73zM527 806l-85 66l110 139l90 -73zM424 -13c-214 0 -387 166 -387 382c0 211 166 384 387 384s387 -173 387 -384c0 -216 -174 -382 -387 -382zM424 110c141 0 252 114 252 258c0 142 -107 262 -252 262s-253 -120 -253 -262
c0 -144 112 -258 253 -258z" />
    <glyph glyph-name="ohungarumlaut" unicode="&#x151;" horiz-adv-x="570" 
d="M122 608l109 138l91 -72l-115 -133zM313 608l110 138l90 -72l-115 -133zM284 -13c-141 0 -252 112 -252 249c0 138 111 248 252 248c143 0 254 -110 254 -248c0 -137 -111 -249 -254 -249zM284 107c72 0 126 59 126 129c0 69 -54 128 -126 128c-71 0 -124 -59 -124 -128
c0 -70 53 -129 124 -129z" />
    <glyph glyph-name="OE" unicode="&#x152;" horiz-adv-x="1188" 
d="M1147 612h-338v-162h266v-128h-266v-194h338v-128h-471v78c-68 -57 -156 -91 -252 -91c-214 0 -387 166 -387 382c0 211 166 384 387 384c98 0 185 -34 252 -90v77h471v-128zM424 110c141 0 252 114 252 258c0 142 -107 262 -252 262s-253 -120 -253 -262
c0 -144 112 -258 253 -258z" />
    <glyph glyph-name="oe" unicode="&#x153;" horiz-adv-x="929" 
d="M656 484c153 0 243 -109 243 -248c0 -10 -1 -26 -2 -39h-358c14 -58 58 -98 128 -98c48 0 91 20 116 53l85 -68c-42 -55 -103 -97 -198 -97c-87 0 -153 33 -196 83c-46 -51 -114 -83 -190 -83c-141 0 -252 112 -252 249c0 138 111 248 252 248c76 0 144 -31 190 -82
c43 50 106 82 182 82zM541 287h232c-9 52 -46 84 -114 84c-56 0 -101 -31 -118 -84zM284 107c72 0 126 59 126 129c0 69 -54 128 -126 128c-71 0 -124 -59 -124 -128c0 -70 53 -129 124 -129z" />
    <glyph glyph-name="Racute" unicode="&#x154;" horiz-adv-x="658" 
d="M471 903l-243 -97l-44 99l240 105zM629 0h-153l-175 305h-86v-305h-134v740h278c185 0 257 -92 257 -217c0 -103 -49 -184 -170 -210zM215 613v-180h154c78 0 114 33 114 89s-36 91 -114 91h-154z" />
    <glyph glyph-name="racute" unicode="&#x155;" horiz-adv-x="368" 
d="M363 638l-243 -97l-44 99l240 105zM188 433c33 34 88 51 152 51h20v-120h-9c-106 0 -163 -28 -163 -115v-249h-126v475h126v-42z" />
    <glyph glyph-name="uni0156" unicode="&#x156;" horiz-adv-x="658" 
d="M446 313l183 -313h-153l-175 305h-86v-305h-134v740h278c185 0 257 -92 257 -217c0 -103 -49 -184 -170 -210zM215 613v-180h154c78 0 114 33 114 89s-36 91 -114 91h-154zM329 -51c41 0 72 -31 72 -83c0 -62 -36 -110 -108 -151l-29 38c49 24 67 56 67 77
c-3 -1 -8 -2 -17 -2c-27 0 -54 24 -54 56c0 36 30 65 69 65z" />
    <glyph glyph-name="uni0157" unicode="&#x157;" horiz-adv-x="368" 
d="M340 484h20v-120h-9c-106 0 -163 -28 -163 -115v-249h-126v475h126v-42c33 34 88 51 152 51zM133 -51c41 0 72 -31 72 -83c0 -62 -36 -110 -107 -151l-30 38c49 24 67 56 67 77c-3 -1 -8 -2 -17 -2c-27 0 -54 24 -54 56c0 36 30 65 69 65z" />
    <glyph glyph-name="Rcaron" unicode="&#x158;" horiz-adv-x="658" 
d="M349 806h-42l-168 115l58 89l131 -86l131 86l59 -89zM629 0h-153l-175 305h-86v-305h-134v740h278c185 0 257 -92 257 -217c0 -103 -49 -184 -170 -210zM215 613v-180h154c78 0 114 33 114 89s-36 91 -114 91h-154z" />
    <glyph glyph-name="rcaron" unicode="&#x159;" horiz-adv-x="368" 
d="M238 541h-42l-169 115l59 89l131 -86l131 86l58 -89zM188 433c33 34 88 51 152 51h20v-120h-9c-106 0 -163 -28 -163 -115v-249h-126v475h126v-42z" />
    <glyph glyph-name="Sacute" unicode="&#x15a;" horiz-adv-x="573" 
d="M189 806l-44 99l240 105l46 -107zM110 204c42 -47 92 -95 173 -95c83 0 115 50 115 96c0 143 -326 91 -326 334c0 135 101 214 241 214c66 0 137 -18 208 -70l-69 -104c-42 37 -99 52 -146 52c-64 0 -102 -29 -102 -78c0 -147 328 -81 328 -342
c0 -132 -86 -224 -250 -224c-89 0 -178 26 -254 129z" />
    <glyph glyph-name="sacute" unicode="&#x15b;" horiz-adv-x="435" 
d="M79 640l240 105l46 -107l-243 -97zM89 149c45 -38 97 -49 132 -49c43 0 57 17 57 34c0 70 -232 27 -232 198c0 88 63 152 171 152c77 0 144 -23 184 -59l-65 -90c-35 24 -73 36 -118 36c-38 0 -48 -13 -48 -29c0 -66 228 -34 228 -204c0 -87 -64 -151 -184 -151
c-89 0 -146 34 -190 67z" />
    <glyph glyph-name="Scedilla" unicode="&#x15e;" horiz-adv-x="573" 
d="M532 211c0 -126 -79 -216 -230 -224l-12 -34h10c56 0 99 -37 99 -99s-50 -107 -130 -107c-44 0 -81 11 -114 41l53 62c12 -15 37 -26 57 -26c26 0 38 9 38 26c0 20 -13 31 -40 31h-79l39 110c-69 11 -136 45 -195 125l82 88c42 -47 92 -95 173 -95c83 0 115 50 115 96
c0 143 -326 91 -326 334c0 135 101 214 241 214c66 0 137 -18 208 -70l-69 -104c-42 37 -99 52 -146 52c-64 0 -102 -29 -102 -78c0 -147 328 -81 328 -342z" />
    <glyph glyph-name="scedilla" unicode="&#x15f;" horiz-adv-x="435" 
d="M170 342c0 -66 228 -34 228 -204c0 -79 -53 -139 -153 -150l-13 -35h10c56 0 99 -37 99 -99s-50 -107 -129 -107c-45 0 -81 11 -115 41l53 62c12 -15 37 -26 58 -26c25 0 37 9 37 26c0 20 -13 31 -40 31h-79l39 110c-62 9 -106 37 -141 63l65 95c45 -38 97 -49 132 -49
c43 0 57 17 57 34c0 70 -232 27 -232 198c0 88 63 152 171 152c77 0 144 -23 184 -59l-65 -90c-35 24 -73 36 -118 36c-38 0 -48 -13 -48 -29z" />
    <glyph glyph-name="Scaron" unicode="&#x160;" horiz-adv-x="573" 
d="M337 806h-42l-169 115l59 89l131 -86l131 86l58 -89zM204 553c0 -147 328 -81 328 -342c0 -132 -86 -224 -250 -224c-89 0 -178 26 -254 129l82 88c42 -47 92 -95 173 -95c83 0 115 50 115 96c0 143 -326 91 -326 334c0 135 101 214 241 214c66 0 137 -18 208 -70
l-69 -104c-42 37 -99 52 -146 52c-64 0 -102 -29 -102 -78z" />
    <glyph glyph-name="scaron" unicode="&#x161;" horiz-adv-x="435" 
d="M241 541h-42l-169 115l59 89l131 -86l131 86l58 -89zM218 371c-38 0 -48 -13 -48 -29c0 -66 228 -34 228 -204c0 -87 -64 -151 -184 -151c-89 0 -146 34 -190 67l65 95c45 -38 97 -49 132 -49c43 0 57 17 57 34c0 70 -232 27 -232 198c0 88 63 152 171 152
c77 0 144 -23 184 -59l-65 -90c-35 24 -73 36 -118 36z" />
    <glyph glyph-name="uni0162" unicode="&#x162;" horiz-adv-x="631" 
d="M383 0h-23l-17 -47h10c56 0 99 -37 99 -99s-50 -107 -129 -107c-45 0 -81 11 -114 41l52 62c12 -15 37 -26 58 -26c26 0 38 9 38 26c0 20 -13 31 -40 31h-79l42 119h-31v612h-237v128h607v-128h-236v-612z" />
    <glyph glyph-name="uni0163" unicode="&#x163;" horiz-adv-x="368" 
d="M347 356h-125v-187c0 -34 10 -64 53 -64c31 0 59 5 60 5v-111c-1 0 -36 -12 -95 -12h-2l-12 -34h10c56 0 99 -37 99 -99s-50 -107 -130 -107c-44 0 -81 11 -114 41l53 62c12 -15 37 -26 57 -26c26 0 38 9 38 26c0 20 -13 31 -40 31h-79l43 124c-44 24 -67 74 -67 139v212
h-74v119h74v156h126v-156h125v-119z" />
    <glyph glyph-name="Tcaron" unicode="&#x164;" horiz-adv-x="631" 
d="M349 806h-42l-169 115l59 89l131 -86l131 86l58 -89zM12 740h607v-128h-236v-612h-134v612h-237v128z" />
    <glyph glyph-name="tcaron" unicode="&#x165;" horiz-adv-x="378" 
d="M293 740h111l-35 -240h-106zM221 631v-156h125v-119h-125v-187c0 -34 10 -64 53 -64c31 0 59 5 60 5v-111c-1 0 -36 -12 -95 -12c-95 0 -144 61 -144 157v212h-74v119h74v156h126z" />
    <glyph glyph-name="Tbar" unicode="&#x166;" horiz-adv-x="642" 
d="M624 612h-236v-206h134v-113h-134v-293h-134v293h-111v113h111v206h-237v128h607v-128z" />
    <glyph glyph-name="tbar" unicode="&#x167;" horiz-adv-x="373" 
d="M348 356h-125v-55h119v-113h-119v-19c0 -34 10 -64 53 -64c31 0 59 5 60 5v-111c-1 0 -37 -12 -95 -12c-95 0 -144 61 -144 157v44h-72v113h72v55h-74v119h74v156h126v-156h125v-119z" />
    <glyph glyph-name="Utilde" unicode="&#x168;" horiz-adv-x="763" 
d="M181 838c0 92 42 150 124 150c69 0 116 -47 151 -47c22 0 34 11 34 47h94c0 -92 -43 -150 -119 -150c-73 0 -120 47 -153 47c-23 0 -36 -14 -36 -47h-95zM382 -13c-187 0 -311 113 -311 341v412h134v-371c0 -179 42 -260 177 -260s177 81 177 260v371h134v-412
c0 -228 -124 -341 -311 -341z" />
    <glyph glyph-name="utilde" unicode="&#x169;" horiz-adv-x="558" 
d="M87 566c0 92 42 150 123 150c69 0 116 -47 151 -47c22 0 34 11 34 47h94c0 -92 -43 -150 -119 -150c-73 0 -119 47 -152 47c-24 0 -37 -14 -37 -47h-94zM278 -13c-126 0 -224 67 -224 215v273h126v-245c0 -79 26 -122 98 -122c73 0 99 43 99 122v245h126v-273
c0 -148 -99 -215 -225 -215z" />
    <glyph glyph-name="Umacron" unicode="&#x16a;" horiz-adv-x="763" 
d="M212 966h339v-113h-339v113zM382 -13c-187 0 -311 113 -311 341v412h134v-371c0 -179 42 -260 177 -260s177 81 177 260v371h134v-412c0 -228 -124 -341 -311 -341z" />
    <glyph glyph-name="umacron" unicode="&#x16b;" horiz-adv-x="558" 
d="M109 701h339v-113h-339v113zM278 -13c-126 0 -224 67 -224 215v273h126v-245c0 -79 26 -122 98 -122c73 0 99 43 99 122v245h126v-273c0 -148 -99 -215 -225 -215z" />
    <glyph glyph-name="Uring" unicode="&#x16e;" horiz-adv-x="763" 
d="M379 766c-75 0 -128 54 -128 122c0 67 53 122 128 122s128 -55 128 -122c0 -68 -53 -122 -128 -122zM379 841c29 0 48 21 48 47s-19 47 -48 47s-48 -21 -48 -47s19 -47 48 -47zM382 -13c-187 0 -311 113 -311 341v412h134v-371c0 -179 42 -260 177 -260s177 81 177 260
v371h134v-412c0 -228 -124 -341 -311 -341z" />
    <glyph glyph-name="uring" unicode="&#x16f;" horiz-adv-x="558" 
d="M278 501c-75 0 -128 54 -128 122c0 67 53 122 128 122s128 -55 128 -122c0 -68 -53 -122 -128 -122zM278 576c29 0 48 21 48 47s-19 47 -48 47c-28 0 -47 -21 -47 -47s19 -47 47 -47zM278 -13c-126 0 -224 67 -224 215v273h126v-245c0 -79 26 -122 98 -122
c73 0 99 43 99 122v245h126v-273c0 -148 -99 -215 -225 -215z" />
    <glyph glyph-name="Uhungarumlaut" unicode="&#x170;" horiz-adv-x="763" 
d="M310 806l-86 66l110 139l90 -73zM501 806l-85 66l110 139l90 -73zM382 -13c-187 0 -311 113 -311 341v412h134v-371c0 -179 42 -260 177 -260s177 81 177 260v371h134v-412c0 -228 -124 -341 -311 -341z" />
    <glyph glyph-name="uhungarumlaut" unicode="&#x171;" horiz-adv-x="558" 
d="M105 608l110 138l90 -72l-115 -133zM297 608l109 138l91 -72l-115 -133zM278 -13c-126 0 -224 67 -224 215v273h126v-245c0 -79 26 -122 98 -122c73 0 99 43 99 122v245h126v-273c0 -148 -99 -215 -225 -215z" />
    <glyph glyph-name="Uogonek" unicode="&#x172;" horiz-adv-x="763" 
d="M559 740h134v-412c0 -180 -78 -289 -203 -326c-32 -25 -43 -52 -43 -80c0 -33 18 -47 48 -47c11 0 19 1 28 4v-82c-16 -6 -35 -9 -57 -9c-67 0 -116 36 -116 98c0 37 13 74 39 101h-7c-187 0 -311 113 -311 341v412h134v-371c0 -179 42 -260 177 -260s177 81 177 260v371
z" />
    <glyph glyph-name="uogonek" unicode="&#x173;" horiz-adv-x="558" 
d="M377 475h126v-273c0 -103 -48 -166 -119 -196c-41 -25 -53 -56 -53 -86c0 -33 18 -47 48 -47c11 0 19 1 28 4v-82c-16 -5 -34 -8 -56 -8c-67 0 -117 35 -117 98c0 37 14 75 42 102c-125 1 -222 68 -222 215v273h126v-245c0 -79 26 -122 98 -122c73 0 99 43 99 122v245z
" />
    <glyph glyph-name="Wcircumflex" unicode="&#x174;" horiz-adv-x="1030" 
d="M517 892l-131 -86l-59 89l168 115h43l168 -115l-59 -89zM878 740h144l-231 -740h-130l-146 510l-146 -510h-131l-230 740h144l151 -528l145 528h134l145 -527z" />
    <glyph glyph-name="wcircumflex" unicode="&#x175;" horiz-adv-x="818" 
d="M411 627l-131 -86l-59 89l169 115h42l168 -115l-58 -89zM674 475h137l-170 -475h-133l-98 312l-99 -312h-133l-169 475h136l101 -319l99 319h130l99 -320z" />
    <glyph glyph-name="Ycircumflex" unicode="&#x176;" horiz-adv-x="696" 
d="M340 892l-131 -86l-59 89l168 115h44l168 -115l-59 -89zM527 740h155l-267 -415v-325h-134v324l-267 416h155l179 -284z" />
    <glyph glyph-name="ycircumflex" unicode="&#x177;" horiz-adv-x="532" 
d="M267 627l-131 -86l-59 89l168 115h43l168 -115l-59 -89zM385 475h136l-290 -728h-126l97 244l-193 484h136l120 -322z" />
    <glyph glyph-name="Ydieresis" unicode="&#x178;" horiz-adv-x="696" 
d="M219 826c-48 0 -85 36 -85 84c0 47 37 84 85 84s85 -37 85 -84c0 -48 -37 -84 -85 -84zM461 826c-48 0 -85 36 -85 84c0 47 37 84 85 84s85 -37 85 -84c0 -48 -37 -84 -85 -84zM527 740h155l-267 -415v-325h-134v324l-267 416h155l179 -284z" />
    <glyph glyph-name="Zacute" unicode="&#x179;" horiz-adv-x="651" 
d="M477 903l-243 -97l-44 99l240 105zM202 128h418v-128h-594v127l418 485h-407v128h582v-127z" />
    <glyph glyph-name="zacute" unicode="&#x17a;" horiz-adv-x="447" 
d="M383 638l-243 -97l-44 99l240 105zM415 475v-114l-215 -242h215v-119h-383v117l216 239h-216v119h383z" />
    <glyph glyph-name="Zdotaccent" unicode="&#x17b;" horiz-adv-x="651" 
d="M334 822c-50 0 -88 38 -88 87c0 50 38 88 88 88s88 -38 88 -88c0 -49 -38 -87 -88 -87zM202 128h418v-128h-594v127l418 485h-407v128h582v-127z" />
    <glyph glyph-name="zdotaccent" unicode="&#x17c;" horiz-adv-x="447" 
d="M223 572c-45 0 -80 34 -80 80c0 44 35 78 80 78c44 0 79 -34 79 -78c0 -46 -35 -80 -79 -80zM415 475v-114l-215 -242h215v-119h-383v117l216 239h-216v119h383z" />
    <glyph glyph-name="Zcaron" unicode="&#x17d;" horiz-adv-x="651" 
d="M355 806h-42l-169 115l59 89l131 -86l131 86l59 -89zM202 128h418v-128h-594v127l418 485h-407v128h582v-127z" />
    <glyph glyph-name="zcaron" unicode="&#x17e;" horiz-adv-x="447" 
d="M245 541h-42l-169 115l59 89l131 -86l131 86l59 -89zM415 475v-114l-215 -242h215v-119h-383v117l216 239h-216v119h383z" />
    <glyph glyph-name="florin" unicode="&#x192;" horiz-adv-x="372" 
d="M283 632c-40 0 -53 -20 -53 -64v-93h94v-119h-94v-398c0 -104 -46 -166 -179 -166v118c41 0 53 20 53 64v382h-60v119h60v109c0 104 47 166 142 166c30 0 66 -4 89 -12v-111c-3 0 -32 5 -52 5z" />
    <glyph glyph-name="uni01EA" unicode="&#x1ea;" horiz-adv-x="849" 
d="M521 -1c-30 -24 -40 -50 -40 -77c0 -33 18 -47 48 -47c11 0 19 1 28 4v-82c-16 -6 -34 -9 -57 -9c-67 0 -116 36 -116 98c0 37 13 74 39 101c-214 1 -386 166 -386 382c0 211 166 384 387 384s387 -173 387 -384c0 -182 -124 -328 -290 -370zM171 368
c0 -144 112 -258 253 -258s252 114 252 258c0 142 -107 262 -252 262s-253 -120 -253 -262z" />
    <glyph glyph-name="uni01EB" unicode="&#x1eb;" horiz-adv-x="570" 
d="M386 7c-40 -25 -52 -55 -52 -85c0 -33 18 -47 49 -47c11 0 19 1 28 4v-82c-17 -5 -35 -8 -57 -8c-67 0 -116 35 -116 98c0 36 13 73 39 100c-138 4 -245 114 -245 249c0 138 111 248 252 248c143 0 254 -110 254 -248c0 -102 -62 -190 -152 -229zM160 236
c0 -70 53 -129 124 -129c72 0 126 59 126 129c0 69 -54 128 -126 128c-71 0 -124 -59 -124 -128z" />
    <glyph glyph-name="Aringacute" unicode="&#x1fa;" horiz-adv-x="736" 
d="M363 766c-75 0 -128 54 -128 122c0 67 53 122 128 122c72 0 124 -51 128 -114l98 46l38 -88l-203 -74c-18 -9 -38 -14 -61 -14zM363 935c-29 0 -48 -21 -48 -47s19 -47 48 -47c28 0 47 21 47 47s-19 47 -47 47zM587 0l-60 156h-318l-60 -156h-143l295 740h136l294 -740
h-144zM368 569l-111 -286h222z" />
    <glyph glyph-name="aringacute" unicode="&#x1fb;" horiz-adv-x="628" 
d="M282 501c-75 0 -128 54 -128 122c0 67 53 122 128 122c72 0 124 -51 128 -115l98 47l38 -88l-203 -74c-18 -9 -38 -14 -61 -14zM282 670c-29 0 -48 -21 -48 -47s19 -47 48 -47s48 21 48 47s-19 47 -48 47zM414 437v38h126v-475h-126v38c-37 -30 -84 -47 -137 -47
c-131 0 -245 108 -245 247s114 246 245 246c53 0 100 -17 137 -47zM286 109c72 0 128 59 128 129c0 69 -56 128 -128 128c-69 0 -126 -59 -126 -128c0 -70 57 -129 126 -129z" />
    <glyph glyph-name="AEacute" unicode="&#x1fc;" horiz-adv-x="1040" 
d="M818 903l-243 -97l-44 99l240 105zM999 612h-338v-162h266v-128h-266v-194h338v-128h-471v162h-290l-100 -162h-152l463 740h550v-128zM316 289h212v342z" />
    <glyph glyph-name="aeacute" unicode="&#x1fd;" horiz-adv-x="934" 
d="M613 638l-242 -97l-44 99l240 105zM663 484c143 0 243 -109 243 -248c0 -10 -1 -26 -2 -39h-359c14 -58 58 -98 128 -98c49 0 91 20 116 53l85 -68c-41 -55 -103 -97 -197 -97c-61 0 -111 16 -150 43v-30h-113v38c-37 -30 -84 -47 -137 -47c-131 0 -245 108 -245 247
s114 246 245 246c53 0 100 -17 137 -47v38h113v-33c37 26 84 42 136 42zM547 287h233c-12 52 -55 84 -115 84c-56 0 -101 -31 -118 -84zM286 109c72 0 128 59 128 129c0 69 -56 128 -128 128c-69 0 -126 -59 -126 -128c0 -70 57 -129 126 -129z" />
    <glyph glyph-name="Oslashacute" unicode="&#x1fe;" horiz-adv-x="871" 
d="M560 903l-243 -97l-43 99l240 105zM831 677l-77 -77c48 -65 76 -145 76 -231c0 -216 -174 -382 -388 -382c-85 0 -164 27 -229 72l-86 -86l-88 90l86 86c-44 61 -70 137 -70 220c0 211 166 384 387 384c83 0 159 -25 221 -66l80 80zM190 368c0 -45 11 -87 30 -124
l351 351c-38 22 -81 35 -129 35c-145 0 -252 -120 -252 -262zM695 368c0 50 -13 96 -36 137l-354 -354c39 -26 86 -41 137 -41c141 0 253 114 253 258z" />
    <glyph glyph-name="oslashacute" unicode="&#x1ff;" horiz-adv-x="606" 
d="M444 638l-243 -97l-44 99l240 105zM580 433l-66 -66c24 -38 38 -83 38 -131c0 -137 -112 -249 -254 -249c-47 0 -92 13 -129 35l-63 -63l-83 83l61 61c-25 38 -39 84 -39 133c0 138 112 248 253 248c49 0 94 -13 132 -35l67 67zM298 107c72 0 126 59 126 129
c0 69 -54 128 -126 128c-71 0 -125 -59 -125 -128c0 -70 54 -129 125 -129z" />
    <glyph glyph-name="uni0218" unicode="&#x218;" horiz-adv-x="573" 
d="M110 204c42 -47 92 -95 173 -95c83 0 115 50 115 96c0 143 -326 91 -326 334c0 135 101 214 241 214c66 0 137 -18 208 -70l-69 -104c-42 37 -99 52 -146 52c-64 0 -102 -29 -102 -78c0 -147 328 -81 328 -342c0 -132 -86 -224 -250 -224c-89 0 -178 26 -254 129z
M222 -247c49 24 67 56 67 77c-3 -1 -8 -2 -17 -2c-27 0 -54 24 -54 56c0 36 30 65 69 65c41 0 72 -31 72 -83c0 -62 -36 -110 -107 -151z" />
    <glyph glyph-name="uni0219" unicode="&#x219;" horiz-adv-x="435" 
d="M89 149c45 -38 97 -49 132 -49c43 0 57 17 57 34c0 70 -232 27 -232 198c0 88 63 152 171 152c77 0 144 -23 184 -59l-65 -90c-35 24 -73 36 -118 36c-38 0 -48 -13 -48 -29c0 -66 228 -34 228 -204c0 -87 -64 -151 -184 -151c-89 0 -146 34 -190 67zM165 -247
c49 24 68 56 68 77c-4 -1 -9 -2 -17 -2c-28 0 -55 24 -55 56c0 36 30 65 70 65s71 -31 71 -83c0 -62 -36 -110 -107 -151z" />
    <glyph glyph-name="uni021A" unicode="&#x21a;" horiz-adv-x="631" 
d="M249 0v612h-237v128h607v-128h-236v-612h-134zM265 -247c50 24 68 56 68 77c-4 -1 -9 -2 -17 -2c-28 0 -55 24 -55 56c0 36 30 65 70 65s71 -31 71 -83c0 -62 -36 -110 -107 -151z" />
    <glyph glyph-name="uni021B" unicode="&#x21b;" horiz-adv-x="367" 
d="M346 356h-125v-187c0 -34 10 -64 53 -64c31 0 59 5 60 5v-111c-1 0 -36 -12 -95 -12c-95 0 -144 61 -144 157v212h-74v119h74v156h126v-156h125v-119zM224 -51c40 0 71 -31 71 -83c0 -62 -36 -110 -107 -151l-30 38c49 24 67 56 67 77c-3 -1 -8 -2 -17 -2
c-27 0 -54 24 -54 56c0 36 30 65 70 65z" />
    <glyph glyph-name="uni0237" unicode="&#x237;" horiz-adv-x="252" 
d="M62 475h126v-728h-126v728z" />
    <glyph glyph-name="circumflex" unicode="&#x2c6;" horiz-adv-x="499" 
d="M439 630l-59 -89l-130 86l-131 -86l-59 89l168 115h43z" />
    <glyph glyph-name="caron" unicode="&#x2c7;" horiz-adv-x="499" 
d="M380 745l59 -89l-168 -115h-43l-168 115l59 89l131 -86z" />
    <glyph glyph-name="breve" unicode="&#x2d8;" horiz-adv-x="488" 
d="M244 541c-109 0 -184 82 -184 194h106c0 -52 25 -85 78 -85s78 33 78 85h106c0 -112 -76 -194 -184 -194z" />
    <glyph glyph-name="dotaccent" unicode="&#x2d9;" horiz-adv-x="289" 
d="M146 572c-46 0 -80 34 -80 80c0 44 34 78 80 78c44 0 78 -34 78 -78c0 -46 -34 -80 -78 -80z" />
    <glyph glyph-name="ring" unicode="&#x2da;" horiz-adv-x="376" 
d="M188 501c-75 0 -128 54 -128 122c0 67 53 122 128 122s128 -55 128 -122c0 -68 -53 -122 -128 -122zM188 576c29 0 48 21 48 47s-19 47 -48 47s-48 -21 -48 -47s19 -47 48 -47z" />
    <glyph glyph-name="ogonek" unicode="&#x2db;" horiz-adv-x="291" 
d="M231 -213c-16 -5 -34 -8 -57 -8c-67 0 -116 35 -116 98c0 48 23 97 69 123h84c-43 -26 -56 -57 -56 -88c0 -33 18 -47 48 -47c11 0 19 1 28 4v-82z" />
    <glyph glyph-name="tilde" unicode="&#x2dc;" horiz-adv-x="523" 
d="M60 566c0 92 42 150 123 150c69 0 117 -47 152 -47c22 0 34 11 34 47h94c0 -92 -44 -150 -120 -150c-73 0 -119 47 -152 47c-24 0 -37 -14 -37 -47h-94z" />
    <glyph glyph-name="hungarumlaut" unicode="&#x2dd;" horiz-adv-x="512" 
d="M60 608l110 138l90 -72l-115 -133zM252 608l109 138l91 -72l-115 -133z" />
    <glyph glyph-name="gravecomb" unicode="&#x300;" horiz-adv-x="0" 
d="M-347 638l47 107l240 -105l-44 -99z" />
    <glyph glyph-name="acutecomb" unicode="&#x301;" horiz-adv-x="0" 
d="M-347 640l240 105l47 -107l-243 -97z" />
    <glyph glyph-name="uni0302" unicode="&#x302;" horiz-adv-x="0" 
d="M-60 630l-59 -89l-130 86l-131 -86l-59 89l168 115h43z" />
    <glyph glyph-name="tildecomb" unicode="&#x303;" horiz-adv-x="0" 
d="M-463 566c0 92 42 150 123 150c69 0 117 -47 152 -47c22 0 34 11 34 47h94c0 -92 -44 -150 -120 -150c-73 0 -119 47 -152 47c-24 0 -37 -14 -37 -47h-94z" />
    <glyph glyph-name="uni0304" unicode="&#x304;" horiz-adv-x="0" 
d="M-399 701h339v-113h-339v113z" />
    <glyph glyph-name="uni0306" unicode="&#x306;" horiz-adv-x="0" 
d="M-244 541c-109 0 -184 82 -184 194h106c0 -52 25 -85 78 -85s78 33 78 85h106c0 -112 -76 -194 -184 -194z" />
    <glyph glyph-name="uni0307" unicode="&#x307;" horiz-adv-x="0" 
d="M-143 572c-46 0 -80 34 -80 80c0 44 34 78 80 78c44 0 78 -34 78 -78c0 -46 -34 -80 -78 -80z" />
    <glyph glyph-name="uni0308" unicode="&#x308;" horiz-adv-x="0" 
d="M-363 567c-45 0 -79 33 -79 79c0 45 34 78 79 78s80 -33 80 -78c0 -46 -35 -79 -80 -79zM-141 567c-45 0 -79 33 -79 79c0 45 34 78 79 78s80 -33 80 -78c0 -46 -35 -79 -80 -79z" />
    <glyph glyph-name="uni030A" unicode="&#x30a;" horiz-adv-x="0" 
d="M-188 501c-75 0 -128 54 -128 122c0 67 53 122 128 122s128 -55 128 -122c0 -68 -53 -122 -128 -122zM-188 576c29 0 48 21 48 47s-19 47 -48 47s-48 -21 -48 -47s19 -47 48 -47z" />
    <glyph glyph-name="uni030B" unicode="&#x30b;" horiz-adv-x="0" 
d="M-452 608l110 138l90 -72l-115 -133zM-260 608l109 138l91 -72l-115 -133z" />
    <glyph glyph-name="uni030C" unicode="&#x30c;" horiz-adv-x="0" 
d="M-119 745l59 -89l-168 -115h-43l-168 115l59 89l131 -86z" />
    <glyph glyph-name="uni0312" unicode="&#x312;" horiz-adv-x="0" 
d="M-77 742c-49 -24 -67 -56 -67 -77c3 1 8 2 17 2c27 0 54 -24 54 -56c0 -35 -29 -65 -69 -65s-72 32 -72 83c0 62 36 110 108 152z" />
    <glyph glyph-name="uni0326" unicode="&#x326;" horiz-adv-x="0" 
d="M-212 -247c49 24 67 56 67 77c-3 -1 -8 -2 -17 -2c-27 0 -54 24 -54 56c0 36 29 65 69 65s72 -31 72 -83c0 -62 -36 -110 -108 -151z" />
    <glyph glyph-name="uni0327" unicode="&#x327;" horiz-adv-x="0" 
d="M-189 -253c-45 0 -81 11 -114 41l52 62c12 -15 37 -26 58 -26c26 0 38 9 38 26c0 20 -13 31 -40 31h-79l46 131h80l-21 -59h10c56 0 99 -37 99 -99s-50 -107 -129 -107z" />
    <glyph glyph-name="uni0328" unicode="&#x328;" horiz-adv-x="0" 
d="M-60 -213c-16 -5 -34 -8 -57 -8c-67 0 -116 35 -116 98c0 48 23 97 69 123h84c-43 -26 -56 -57 -56 -88c0 -33 18 -47 48 -47c11 0 19 1 28 4v-82z" />
    <glyph glyph-name="uni0335" unicode="&#x335;" horiz-adv-x="0" 
d="M-439 315v113h379v-113h-379z" />
    <glyph glyph-name="uni0336" unicode="&#x336;" horiz-adv-x="0" 
d="M-827 537v113h767v-113h-767z" />
    <glyph glyph-name="uni0337" unicode="&#x337;" horiz-adv-x="0" 
d="M-390 378l309 83l27 -102l-309 -83z" />
    <glyph glyph-name="uni0338" unicode="&#x338;" horiz-adv-x="0" 
d="M-271 387l128 127l83 -83l-131 -131zM-617 40l122 122l79 -87l-118 -118z" />
    <glyph glyph-name="uni0374" unicode="&#x374;" horiz-adv-x="287" 
d="M125 740h144l-121 -296h-103z" />
    <glyph glyph-name="uni0375" unicode="&#x375;" horiz-adv-x="287" 
d="M162 -130h-144l121 296h103z" />
    <glyph glyph-name="uni037E" unicode="&#x37e;" horiz-adv-x="258" 
d="M129 309c-44 0 -79 33 -79 78s35 78 79 78s78 -33 78 -78s-34 -78 -78 -78zM127 149c55 0 84 -45 84 -108c0 -101 -74 -191 -153 -194v62c35 0 74 28 84 89c-6 -1 -12 -2 -20 -2c-42 0 -72 31 -72 75s32 78 77 78z" />
    <glyph glyph-name="tonos" unicode="&#x384;" horiz-adv-x="288" 
d="M60 580l49 226h119l-62 -248z" />
    <glyph glyph-name="dieresistonos" unicode="&#x385;" horiz-adv-x="618" 
d="M239 580l46 220h118l-59 -241zM141 567c-45 0 -79 33 -79 79c0 44 34 78 79 78s79 -34 79 -78c0 -46 -34 -79 -79 -79zM477 567c-45 0 -79 33 -79 79c0 44 34 78 79 78c44 0 79 -34 79 -78c0 -46 -35 -79 -79 -79z" />
    <glyph glyph-name="Alphatonos" unicode="&#x386;" horiz-adv-x="765" 
d="M206 741l-61 -254l-107 21l50 233h118zM616 0l-60 156h-319l-59 -156h-144l295 740h136l294 -740h-143zM396 569l-111 -286h222z" />
    <glyph glyph-name="anoteleia" unicode="&#x387;" horiz-adv-x="247" 
d="M124 176c-44 0 -79 34 -79 79c0 44 35 78 79 78s78 -34 78 -78c0 -45 -34 -79 -78 -79z" />
    <glyph glyph-name="Epsilontonos" unicode="&#x388;" horiz-adv-x="739" 
d="M0 508l49 233h119l-62 -254zM227 0v740h471v-128h-337v-162h266v-128h-266v-194h337v-128h-471z" />
    <glyph glyph-name="Etatonos" unicode="&#x389;" horiz-adv-x="928" 
d="M0 508l49 233h119l-62 -254zM713 740h133v-740h-133v325h-352v-325h-134v740h134v-286h352v286z" />
    <glyph glyph-name="Iotatonos" unicode="&#x38a;" horiz-adv-x="443" 
d="M0 508l49 233h119l-62 -254zM227 0v740h134v-740h-134z" />
    <glyph glyph-name="Omicrontonos" unicode="&#x38c;" horiz-adv-x="994" 
d="M569 -13c-213 0 -387 166 -387 382c0 211 166 384 387 384s388 -173 388 -384c0 -216 -174 -382 -388 -382zM14 508l50 233h118l-61 -254zM569 110c141 0 253 114 253 258c0 142 -108 262 -253 262s-252 -120 -252 -262c0 -144 111 -258 252 -258z" />
    <glyph glyph-name="Upsilontonos" unicode="&#x38e;" horiz-adv-x="906" 
d="M25 508l49 233h119l-62 -254zM737 740h156l-268 -415v-325h-134v324l-267 416h155l179 -284z" />
    <glyph glyph-name="Omegatonos" unicode="&#x38f;" horiz-adv-x="957" 
d="M911 390c0 -119 -51 -216 -130 -280h120v-110h-321v110c103 20 197 131 197 272c0 152 -102 248 -232 248c-129 0 -231 -96 -231 -248c0 -141 94 -252 197 -272v-110h-321v110h120c-79 64 -130 161 -130 280c0 210 160 363 365 363c206 0 366 -153 366 -363zM63 741h118
l-61 -254l-107 21z" />
    <glyph glyph-name="iotadieresistonos" unicode="&#x390;" horiz-adv-x="327" 
d="M67 580l46 220h117l-58 -241zM-31 567c-45 0 -79 33 -79 79c0 44 34 78 79 78c44 0 79 -34 79 -78c0 -46 -35 -79 -79 -79zM304 567c-44 0 -79 33 -79 79c0 44 35 78 79 78c45 0 79 -34 79 -78c0 -46 -34 -79 -79 -79zM206 -13c-92 0 -143 51 -143 141v347h126v-318
c0 -32 9 -52 52 -52c4 0 12 0 19 1v-111c-14 -4 -33 -8 -54 -8z" />
    <glyph glyph-name="Alpha" unicode="&#x391;" horiz-adv-x="736" 
d="M587 0l-60 156h-318l-60 -156h-143l295 740h136l294 -740h-144zM368 569l-111 -286h222z" />
    <glyph glyph-name="Beta" unicode="&#x392;" horiz-adv-x="616" 
d="M81 0v740h215c170 0 250 -70 250 -189c0 -84 -40 -136 -115 -163c101 -22 144 -94 144 -183c0 -141 -108 -205 -286 -205h-208zM215 449h112c53 0 87 27 87 81c0 56 -33 84 -91 84h-108v-165zM215 126h103c95 0 125 46 125 98s-29 100 -126 100h-102v-198z" />
    <glyph glyph-name="Gamma" unicode="&#x393;" horiz-adv-x="555" 
d="M81 740h462v-128h-328v-612h-134v740z" />
    <glyph glyph-name="uni0394" unicode="&#x394;" horiz-adv-x="702" 
d="M421 740l273 -740h-687l274 740h140zM196 125h309l-154 433z" />
    <glyph glyph-name="Epsilon" unicode="&#x395;" horiz-adv-x="593" 
d="M81 0v740h471v-128h-337v-162h266v-128h-266v-194h337v-128h-471z" />
    <glyph glyph-name="Zeta" unicode="&#x396;" horiz-adv-x="651" 
d="M202 128h418v-128h-594v127l418 485h-407v128h582v-127z" />
    <glyph glyph-name="Eta" unicode="&#x397;" horiz-adv-x="782" 
d="M567 740h134v-740h-134v325h-352v-325h-134v740h134v-286h352v286z" />
    <glyph glyph-name="Theta" unicode="&#x398;" horiz-adv-x="849" 
d="M424 -13c-214 0 -387 166 -387 382c0 211 166 384 387 384s387 -173 387 -384c0 -216 -174 -382 -387 -382zM424 110c141 0 252 114 252 258c0 142 -107 262 -252 262s-253 -120 -253 -262c0 -144 112 -258 253 -258zM261 425h326v-113h-326v113z" />
    <glyph glyph-name="Iota" unicode="&#x399;" horiz-adv-x="297" 
d="M81 0v740h134v-740h-134z" />
    <glyph glyph-name="Kappa" unicode="&#x39a;" horiz-adv-x="668" 
d="M336 365l349 -365h-176l-294 312v-312h-134v740h134v-325l276 325h168z" />
    <glyph glyph-name="Lambda" unicode="&#x39b;" horiz-adv-x="699" 
d="M693 0h-144l-199 558l-200 -558h-144l274 740h139z" />
    <glyph glyph-name="Mu" unicode="&#x39c;" horiz-adv-x="915" 
d="M660 740h173v-740h-133v557l-180 -283h-129l-176 279v-553h-134v740h173l202 -323z" />
    <glyph glyph-name="Nu" unicode="&#x39d;" horiz-adv-x="839" 
d="M625 740h133v-740h-140l-403 563v-563h-134v740h168l376 -525v525z" />
    <glyph glyph-name="Xi" unicode="&#x39e;" horiz-adv-x="577" 
d="M537 740v-128h-498v128h498zM477 440v-128h-378v128h378zM537 128v-128h-498v128h498z" />
    <glyph glyph-name="Omicron" unicode="&#x39f;" horiz-adv-x="849" 
d="M424 -13c-214 0 -387 166 -387 382c0 211 166 384 387 384s387 -173 387 -384c0 -216 -174 -382 -387 -382zM424 110c141 0 252 114 252 258c0 142 -107 262 -252 262s-253 -120 -253 -262c0 -144 112 -258 253 -258z" />
    <glyph glyph-name="Pi" unicode="&#x3a0;" horiz-adv-x="762" 
d="M681 740v-740h-134v612h-332v-612h-134v740h600z" />
    <glyph glyph-name="Rho" unicode="&#x3a1;" horiz-adv-x="622" 
d="M81 0v740h238c195 0 280 -112 280 -246c0 -135 -85 -248 -280 -248h-104v-246h-134zM215 373h103c106 0 149 54 149 120c0 65 -43 120 -149 120h-103v-240z" />
    <glyph glyph-name="Sigma" unicode="&#x3a3;" horiz-adv-x="541" 
d="M508 740v-128h-301l170 -239v-8l-171 -237h302v-128h-471v116l183 253l-183 255v116h471z" />
    <glyph glyph-name="Tau" unicode="&#x3a4;" horiz-adv-x="631" 
d="M249 0v612h-237v128h607v-128h-236v-612h-134z" />
    <glyph glyph-name="Upsilon" unicode="&#x3a5;" horiz-adv-x="696" 
d="M527 740h155l-267 -415v-325h-134v324l-267 416h155l179 -284z" />
    <glyph glyph-name="Phi" unicode="&#x3a6;" horiz-adv-x="837" 
d="M804 369c0 -166 -123 -305 -322 -330v-69h-134v70c-193 27 -314 165 -314 329c0 162 116 304 314 331v70h134v-69c203 -25 322 -168 322 -332zM482 161c122 23 187 108 187 207s-63 188 -187 210v-417zM167 368c0 -98 64 -182 181 -205v414c-119 -24 -181 -112 -181 -209
z" />
    <glyph glyph-name="Chi" unicode="&#x3a7;" horiz-adv-x="655" 
d="M659 740l-251 -375l243 -365h-158l-170 255l-169 -255h-158l249 373l-245 367h158l172 -258l170 258h159z" />
    <glyph glyph-name="Psi" unicode="&#x3a8;" horiz-adv-x="794" 
d="M628 740h134v-173c0 -195 -116 -307 -298 -328v-239h-133v239c-182 21 -298 133 -298 328v173h133v-132c0 -127 33 -222 165 -245v377h133v-377c132 23 164 118 164 245v132z" />
    <glyph glyph-name="uni03A9" unicode="&#x3a9;" horiz-adv-x="824" 
d="M777 390c0 -119 -51 -216 -130 -280h120v-110h-320v110c102 20 196 131 196 272c0 152 -101 248 -231 248s-231 -96 -231 -248c0 -141 94 -252 196 -272v-110h-320v110h120c-79 64 -130 161 -130 280c0 210 159 363 365 363s365 -153 365 -363z" />
    <glyph glyph-name="Iotadieresis" unicode="&#x3aa;" horiz-adv-x="304" 
d="M30 826c-47 0 -85 36 -85 84c0 47 38 84 85 84c48 0 86 -37 86 -84c0 -48 -38 -84 -86 -84zM272 826c-48 0 -85 36 -85 84c0 47 37 84 85 84s85 -37 85 -84c0 -48 -37 -84 -85 -84zM86 0v740h134v-740h-134z" />
    <glyph glyph-name="Upsilondieresis" unicode="&#x3ab;" horiz-adv-x="696" 
d="M219 826c-48 0 -85 36 -85 84c0 47 37 84 85 84s85 -37 85 -84c0 -48 -37 -84 -85 -84zM461 826c-48 0 -85 36 -85 84c0 47 37 84 85 84s85 -37 85 -84c0 -48 -37 -84 -85 -84zM527 740h155l-267 -415v-325h-134v324l-267 416h155l179 -284z" />
    <glyph glyph-name="alphatonos" unicode="&#x3ac;" horiz-adv-x="621" 
d="M412 806l-61 -248l-106 22l49 226h118zM580 104c4 0 12 1 19 2v-111c-15 -6 -32 -8 -57 -8c-52 0 -91 22 -112 65c-40 -38 -92 -61 -154 -61c-130 0 -244 108 -244 247s114 246 244 246c54 0 101 -18 138 -47v38h126v-320c0 -33 15 -51 40 -51zM286 109
c72 0 128 59 128 129c0 69 -56 128 -128 128c-69 0 -126 -59 -126 -128c0 -70 57 -129 126 -129z" />
    <glyph glyph-name="epsilontonos" unicode="&#x3ad;" horiz-adv-x="483" 
d="M349 806l-61 -248l-106 22l49 226h118zM370 151l103 -64c-36 -68 -109 -106 -224 -106c-122 0 -215 54 -215 155c0 53 29 96 79 114c-41 19 -66 62 -66 107c0 87 78 137 197 137c105 0 171 -37 205 -91l-102 -61c-19 29 -53 47 -94 47c-45 0 -78 -17 -78 -48
c0 -30 20 -48 73 -48h70v-101h-75c-61 0 -81 -19 -81 -52c0 -32 34 -53 88 -53c61 0 102 31 120 64z" />
    <glyph glyph-name="etatonos" unicode="&#x3ae;" horiz-adv-x="575" 
d="M390 806l-61 -248l-107 22l50 226h118zM333 484c97 0 185 -59 185 -216v-521h-126v508c0 67 -27 109 -90 109c-60 0 -95 -30 -95 -112v-252h-126v307c0 33 -15 51 -40 51c-4 0 -12 0 -19 -1v110c14 6 32 8 57 8c50 0 89 -21 110 -60c29 41 76 69 144 69z" />
    <glyph glyph-name="iotatonos" unicode="&#x3af;" horiz-adv-x="274" 
d="M73 580l49 226h118l-61 -248zM202 -13c-92 0 -143 51 -143 141v347h126v-318c0 -32 9 -52 52 -52c4 0 12 0 19 1v-111c-14 -4 -33 -8 -54 -8z" />
    <glyph glyph-name="upsilondieresistonos" unicode="&#x3b0;" horiz-adv-x="599" 
d="M225 580l47 220h117l-58 -241zM127 567c-44 0 -79 33 -79 79c0 44 35 78 79 78c45 0 79 -34 79 -78c0 -46 -34 -79 -79 -79zM463 567c-45 0 -79 33 -79 79c0 44 34 78 79 78s79 -34 79 -78c0 -46 -34 -79 -79 -79zM290 -13c-126 0 -224 67 -224 215v273h126v-245
c0 -79 25 -122 98 -122c72 0 98 43 98 122v245h126v-273c0 -148 -98 -215 -224 -215z" />
    <glyph glyph-name="alpha" unicode="&#x3b1;" horiz-adv-x="621" 
d="M580 104c4 0 12 1 19 2v-111c-15 -6 -32 -8 -57 -8c-52 0 -91 22 -112 65c-40 -38 -92 -61 -154 -61c-130 0 -244 108 -244 247s114 246 244 246c54 0 101 -18 138 -47v38h126v-320c0 -33 15 -51 40 -51zM286 109c72 0 128 59 128 129c0 69 -56 128 -128 128
c-69 0 -126 -59 -126 -128c0 -70 57 -129 126 -129z" />
    <glyph glyph-name="beta" unicode="&#x3b2;" horiz-adv-x="584" 
d="M417 402c89 -31 135 -101 135 -195c0 -144 -104 -216 -230 -216c-55 0 -100 16 -134 43v-287h-126v766c0 136 82 237 234 237c132 0 216 -77 216 -190c0 -82 -44 -134 -95 -158zM308 109c78 0 119 49 119 111c0 71 -54 119 -147 119h-28v114h28c70 0 107 40 107 93
c0 50 -36 86 -93 86c-63 0 -106 -46 -106 -120v-274c0 -81 44 -129 120 -129z" />
    <glyph glyph-name="gamma" unicode="&#x3b3;" horiz-adv-x="546" 
d="M401 475h137l-203 -505v-223h-126v223l-202 505h136l129 -351z" />
    <glyph glyph-name="delta" unicode="&#x3b4;" horiz-adv-x="570" 
d="M406 476c99 -91 132 -162 132 -240c0 -138 -112 -249 -254 -249c-140 0 -252 111 -252 249c0 119 88 225 201 239l-161 149v116h406v-116h-233zM284 107c72 0 126 58 126 132c0 73 -54 129 -126 129c-70 0 -124 -56 -124 -129c0 -74 54 -132 124 -132z" />
    <glyph glyph-name="epsilon" unicode="&#x3b5;" horiz-adv-x="483" 
d="M370 151l103 -64c-36 -68 -109 -106 -224 -106c-122 0 -215 54 -215 155c0 53 29 96 79 114c-41 19 -66 62 -66 107c0 87 78 137 197 137c105 0 171 -37 205 -91l-102 -61c-19 29 -53 47 -94 47c-45 0 -78 -17 -78 -48c0 -30 20 -48 73 -48h70v-101h-75
c-61 0 -81 -19 -81 -52c0 -32 34 -53 88 -53c61 0 102 31 120 64z" />
    <glyph glyph-name="zeta" unicode="&#x3b6;" horiz-adv-x="480" 
d="M319 118l141 -1v-305h-126v188h-6c-203 0 -292 103 -292 246s85 231 157 301l78 77h-237v116h407v-116l-160 -156c-47 -44 -116 -112 -116 -214c0 -86 50 -135 154 -136z" />
    <glyph glyph-name="eta" unicode="&#x3b7;" horiz-adv-x="575" 
d="M333 484c97 0 185 -59 185 -216v-521h-126v508c0 67 -27 109 -90 109c-60 0 -95 -30 -95 -112v-252h-126v307c0 33 -15 51 -40 51c-4 0 -12 0 -19 -1v110c14 6 32 8 57 8c50 0 89 -21 110 -60c29 41 76 69 144 69z" />
    <glyph glyph-name="theta" unicode="&#x3b8;" horiz-adv-x="605" 
d="M302 753c163 0 265 -134 265 -384c0 -254 -104 -382 -265 -382c-160 0 -264 127 -264 382c0 251 102 384 264 384zM302 633c-80 0 -126 -65 -135 -207h272c-9 142 -56 207 -137 207zM302 107c81 0 128 61 137 203h-272c9 -143 56 -203 135 -203z" />
    <glyph glyph-name="iota" unicode="&#x3b9;" horiz-adv-x="274" 
d="M202 -13c-92 0 -143 51 -143 141v347h126v-318c0 -32 9 -52 52 -52c4 0 12 0 19 1v-111c-14 -4 -33 -8 -54 -8z" />
    <glyph glyph-name="kappa" unicode="&#x3ba;" horiz-adv-x="520" 
d="M369 0l-123 187l-59 -55v-132h-125v475h125v-193l132 133c44 46 80 60 146 60h22v-111h-10c-32 0 -54 -9 -84 -37l-57 -54l180 -273h-147z" />
    <glyph glyph-name="lambda" unicode="&#x3bb;" horiz-adv-x="534" 
d="M522 0h-136l-120 322l-120 -322h-136l191 478l-46 120c-10 25 -26 37 -51 37c-9 0 -17 -1 -23 -3v110c12 4 32 8 56 8c58 0 97 -28 118 -79z" />
    <glyph glyph-name="uni03BC" unicode="&#x3bc;" horiz-adv-x="588" 
d="M547 104c4 0 12 1 19 2v-111c-15 -6 -32 -8 -57 -8c-49 0 -88 20 -109 59c-25 -35 -63 -59 -115 -59c-41 0 -73 15 -97 38v-194h-126v644h126v-252c0 -82 37 -118 97 -118s96 36 96 118v252h126v-320c0 -33 15 -51 40 -51z" />
    <glyph glyph-name="nu" unicode="&#x3bd;" horiz-adv-x="533" 
d="M386 475h136l-189 -475h-133l-190 475h137l118 -322z" />
    <glyph glyph-name="xi" unicode="&#x3be;" horiz-adv-x="478" 
d="M317 118l140 -1v-305h-126v188c-210 1 -298 92 -298 212c0 85 44 141 126 174c-59 28 -88 66 -88 125c0 47 22 85 57 113h-97v116h407v-116h-128c-77 0 -110 -40 -110 -91c0 -54 34 -89 108 -89h96v-120h-135c-71 0 -107 -46 -107 -98c0 -68 42 -107 155 -108z" />
    <glyph glyph-name="omicron" unicode="&#x3bf;" horiz-adv-x="570" 
d="M284 -13c-141 0 -252 112 -252 249c0 138 111 248 252 248c143 0 254 -110 254 -248c0 -137 -111 -249 -254 -249zM284 107c72 0 126 59 126 129c0 69 -54 128 -126 128c-71 0 -124 -59 -124 -128c0 -70 53 -129 124 -129z" />
    <glyph glyph-name="pi" unicode="&#x3c0;" horiz-adv-x="607" 
d="M575 359h-69v-203c0 -34 17 -52 43 -52c11 0 19 2 26 4v-113c-15 -5 -34 -8 -51 -8c-90 0 -144 51 -144 151v221h-157v-359h-126v359h-79v116h557v-116z" />
    <glyph glyph-name="rho" unicode="&#x3c1;" horiz-adv-x="589" 
d="M301 484c142 0 256 -110 256 -250c0 -139 -113 -247 -247 -247c-49 0 -96 15 -136 47v-287h-126v488c0 139 112 249 253 249zM301 105c72 0 128 59 128 131c0 71 -56 130 -128 130c-71 0 -127 -59 -127 -130c0 -72 56 -131 127 -131z" />
    <glyph glyph-name="uni03C2" unicode="&#x3c2;" horiz-adv-x="508" 
d="M160 250c0 -73 56 -131 199 -132l118 -1v-305h-126v188c-208 3 -319 111 -319 251c0 133 104 233 248 233c90 0 167 -45 212 -112l-105 -64c-24 34 -62 56 -107 56c-74 0 -120 -49 -120 -114z" />
    <glyph glyph-name="sigma" unicode="&#x3c3;" horiz-adv-x="597" 
d="M571 475v-119h-89c33 -38 46 -83 46 -126c0 -132 -112 -243 -249 -243c-136 0 -247 112 -247 244c0 134 111 244 247 244h292zM279 107c71 0 121 54 121 124s-50 124 -121 124c-70 0 -119 -54 -119 -124s49 -124 119 -124z" />
    <glyph glyph-name="tau" unicode="&#x3c4;" horiz-adv-x="520" 
d="M494 359h-200v-165c0 -63 33 -89 107 -89c33 0 59 3 77 5v-111c-25 -7 -59 -12 -94 -12c-127 0 -216 71 -216 186v186h-156v116h482v-116z" />
    <glyph glyph-name="upsilon" unicode="&#x3c5;" horiz-adv-x="558" 
d="M278 -13c-126 0 -224 67 -224 215v273h126v-245c0 -79 26 -122 98 -122c73 0 99 43 99 122v245h126v-273c0 -148 -99 -215 -225 -215z" />
    <glyph glyph-name="phi" unicode="&#x3c6;" horiz-adv-x="703" 
d="M671 226c0 -134 -107 -244 -254 -249v-230h-131v230c-147 5 -254 115 -254 249c0 135 107 243 254 248v176h131v-176c147 -5 254 -113 254 -248zM159 226c0 -67 51 -124 127 -129v257c-76 -5 -127 -61 -127 -128zM417 97c77 5 126 62 126 129s-49 123 -126 128v-257z" />
    <glyph glyph-name="chi" unicode="&#x3c7;" horiz-adv-x="553" 
d="M538 -253h-145l-115 235l-112 -235h-146l189 375l-103 211c-12 24 -30 39 -60 39c-11 0 -23 -2 -30 -5v110c14 4 38 8 57 8c71 0 116 -27 149 -94l61 -124l95 208h147l-175 -345z" />
    <glyph glyph-name="psi" unicode="&#x3c8;" horiz-adv-x="688" 
d="M513 475h126v-238c0 -131 -91 -224 -232 -245v-245h-126v245c-142 21 -233 114 -233 245v238h126v-210c0 -78 39 -130 107 -149v534h126v-534c67 19 106 71 106 149v210z" />
    <glyph glyph-name="omega" unicode="&#x3c9;" horiz-adv-x="750" 
d="M590 484c67 -34 126 -111 126 -245c0 -156 -80 -249 -193 -249c-85 0 -135 47 -148 102c-12 -57 -63 -102 -146 -102c-114 0 -193 93 -193 249c0 134 58 211 125 245l67 -103c-34 -18 -64 -63 -64 -153c0 -83 25 -118 73 -118c46 0 76 29 76 99v134h125v-134
c0 -70 30 -99 76 -99c48 0 74 35 74 118c0 90 -31 135 -65 153z" />
    <glyph glyph-name="iotadieresis" unicode="&#x3ca;" horiz-adv-x="285" 
d="M5 567c-45 0 -79 33 -79 79c0 45 34 78 79 78s80 -33 80 -78c0 -46 -35 -79 -80 -79zM227 567c-45 0 -79 33 -79 79c0 45 34 78 79 78s79 -33 79 -78c0 -46 -34 -79 -79 -79zM185 -13c-92 0 -143 51 -143 141v347h126v-318c0 -32 9 -52 52 -52c4 0 12 0 19 1v-111
c-14 -4 -33 -8 -54 -8z" />
    <glyph glyph-name="upsilondieresis" unicode="&#x3cb;" horiz-adv-x="558" 
d="M173 567c-45 0 -79 33 -79 79c0 45 34 78 79 78s80 -33 80 -78c0 -46 -35 -79 -80 -79zM395 567c-45 0 -79 33 -79 79c0 45 34 78 79 78s80 -33 80 -78c0 -46 -35 -79 -80 -79zM278 -13c-126 0 -224 67 -224 215v273h126v-245c0 -79 26 -122 98 -122c73 0 99 43 99 122
v245h126v-273c0 -148 -99 -215 -225 -215z" />
    <glyph glyph-name="omicrontonos" unicode="&#x3cc;" horiz-adv-x="570" 
d="M224 580l49 226h119l-62 -248zM284 -13c-141 0 -252 112 -252 249c0 138 111 248 252 248c143 0 254 -110 254 -248c0 -137 -111 -249 -254 -249zM284 107c72 0 126 59 126 129c0 69 -54 128 -126 128c-71 0 -124 -59 -124 -128c0 -70 53 -129 124 -129z" />
    <glyph glyph-name="upsilontonos" unicode="&#x3cd;" horiz-adv-x="558" 
d="M224 580l49 226h118l-61 -248zM278 -13c-126 0 -224 67 -224 215v273h126v-245c0 -79 26 -122 98 -122c73 0 99 43 99 122v245h126v-273c0 -148 -99 -215 -225 -215z" />
    <glyph glyph-name="omegatonos" unicode="&#x3ce;" horiz-adv-x="750" 
d="M491 806l-61 -248l-107 22l49 226h119zM590 484c67 -34 126 -111 126 -245c0 -156 -80 -249 -193 -249c-85 0 -135 47 -148 102c-12 -57 -63 -102 -146 -102c-114 0 -193 93 -193 249c0 134 58 211 125 245l67 -103c-34 -18 -64 -63 -64 -153c0 -83 25 -118 73 -118
c46 0 76 29 76 99v134h125v-134c0 -70 30 -99 76 -99c48 0 74 35 74 118c0 90 -31 135 -65 153z" />
    <glyph glyph-name="uni0401" unicode="&#x401;" horiz-adv-x="593" 
d="M201 826c-48 0 -85 36 -85 84c0 47 37 84 85 84s85 -37 85 -84c0 -48 -37 -84 -85 -84zM443 826c-48 0 -85 36 -85 84c0 47 37 84 85 84s85 -37 85 -84c0 -48 -37 -84 -85 -84zM81 0v740h471v-128h-337v-162h266v-128h-266v-194h337v-128h-471z" />
    <glyph glyph-name="uni0402" unicode="&#x402;" horiz-adv-x="741" 
d="M465 435c157 0 248 -83 248 -225s-98 -220 -218 -220c-35 0 -52 3 -73 10v131c20 -8 42 -11 72 -11c45 0 85 30 85 91s-47 96 -115 96h-140v-307h-134v612h-177v128h547v-128h-236v-177h141z" />
    <glyph glyph-name="uni0403" unicode="&#x403;" horiz-adv-x="555" 
d="M210 806l-44 99l240 105l47 -107zM81 740h462v-128h-328v-612h-134v740z" />
    <glyph glyph-name="uni0410" unicode="&#x410;" horiz-adv-x="736" 
d="M587 0l-60 156h-318l-60 -156h-143l295 740h136l294 -740h-144zM368 569l-111 -286h222z" />
    <glyph glyph-name="uni0411" unicode="&#x411;" horiz-adv-x="642" 
d="M359 434c175 0 257 -93 257 -218c0 -124 -82 -216 -257 -216h-278v740h471v-128h-337v-178h144zM369 127c75 0 114 35 114 91c0 55 -39 89 -114 89h-154v-180h154z" />
    <glyph glyph-name="uni0412" unicode="&#x412;" horiz-adv-x="616" 
d="M81 0v740h215c170 0 250 -70 250 -189c0 -84 -40 -136 -115 -163c101 -22 144 -94 144 -183c0 -141 -108 -205 -286 -205h-208zM215 449h112c53 0 87 27 87 81c0 56 -33 84 -91 84h-108v-165zM215 126h103c95 0 125 46 125 98s-29 100 -126 100h-102v-198z" />
    <glyph glyph-name="uni0413" unicode="&#x413;" horiz-adv-x="555" 
d="M81 740h462v-128h-328v-612h-134v740z" />
    <glyph glyph-name="uni0414" unicode="&#x414;" horiz-adv-x="811" 
d="M684 125h91v-310h-128v185h-506v-185h-129v310h109c35 183 55 399 55 615h508v-615zM255 125h296v487h-243c-6 -172 -25 -340 -53 -487z" />
    <glyph glyph-name="uni0415" unicode="&#x415;" horiz-adv-x="593" 
d="M81 0v740h471v-128h-337v-162h266v-128h-266v-194h337v-128h-471z" />
    <glyph glyph-name="uni0416" unicode="&#x416;" horiz-adv-x="914" 
d="M635 368l294 -368h-161l-246 313v-313h-129v313l-246 -313h-160l293 366l-267 374h152l228 -325v325h129v-325l228 325h152z" />
    <glyph glyph-name="uni0417" unicode="&#x417;" horiz-adv-x="554" 
d="M387 390c79 -36 122 -101 122 -189c0 -130 -100 -214 -236 -214c-149 0 -234 84 -244 227h128c9 -66 48 -104 112 -104c69 0 106 48 106 105c0 58 -42 113 -117 113h-35v121h33c67 0 101 45 101 94c0 44 -24 87 -88 87c-63 0 -90 -43 -93 -93h-128c4 113 78 216 223 216
c150 0 220 -92 220 -194c0 -66 -33 -134 -104 -169z" />
    <glyph glyph-name="uni0418" unicode="&#x418;" horiz-adv-x="801" 
d="M551 740h168v-740h-134v567l-364 -567h-140v740h133v-528z" />
    <glyph glyph-name="uni0419" unicode="&#x419;" horiz-adv-x="801" 
d="M398 806c-109 0 -184 82 -184 194h105c0 -52 26 -85 79 -85s78 33 78 85h106c0 -112 -76 -194 -184 -194zM551 740h168v-740h-134v567l-364 -567h-140v740h133v-528z" />
    <glyph glyph-name="uni041A" unicode="&#x41a;" horiz-adv-x="668" 
d="M336 365l349 -365h-176l-294 312v-312h-134v740h134v-325l276 325h168z" />
    <glyph glyph-name="uni041B" unicode="&#x41b;" horiz-adv-x="741" 
d="M660 740v-740h-134v612h-235c-27 -525 -102 -617 -269 -617v130c70 0 114 32 143 615h495z" />
    <glyph glyph-name="uni041C" unicode="&#x41c;" horiz-adv-x="915" 
d="M660 740h173v-740h-133v557l-180 -283h-129l-176 279v-553h-134v740h173l202 -323z" />
    <glyph glyph-name="uni041D" unicode="&#x41d;" horiz-adv-x="782" 
d="M567 740h134v-740h-134v325h-352v-325h-134v740h134v-286h352v286z" />
    <glyph glyph-name="uni041E" unicode="&#x41e;" horiz-adv-x="849" 
d="M424 -13c-214 0 -387 166 -387 382c0 211 166 384 387 384s387 -173 387 -384c0 -216 -174 -382 -387 -382zM424 110c141 0 252 114 252 258c0 142 -107 262 -252 262s-253 -120 -253 -262c0 -144 112 -258 253 -258z" />
    <glyph glyph-name="uni041F" unicode="&#x41f;" horiz-adv-x="769" 
d="M687 740v-740h-134v612h-338v-612h-134v740h606z" />
    <glyph glyph-name="uni0420" unicode="&#x420;" horiz-adv-x="622" 
d="M81 0v740h238c195 0 280 -112 280 -246c0 -135 -85 -248 -280 -248h-104v-246h-134zM215 373h103c106 0 149 54 149 120c0 65 -43 120 -149 120h-103v-240z" />
    <glyph glyph-name="uni0421" unicode="&#x421;" horiz-adv-x="710" 
d="M424 -13c-214 0 -387 166 -387 382c0 211 166 384 386 384c111 0 207 -45 277 -117l-83 -93c-49 56 -116 87 -194 87c-144 0 -252 -120 -252 -262c0 -144 112 -259 253 -259c71 0 141 35 187 81l78 -93c-69 -66 -160 -110 -265 -110z" />
    <glyph glyph-name="uni0422" unicode="&#x422;" horiz-adv-x="631" 
d="M249 0v612h-237v128h607v-128h-236v-612h-134z" />
    <glyph glyph-name="uni0423" unicode="&#x423;" horiz-adv-x="677" 
d="M519 740h156l-306 -555c-84 -152 -153 -200 -272 -200v122c57 0 100 19 140 89l35 63l-256 481h155l170 -341z" />
    <glyph glyph-name="uni0424" unicode="&#x424;" horiz-adv-x="871" 
d="M837 374c0 -155 -95 -276 -335 -286v-118h-133v118c-240 10 -335 131 -335 286s95 275 335 285v111h133v-111c240 -10 335 -130 335 -285zM166 373c0 -98 54 -155 203 -162v325c-149 -7 -203 -65 -203 -163zM502 211c149 7 203 64 203 162c0 97 -54 155 -203 163v-325z
" />
    <glyph glyph-name="uni0425" unicode="&#x425;" horiz-adv-x="655" 
d="M659 740l-251 -375l243 -365h-158l-170 255l-169 -255h-158l249 373l-245 367h158l172 -258l170 258h159z" />
    <glyph glyph-name="uni0426" unicode="&#x426;" horiz-adv-x="813" 
d="M687 125h90v-310h-128v185h-568v740h134v-615h338v615h134v-615z" />
    <glyph glyph-name="uni0427" unicode="&#x427;" horiz-adv-x="720" 
d="M512 740h126v-740h-134l3 302c-44 -44 -111 -76 -207 -76c-154 0 -255 88 -255 262v252h134v-250c0 -92 57 -141 152 -141c102 0 178 56 178 139v-1z" />
    <glyph glyph-name="uni0428" unicode="&#x428;" horiz-adv-x="1058" 
d="M843 740h134v-740h-896v740h134v-615h247v615h134v-615h247v615z" />
    <glyph glyph-name="uni0429" unicode="&#x429;" horiz-adv-x="1103" 
d="M977 125h91v-310h-129v185h-858v740h134v-615h247v615h134v-615h247v615h134v-615z" />
    <glyph glyph-name="uni042A" unicode="&#x42a;" horiz-adv-x="777" 
d="M499 435c175 0 257 -93 257 -218s-82 -217 -257 -217h-278v612h-209v128h343v-305h144zM509 127c75 0 114 35 114 91s-39 90 -114 90h-154v-181h154z" />
    <glyph glyph-name="uni042B" unicode="&#x42b;" horiz-adv-x="939" 
d="M215 740v-305h143c176 0 258 -93 258 -218s-82 -217 -258 -217h-277v740h134zM724 740h134v-740h-134v740zM215 127h154c74 0 114 35 114 91s-40 90 -114 90h-154v-181z" />
    <glyph glyph-name="uni042C" unicode="&#x42c;" horiz-adv-x="636" 
d="M215 740v-305h143c176 0 258 -93 258 -218s-82 -217 -258 -217h-277v740h134zM215 127h154c74 0 114 35 114 91s-40 90 -114 90h-154v-181z" />
    <glyph glyph-name="uni042D" unicode="&#x42d;" horiz-adv-x="713" 
d="M290 753c220 0 386 -173 386 -384c0 -216 -174 -382 -387 -382c-105 0 -197 44 -266 110l79 93c46 -46 116 -81 186 -81c125 0 226 89 248 208h-297v123h292c-29 108 -123 190 -242 190c-78 0 -144 -31 -193 -87l-83 93c70 72 166 117 277 117z" />
    <glyph glyph-name="uni042E" unicode="&#x42e;" horiz-adv-x="1084" 
d="M702 753c201 0 343 -159 343 -384c0 -230 -147 -382 -343 -382c-182 0 -323 133 -340 338h-147v-325h-134v740h134v-286h152c31 179 161 299 335 299zM702 110c123 0 209 94 209 258s-83 262 -209 262c-125 0 -208 -98 -208 -262s86 -258 208 -258z" />
    <glyph glyph-name="uni042F" unicode="&#x42f;" horiz-adv-x="658" 
d="M309 740h268v-740h-133v305h-88l-176 -305h-150l183 315c-111 27 -170 107 -170 208c0 125 80 217 266 217zM444 427v186h-154c-79 0 -115 -35 -115 -94c0 -58 36 -92 115 -92h154z" />
    <glyph glyph-name="uni0430" unicode="&#x430;" horiz-adv-x="602" 
d="M414 475h126v-475h-126v38c-37 -30 -84 -47 -137 -47c-131 0 -245 108 -245 247s114 246 245 246c53 0 100 -17 137 -47v38zM286 109c72 0 128 59 128 129c0 69 -56 128 -128 128c-69 0 -126 -59 -126 -128c0 -70 57 -129 126 -129z" />
    <glyph glyph-name="uni0431" unicode="&#x431;" horiz-adv-x="579" 
d="M320 474c135 0 227 -113 227 -238c0 -142 -114 -249 -253 -249c-144 0 -259 116 -259 292c0 142 58 263 203 346l198 115l59 -103l-201 -115c-47 -27 -79 -56 -101 -87c30 23 70 39 127 39zM295 107c76 0 124 59 124 124c0 66 -48 133 -124 133c-55 0 -102 -26 -142 -86
c1 -102 61 -171 142 -171z" />
    <glyph glyph-name="uni0432" unicode="&#x432;" horiz-adv-x="496" 
d="M62 475h195c123 0 183 -50 183 -119c0 -55 -27 -91 -71 -106c54 -12 92 -55 92 -116c0 -86 -73 -134 -196 -134h-203v475zM268 288c28 0 44 18 44 44s-17 42 -51 42h-76v-86h83zM263 101c47 0 71 13 71 48c0 30 -20 47 -65 47h-84v-95h78z" />
    <glyph glyph-name="uni0433" unicode="&#x433;" horiz-adv-x="418" 
d="M406 475v-118h-218v-357h-126v475h344z" />
    <glyph glyph-name="uni0434" unicode="&#x434;" horiz-adv-x="594" 
d="M494 108h67v-230h-123v122h-296v-122h-123v230h73c19 104 30 229 30 367h372v-367zM217 108h153v259h-125c-4 -95 -13 -183 -28 -259z" />
    <glyph glyph-name="uni0435" unicode="&#x435;" horiz-adv-x="546" 
d="M274 484c153 0 243 -109 243 -248c0 -10 -1 -26 -2 -39h-358c14 -58 58 -98 128 -98c49 0 91 20 116 53l85 -68c-41 -55 -103 -97 -198 -97c-168 0 -256 122 -256 251s99 246 242 246zM159 287h233c-10 52 -47 84 -115 84c-56 0 -101 -31 -118 -84z" />
    <glyph glyph-name="uni0436" unicode="&#x436;" horiz-adv-x="704" 
d="M707 0h-148l-146 200v-200h-122v200l-146 -200h-148l189 246l-177 229h143l139 -192v192h122v-192l139 192h143l-177 -229z" />
    <glyph glyph-name="uni0437" unicode="&#x437;" horiz-adv-x="443" 
d="M329 249c50 -17 78 -57 78 -114c0 -94 -84 -148 -194 -148c-116 0 -187 44 -195 157h111c6 -29 35 -46 80 -46c46 0 71 19 71 46c0 28 -20 47 -71 47h-42v101h37c43 0 63 14 63 42c0 26 -23 41 -58 41c-36 0 -58 -19 -61 -39h-112c6 87 77 148 185 148s173 -48 173 -131
c0 -42 -24 -85 -65 -104z" />
    <glyph glyph-name="uni0438" unicode="&#x438;" horiz-adv-x="569" 
d="M384 475h123v-475h-123v287l-199 -287h-123v475h123v-287z" />
    <glyph glyph-name="uni0439" unicode="&#x439;" horiz-adv-x="569" 
d="M296 541c-109 0 -184 82 -184 194h106c0 -52 25 -85 78 -85s79 33 79 85h105c0 -112 -76 -194 -184 -194zM384 475h123v-475h-123v287l-199 -287h-123v475h123v-287z" />
    <glyph glyph-name="uni043A" unicode="&#x43a;" horiz-adv-x="522" 
d="M533 0h-162l-183 200v-200h-126v475h126v-193l170 193h155l-206 -229z" />
    <glyph glyph-name="uni043B" unicode="&#x43b;" horiz-adv-x="570" 
d="M508 475v-475h-126v357h-139c-18 -311 -85 -362 -222 -362v118c54 0 89 26 100 362h387z" />
    <glyph glyph-name="uni043C" unicode="&#x43c;" horiz-adv-x="650" 
d="M436 475h150v-475h-122v316l-98 -162h-84l-97 161v-315h-123v475h151l112 -186z" />
    <glyph glyph-name="uni043D" unicode="&#x43d;" horiz-adv-x="569" 
d="M381 475h126v-475h-126v188h-193v-188h-126v475h126v-169h193v169z" />
    <glyph glyph-name="uni043E" unicode="&#x43e;" horiz-adv-x="570" 
d="M284 -13c-141 0 -252 112 -252 249c0 138 111 248 252 248c143 0 254 -110 254 -248c0 -137 -111 -249 -254 -249zM284 107c72 0 126 59 126 129c0 69 -54 128 -126 128c-71 0 -124 -59 -124 -128c0 -70 53 -129 124 -129z" />
    <glyph glyph-name="uni043F" unicode="&#x43f;" horiz-adv-x="560" 
d="M497 475v-475h-126v357h-183v-357h-126v475h435z" />
    <glyph glyph-name="uni0440" unicode="&#x440;" horiz-adv-x="603" 
d="M326 484c130 0 245 -107 245 -246s-115 -247 -245 -247c-54 0 -101 18 -138 47v-291h-126v728h126v-38c37 29 84 47 138 47zM316 109c69 0 127 59 127 129c0 69 -58 128 -127 128c-72 0 -128 -59 -128 -128c0 -70 56 -129 128 -129z" />
    <glyph glyph-name="uni0441" unicode="&#x441;" horiz-adv-x="516" 
d="M284 -13c-140 0 -252 112 -252 249c0 138 112 248 252 248c91 0 168 -45 213 -112l-105 -64c-24 34 -62 56 -107 56c-71 0 -125 -59 -125 -128c0 -70 54 -129 125 -129c47 0 87 24 110 61l104 -65c-44 -69 -124 -116 -215 -116z" />
    <glyph glyph-name="uni0442" unicode="&#x442;" horiz-adv-x="450" 
d="M438 475v-118h-150v-357h-126v357h-149v118h425z" />
    <glyph glyph-name="uni0443" unicode="&#x443;" horiz-adv-x="532" 
d="M385 475h136l-290 -728h-126l97 244l-193 484h136l120 -322z" />
    <glyph glyph-name="uni0444" unicode="&#x444;" horiz-adv-x="809" 
d="M567 484c123 0 209 -107 209 -246s-86 -247 -209 -247c-48 0 -76 10 -101 29v-273h-123v273c-25 -19 -53 -29 -101 -29c-122 0 -208 108 -208 247s86 246 208 246c48 0 76 -10 101 -29v285h123v-285c25 19 53 29 101 29zM259 109c48 0 67 17 84 38v181
c-17 21 -36 38 -84 38c-64 0 -100 -59 -100 -128c0 -70 36 -129 100 -129zM550 109c64 0 100 59 100 129c0 69 -36 128 -100 128c-47 0 -67 -17 -84 -38v-181c17 -21 37 -38 84 -38z" />
    <glyph glyph-name="uni0445" unicode="&#x445;" horiz-adv-x="479" 
d="M478 0h-146l-94 142l-94 -142h-145l166 252l-147 223h146l81 -123l82 123h146l-155 -233z" />
    <glyph glyph-name="uni0446" unicode="&#x446;" horiz-adv-x="604" 
d="M492 118h92v-276h-123v158h-399v475h126v-357h178v357h126v-357z" />
    <glyph glyph-name="uni0447" unicode="&#x447;" horiz-adv-x="540" 
d="M351 475h126v-475h-126v195c-30 -31 -73 -50 -135 -50c-105 0 -183 63 -183 182v148h126v-128c0 -60 32 -84 90 -84c64 0 102 38 102 95v117z" />
    <glyph glyph-name="uni0448" unicode="&#x448;" horiz-adv-x="769" 
d="M581 475h126v-475h-645v475h126v-357h134v357h126v-357h133v357z" />
    <glyph glyph-name="uni0449" unicode="&#x449;" horiz-adv-x="821" 
d="M707 118h91v-276h-122v158h-614v475h126v-357h134v357h126v-357h133v357h126v-357z" />
    <glyph glyph-name="uni044A" unicode="&#x44a;" horiz-adv-x="572" 
d="M366 306c126 0 187 -63 187 -154c0 -90 -62 -152 -187 -152h-226v366h-127v109h249v-169h104zM378 108c32 0 50 21 50 45s-18 45 -50 45h-116v-90h116z" />
    <glyph glyph-name="uni044B" unicode="&#x44b;" horiz-adv-x="772" 
d="M184 475v-169h104c126 0 187 -63 187 -154c0 -90 -62 -152 -187 -152h-226v475h122zM709 475v-475h-126v475h126zM184 108h116c32 0 50 21 50 45s-18 45 -50 45h-116v-90z" />
    <glyph glyph-name="uni044C" unicode="&#x44c;" horiz-adv-x="495" 
d="M184 475v-169h104c126 0 187 -63 187 -154c0 -90 -62 -152 -187 -152h-226v475h122zM184 108h116c32 0 50 21 50 45s-18 45 -50 45h-116v-90z" />
    <glyph glyph-name="uni044D" unicode="&#x44d;" horiz-adv-x="518" 
d="M234 484c141 0 253 -110 253 -248c0 -137 -112 -249 -253 -249c-91 0 -170 47 -214 116l103 64c23 -37 64 -61 111 -61c51 0 94 31 114 75h-127v112h126c-20 42 -63 72 -113 72c-45 0 -84 -22 -108 -56l-104 63c45 67 122 112 212 112z" />
    <glyph glyph-name="uni044E" unicode="&#x44e;" horiz-adv-x="764" 
d="M500 484c136 0 233 -101 233 -248c0 -146 -97 -249 -233 -249c-121 0 -209 81 -227 201h-85v-188h-126v475h126v-169h89c25 108 110 178 223 178zM500 107c64 0 105 51 105 129s-41 128 -105 128c-62 0 -103 -49 -103 -128s41 -129 103 -129z" />
    <glyph glyph-name="uni044F" unicode="&#x44f;" horiz-adv-x="513" 
d="M225 475h225v-475h-122v173h-55l-110 -173h-136l121 183c-75 20 -111 73 -111 142c0 88 62 150 188 150zM328 271v105h-98c-46 0 -68 -22 -68 -53c0 -32 22 -52 68 -52h98z" />
    <glyph glyph-name="uni0451" unicode="&#x451;" horiz-adv-x="546" 
d="M170 567c-45 0 -80 33 -80 79c0 45 35 78 80 78s79 -33 79 -78c0 -46 -34 -79 -79 -79zM392 567c-45 0 -80 33 -80 79c0 45 35 78 80 78s79 -33 79 -78c0 -46 -34 -79 -79 -79zM274 484c153 0 243 -109 243 -248c0 -10 -1 -26 -2 -39h-358c14 -58 58 -98 128 -98
c49 0 91 20 116 53l85 -68c-41 -55 -103 -97 -198 -97c-168 0 -256 122 -256 251s99 246 242 246zM159 287h233c-10 52 -47 84 -115 84c-56 0 -101 -31 -118 -84z" />
    <glyph glyph-name="uni0452" unicode="&#x452;" horiz-adv-x="578" 
d="M331 484c100 0 190 -59 190 -216v-341c0 -90 -50 -151 -142 -151c-21 0 -40 4 -55 8v110c7 -1 15 -1 19 -1c43 0 52 20 52 52v310c0 68 -28 109 -94 109c-62 0 -98 -30 -98 -112v-252h-126v549h-94v113h94v78h126v-78h159v-113h-159v-111c30 28 72 46 128 46z" />
    <glyph glyph-name="uni0453" unicode="&#x453;" horiz-adv-x="418" 
d="M385 638l-243 -97l-43 99l240 105zM406 475v-118h-218v-357h-126v475h344z" />
    <glyph glyph-name="uni04EE" unicode="&#x4ee;" horiz-adv-x="677" 
d="M557 966v-113h-339v113h339zM519 740h156l-306 -555c-84 -152 -153 -200 -272 -200v122c57 0 100 19 140 89l35 63l-256 481h155l170 -341z" />
    <glyph glyph-name="uni04EF" unicode="&#x4ef;" horiz-adv-x="532" 
d="M437 701v-113h-339v113h339zM385 475h136l-290 -728h-126l97 244l-193 484h136l120 -322z" />
    <glyph glyph-name="Wgrave" unicode="&#x1e80;" horiz-adv-x="1030" 
d="M660 905l-44 -99l-243 97l47 107zM878 740h144l-231 -740h-130l-146 510l-146 -510h-131l-230 740h144l151 -528l145 528h134l145 -527z" />
    <glyph glyph-name="wgrave" unicode="&#x1e81;" horiz-adv-x="818" 
d="M554 640l-44 -99l-243 97l47 107zM674 475h137l-170 -475h-133l-98 312l-99 -312h-133l-169 475h136l101 -319l99 319h130l99 -320z" />
    <glyph glyph-name="Wacute" unicode="&#x1e82;" horiz-adv-x="1030" 
d="M660 903l-243 -97l-44 99l240 105zM878 740h144l-231 -740h-130l-146 510l-146 -510h-131l-230 740h144l151 -528l145 528h134l145 -527z" />
    <glyph glyph-name="wacute" unicode="&#x1e83;" horiz-adv-x="818" 
d="M553 638l-243 -97l-44 99l240 105zM674 475h137l-170 -475h-133l-98 312l-99 -312h-133l-169 475h136l101 -319l99 319h130l99 -320z" />
    <glyph glyph-name="Wdieresis" unicode="&#x1e84;" horiz-adv-x="1030" 
d="M396 826c-48 0 -85 36 -85 84c0 47 37 84 85 84s85 -37 85 -84c0 -48 -37 -84 -85 -84zM638 826c-48 0 -86 36 -86 84c0 47 38 84 86 84c47 0 85 -37 85 -84c0 -48 -38 -84 -85 -84zM878 740h144l-231 -740h-130l-146 510l-146 -510h-131l-230 740h144l151 -528l145 528
h134l145 -527z" />
    <glyph glyph-name="wdieresis" unicode="&#x1e85;" horiz-adv-x="818" 
d="M296 567c-45 0 -79 33 -79 79c0 45 34 78 79 78s80 -33 80 -78c0 -46 -35 -79 -80 -79zM518 567c-45 0 -80 33 -80 79c0 45 35 78 80 78s79 -33 79 -78c0 -46 -34 -79 -79 -79zM674 475h137l-170 -475h-133l-98 312l-99 -312h-133l-169 475h136l101 -319l99 319h130
l99 -320z" />
    <glyph glyph-name="uni1E9E" unicode="&#x1e9e;" horiz-adv-x="729" 
d="M523 438c123 -58 172 -127 172 -227c0 -139 -90 -224 -242 -224c-78 0 -136 18 -187 56l64 103c41 -26 80 -37 125 -37c65 0 106 40 106 89c0 86 -71 114 -225 170v13l142 231h-263v-612h-134v740h568v-100z" />
    <glyph glyph-name="Ygrave" unicode="&#x1ef2;" horiz-adv-x="696" 
d="M483 905l-44 -99l-243 97l47 107zM527 740h155l-267 -415v-325h-134v324l-267 416h155l179 -284z" />
    <glyph glyph-name="ygrave" unicode="&#x1ef3;" horiz-adv-x="532" 
d="M409 640l-43 -99l-243 97l46 107zM385 475h136l-290 -728h-126l97 244l-193 484h136l120 -322z" />
    <glyph glyph-name="uni1EF8" unicode="&#x1ef8;" horiz-adv-x="696" 
d="M270 885c-24 0 -37 -14 -37 -47h-94c0 92 41 150 123 150c69 0 116 -47 151 -47c22 0 34 11 34 47h94c0 -92 -43 -150 -119 -150c-73 0 -119 47 -152 47zM527 740h155l-267 -415v-325h-134v324l-267 416h155l179 -284z" />
    <glyph glyph-name="uni1EF9" unicode="&#x1ef9;" horiz-adv-x="532" 
d="M196 613c-24 0 -37 -14 -37 -47h-94c0 92 42 150 124 150c69 0 116 -47 151 -47c22 0 34 11 34 47h94c0 -92 -44 -150 -120 -150c-72 0 -119 47 -152 47zM385 475h136l-290 -728h-126l97 244l-193 484h136l120 -322z" />
    <glyph glyph-name="endash" unicode="&#x2013;" horiz-adv-x="670" 
d="M56 341h559v-116h-559v116z" />
    <glyph glyph-name="emdash" unicode="&#x2014;" horiz-adv-x="1115" 
d="M56 341h1004v-116h-1004v116z" />
    <glyph glyph-name="quoteleft" unicode="&#x2018;" horiz-adv-x="229" 
d="M120 600c41 0 69 -29 69 -71s-30 -75 -73 -75c-52 0 -80 43 -80 103c0 96 70 182 138 185v-59c-28 0 -64 -27 -74 -86c6 2 13 3 20 3z" />
    <glyph glyph-name="quoteright" unicode="&#x2019;" horiz-adv-x="230" 
d="M118 752c53 0 80 -43 80 -103c0 -97 -70 -182 -138 -185v58c28 0 64 28 74 87c-6 -2 -13 -3 -20 -3c-40 0 -69 29 -69 70c0 43 31 76 73 76z" />
    <glyph glyph-name="quotesinglbase" unicode="&#x201a;" horiz-adv-x="236" 
d="M115 135c53 0 80 -43 80 -103c0 -96 -70 -182 -138 -185v58c28 0 64 28 74 87c-6 -2 -13 -3 -20 -3c-40 0 -69 29 -69 70c0 43 31 76 73 76z" />
    <glyph glyph-name="quotedblleft" unicode="&#x201c;" horiz-adv-x="438" 
d="M120 600c41 0 69 -29 69 -71s-30 -75 -73 -75c-52 0 -80 43 -80 103c0 96 70 182 138 185v-59c-28 0 -64 -27 -74 -86c6 2 13 3 20 3zM329 600c41 0 69 -29 69 -71s-30 -75 -73 -75c-52 0 -80 43 -80 103c0 96 70 182 138 185v-59c-28 0 -64 -27 -74 -86c6 2 13 3 20 3z
" />
    <glyph glyph-name="quotedblright" unicode="&#x201d;" horiz-adv-x="439" 
d="M118 752c53 0 80 -43 80 -103c0 -97 -70 -182 -138 -185v58c28 0 64 28 74 87c-6 -2 -13 -3 -20 -3c-40 0 -69 29 -69 70c0 43 31 76 73 76zM327 752c53 0 80 -43 80 -103c0 -97 -70 -182 -138 -185v58c28 0 64 28 74 87c-6 -2 -13 -3 -20 -3c-40 0 -69 29 -69 70
c0 43 31 76 73 76z" />
    <glyph glyph-name="quotedblbase" unicode="&#x201e;" horiz-adv-x="446" 
d="M115 135c53 0 80 -43 80 -103c0 -96 -70 -182 -138 -185v58c28 0 64 28 74 87c-6 -2 -13 -3 -20 -3c-40 0 -69 29 -69 70c0 43 31 76 73 76zM324 135c53 0 80 -43 80 -103c0 -96 -70 -182 -138 -185v58c28 0 64 28 74 87c-6 -2 -13 -3 -20 -3c-40 0 -69 29 -69 70
c0 43 31 76 73 76z" />
    <glyph glyph-name="dagger" unicode="&#x2020;" horiz-adv-x="527" 
d="M200 410h-175v113h175v217h128v-217h174v-113h-174v-663h-128v663z" />
    <glyph glyph-name="daggerdbl" unicode="&#x2021;" horiz-adv-x="562" 
d="M217 11h-174v112h174v315h-174v112h174v190h128v-190h174v-112h-174v-315h174v-112h-174v-264h-128v264z" />
    <glyph glyph-name="bullet" unicode="&#x2022;" horiz-adv-x="404" 
d="M202 241c-75 0 -135 61 -135 136s60 136 136 136c75 0 134 -63 134 -136c0 -75 -60 -136 -135 -136z" />
    <glyph glyph-name="ellipsis" unicode="&#x2026;" horiz-adv-x="766" 
d="M123 -7c-45 0 -79 33 -79 79c0 44 34 77 79 77c44 0 78 -33 78 -77c0 -46 -34 -79 -78 -79zM384 -7c-45 0 -79 33 -79 79c0 44 34 77 79 77c44 0 78 -33 78 -77c0 -46 -34 -79 -78 -79zM645 -7c-45 0 -79 33 -79 79c0 44 34 77 79 77c44 0 78 -33 78 -77
c0 -46 -34 -79 -78 -79z" />
    <glyph glyph-name="perthousand" unicode="&#x2030;" horiz-adv-x="1287" 
d="M405 573c0 -103 -86 -187 -189 -187s-189 84 -189 187s86 187 189 187s189 -84 189 -187zM590 740h110l-406 -740h-110zM216 496c42 0 75 35 75 77c0 43 -33 76 -75 76c-43 0 -75 -33 -75 -76c0 -42 32 -77 75 -77zM851 173c0 -103 -86 -187 -189 -187s-189 84 -189 187
s86 187 189 187s189 -84 189 -187zM1260 173c0 -103 -86 -187 -189 -187s-189 84 -189 187s86 187 189 187s189 -84 189 -187zM662 96c42 0 75 35 75 77s-33 76 -75 76c-43 0 -75 -34 -75 -76s32 -77 75 -77zM1071 96c43 0 75 35 75 77s-32 76 -75 76c-42 0 -75 -34 -75 -76
s33 -77 75 -77z" />
    <glyph glyph-name="guilsinglleft" unicode="&#x2039;" horiz-adv-x="332" 
d="M32 241l127 189h134l-124 -189l126 -191h-136z" />
    <glyph glyph-name="guilsinglright" unicode="&#x203a;" horiz-adv-x="332" 
d="M163 241l-124 189h134l127 -189l-127 -191h-136z" />
    <glyph glyph-name="fraction" unicode="&#x2044;" horiz-adv-x="460" 
d="M384 740h100l-405 -740h-99z" />
    <glyph glyph-name="Euro" unicode="&#x20ac;" horiz-adv-x="632" 
d="M360 110c57 0 87 30 101 78h132c-18 -120 -100 -201 -233 -201c-158 0 -237 113 -239 251h-91l30 94h61v68h-71l30 93h41v4c0 140 79 256 239 256c133 0 215 -81 233 -200h-132c-14 47 -44 77 -101 77c-74 0 -107 -51 -109 -137h261l-31 -93h-230v-68h216l-30 -94h-186
c4 -80 38 -128 109 -128z" />
    <glyph glyph-name="uni20B4" unicode="&#x20b4;" horiz-adv-x="660" 
d="M628 499l-30 -93h-567l31 93h310c31 18 51 43 51 71c0 50 -38 68 -102 68c-46 0 -103 -15 -145 -47l-69 101c87 51 163 63 218 63c139 0 231 -63 231 -166c0 -34 -9 -64 -27 -90h99zM31 244l31 93h566l-30 -93h-311c-30 -18 -50 -43 -50 -71c0 -50 37 -68 101 -68
c47 0 104 15 146 47l69 -101c-88 -52 -163 -63 -218 -63c-139 0 -231 63 -231 166c0 34 9 64 26 90h-99z" />
    <glyph glyph-name="uni20B9" unicode="&#x20b9;" horiz-adv-x="725" 
d="M475 647c21 -21 34 -47 40 -77h149l-30 -93h-119c-16 -101 -90 -171 -250 -172l306 -305h-186l-304 305v116h190c59 0 94 19 109 56h-299v93h297c-14 35 -49 54 -107 54h-190v116h583l-30 -93h-159z" />
    <glyph glyph-name="uni20BA" unicode="&#x20ba;" horiz-adv-x="630" 
d="M437 370h130v-114c0 -149 -86 -256 -239 -256h-238v255l-81 -47v109l81 47v41l-81 -47v109l81 47v226h130v-151l159 92v-108l-159 -92v-41l159 92v-109l-159 -92v-208h108c80 0 109 60 109 144v103z" />
    <glyph glyph-name="uni20BD" unicode="&#x20bd;" horiz-adv-x="668" 
d="M358 266h-104v-79h181v-94h-181v-93h-134v93h-77v94h77v79h-77v94h77v380h238c196 0 281 -112 281 -237s-85 -237 -281 -237zM254 613v-230h104c106 0 148 54 148 114c0 61 -42 116 -148 116h-104z" />
    <glyph glyph-name="trademark" unicode="&#x2122;" horiz-adv-x="806" 
d="M128 655h-98v85h291v-85h-97v-278h-96v278zM370 740h98l84 -125l85 125h99v-363h-97v225l-69 -103h-35l-70 103v-225h-96z" />
    <glyph glyph-name="oneeighth" unicode="&#x215b;" horiz-adv-x="830" 
d="M209 296h-97v356h-85v88h182v-444zM528 740h99l-404 -740h-100zM747 258c34 -29 51 -72 51 -113c0 -78 -57 -153 -162 -153c-102 0 -162 75 -162 153c0 42 19 86 55 115c-8 18 -16 42 -16 67c0 68 51 125 122 125c72 0 125 -56 125 -125c0 -23 -6 -49 -13 -69zM635 366
c-30 0 -51 -25 -51 -53c0 -10 1 -17 4 -25c16 7 32 9 47 9c19 0 35 -3 48 -9c4 9 4 18 4 25c0 29 -22 53 -52 53zM636 67c44 0 72 36 72 78c0 44 -30 77 -72 77s-73 -35 -73 -77c0 -43 32 -78 73 -78z" />
    <glyph glyph-name="threeeighths" unicode="&#x215c;" horiz-adv-x="926" 
d="M364 419c0 -80 -72 -140 -168 -140c-101 0 -167 65 -167 160h93c0 -41 30 -69 70 -69c45 0 70 25 70 62c0 36 -26 61 -67 61h-21v81h20c35 0 59 20 59 46s-19 45 -49 45s-50 -22 -50 -53h-95c0 80 61 135 149 135c86 0 145 -47 145 -115c0 -46 -26 -83 -73 -100
c54 -18 84 -59 84 -113zM633 740h100l-404 -740h-100zM853 258c34 -29 51 -72 51 -113c0 -78 -57 -153 -162 -153c-102 0 -163 75 -163 153c0 42 20 86 56 115c-8 19 -16 42 -16 67c0 68 51 125 122 125c72 0 125 -56 125 -125c0 -23 -6 -49 -13 -69zM741 366
c-30 0 -51 -25 -51 -53c0 -10 1 -17 4 -25c16 7 32 9 47 9c19 0 35 -3 48 -9c4 9 4 18 4 25c0 29 -22 53 -52 53zM742 67c44 0 72 36 72 78c0 44 -30 77 -72 77s-73 -35 -73 -77c0 -43 32 -78 73 -78z" />
    <glyph glyph-name="fiveeighths" unicode="&#x215d;" horiz-adv-x="926" 
d="M350 437c0 -96 -62 -149 -156 -149c-86 0 -141 45 -152 142h86c7 -47 37 -61 68 -61c35 0 68 29 68 67c0 34 -25 67 -63 67c-34 0 -55 -8 -79 -23l-60 32l38 228h214l4 -74h-145l-15 -90c17 5 35 8 53 8c81 0 139 -63 139 -147zM633 740h100l-404 -740h-100zM853 258
c34 -29 51 -72 51 -113c0 -78 -57 -153 -162 -153c-102 0 -163 75 -163 153c0 42 20 86 56 115c-8 19 -16 42 -16 67c0 68 51 125 122 125c72 0 125 -56 125 -125c0 -23 -6 -49 -13 -69zM741 366c-30 0 -51 -25 -51 -53c0 -10 1 -17 4 -25c16 7 32 9 47 9c19 0 35 -3 48 -9
c4 9 4 18 4 25c0 29 -22 53 -52 53zM742 67c44 0 72 36 72 78c0 44 -30 77 -72 77s-73 -35 -73 -77c0 -43 32 -78 73 -78z" />
    <glyph glyph-name="seveneighths" unicode="&#x215e;" horiz-adv-x="847" 
d="M292 740v-66l-154 -378h-92l150 372h-184v72h280zM554 740h100l-405 -740h-99zM775 258c33 -30 51 -72 51 -113c0 -78 -58 -153 -162 -153c-103 0 -163 75 -163 153c0 42 19 86 55 116c-8 18 -16 41 -16 66c0 68 51 125 123 125s124 -56 124 -125c0 -23 -5 -50 -12 -69z
M663 366c-31 0 -51 -25 -51 -53c0 -10 1 -17 3 -25c16 7 32 9 48 9c18 0 34 -3 47 -9c4 9 4 18 4 25c0 29 -21 53 -51 53zM664 67c44 0 71 36 71 78c0 44 -29 77 -71 77s-74 -35 -74 -77c0 -43 33 -78 74 -78z" />
    <glyph glyph-name="arrowleft" unicode="&#x2190;" horiz-adv-x="837" 
d="M788 429v-118h-515l181 -181h-164l-240 240l240 240h165l-182 -181h515z" />
    <glyph glyph-name="arrowup" unicode="&#x2191;" horiz-adv-x="579" 
d="M530 498v-164l-181 181v-515h-119v514l-180 -181v165l240 240z" />
    <glyph glyph-name="arrowright" unicode="&#x2192;" horiz-adv-x="837" 
d="M548 610l240 -240l-240 -240h-165l181 181h-514v118h514l-182 181h166z" />
    <glyph glyph-name="arrowdown" unicode="&#x2193;" horiz-adv-x="579" 
d="M349 223l181 181v-164l-240 -240l-240 240v165l180 -181v514h119v-515z" />
    <glyph glyph-name="uni2196" unicode="&#x2196;" horiz-adv-x="663" 
d="M614 171l-85 -83l-363 364v-257l-116 117v340h340l115 -117h-255z" />
    <glyph glyph-name="uni2197" unicode="&#x2197;" horiz-adv-x="663" 
d="M274 652h340v-340l-117 -116v256l-364 -364l-83 84l364 364l-257 -1z" />
    <glyph glyph-name="uni2198" unicode="&#x2198;" horiz-adv-x="663" 
d="M497 544l117 -116v-340h-340l-117 117l257 -1l-364 364l83 84l364 -364v256z" />
    <glyph glyph-name="uni2199" unicode="&#x2199;" horiz-adv-x="663" 
d="M614 568l-364 -364l256 1l-116 -117h-340v340l116 116v-256l364 364z" />
    <glyph glyph-name="minus" unicode="&#x2212;" horiz-adv-x="677" 
d="M61 406h556v-120h-556v120z" />
    <glyph glyph-name="approxequal" unicode="&#x2248;" horiz-adv-x="660" 
d="M67 381c0 107 55 175 157 175c94 0 146 -45 204 -45c40 0 61 21 61 65h104c0 -107 -56 -175 -155 -175c-96 0 -148 45 -204 45c-41 0 -62 -23 -62 -65h-105zM67 116c0 107 55 175 157 175c94 0 146 -45 204 -45c40 0 61 21 61 65h104c0 -107 -56 -175 -155 -175
c-96 0 -148 45 -204 45c-41 0 -62 -23 -62 -65h-105z" />
    <glyph glyph-name="notequal" unicode="&#x2260;" horiz-adv-x="656" 
d="M595 415h-180l-55 -138h235v-120h-283l-45 -113h-123l45 113h-128v120h176l55 138h-231v120h279l45 113h123l-45 -113h132v-120z" />
    <glyph glyph-name="uniF8FF" unicode="&#xf8ff;" horiz-adv-x="894" 
d="M611 717v-120h-246v-189c130 -46 253 -159 392 -159c26 0 47 4 47 4s-21 -32 -97 -32c-112 0 -242 61 -342 113v-334h-126v386s-24 10 -52 10c-42 0 -78 -18 -78 -57c0 -26 15 -49 37 -57c-35 2 -56 26 -56 63c0 52 45 90 126 90c6 0 14 0 23 -2v284h372z" />
    <glyph glyph-name="uni00A40301" horiz-adv-x="298" 
d="M41 806l-43 99l240 105l46 -107zM-39 -224v122c79 10 116 49 116 194v648h134v-647c0 -209 -66 -302 -250 -317z" />
    <glyph glyph-name="W.ss01" horiz-adv-x="1024" 
d="M874 740h144l-288 -740h-130l-89 225l-88 -225h-130l-291 740h144l216 -568l75 196l-147 372h143l79 -207l78 207h142l-146 -377l73 -192z" />
    <glyph glyph-name="Wacute.ss01" horiz-adv-x="1024" 
d="M660 903l-242 -97l-44 99l240 105zM874 740h144l-288 -740h-130l-89 225l-88 -225h-130l-291 740h144l216 -568l75 196l-147 372h143l79 -207l78 207h142l-146 -377l73 -192z" />
    <glyph glyph-name="Wcircumflex.ss01" horiz-adv-x="1024" 
d="M518 892l-131 -86l-59 89l168 115h43l168 -115l-59 -89zM874 740h144l-288 -740h-130l-89 225l-88 -225h-130l-291 740h144l216 -568l75 196l-147 372h143l79 -207l78 207h142l-146 -377l73 -192z" />
    <glyph glyph-name="Wdieresis.ss01" horiz-adv-x="1024" 
d="M397 826c-48 0 -85 36 -85 84c0 47 37 84 85 84s85 -37 85 -84c0 -48 -37 -84 -85 -84zM638 826c-47 0 -85 36 -85 84c0 47 38 84 85 84c48 0 86 -37 86 -84c0 -48 -38 -84 -86 -84zM874 740h144l-288 -740h-130l-89 225l-88 -225h-130l-291 740h144l216 -568l75 196
l-147 372h143l79 -207l78 207h142l-146 -377l73 -192z" />
    <glyph glyph-name="Wgrave.ss01" horiz-adv-x="1024" 
d="M660 905l-43 -99l-243 97l46 107zM874 740h144l-288 -740h-130l-89 225l-88 -225h-130l-291 740h144l216 -568l75 196l-147 372h143l79 -207l78 207h142l-146 -377l73 -192z" />
    <glyph glyph-name="i.loclTRK" horiz-adv-x="251" 
d="M132 572c-45 0 -80 34 -80 80c0 44 35 78 80 78c44 0 78 -34 78 -78c0 -46 -34 -80 -78 -80zM53 475h126v-475h-126v475z" />
    <glyph glyph-name="uni006A0301" horiz-adv-x="258" 
d="M-16 640l240 105l47 -107l-243 -97zM54 475h126v-728h-126v728z" />
    <glyph glyph-name="g.ss01" horiz-adv-x="526" 
d="M497 475v-96h-52c19 -32 30 -70 30 -110c0 -78 -41 -148 -107 -185c63 -30 104 -85 104 -157c0 -107 -87 -186 -218 -186s-218 79 -218 186c0 72 41 127 104 157c-66 37 -107 107 -107 185c0 116 90 215 221 215c23 0 45 -3 66 -9h177zM254 365c-59 0 -98 -46 -98 -97
c0 -52 39 -99 98 -99c58 0 97 47 97 99s-39 97 -97 97zM254 -139c49 0 82 30 82 71c0 42 -36 72 -82 72c-47 0 -83 -30 -83 -72c0 -41 33 -71 83 -71z" />
    <glyph glyph-name="gbreve.ss01" horiz-adv-x="526" 
d="M256 541c-109 0 -184 82 -184 194h106c0 -52 26 -85 78 -85c53 0 79 33 79 85h105c0 -112 -75 -194 -184 -194zM497 475v-96h-52c19 -32 30 -70 30 -110c0 -78 -41 -148 -107 -185c63 -30 104 -85 104 -157c0 -107 -87 -186 -218 -186s-218 79 -218 186
c0 72 41 127 104 157c-66 37 -107 107 -107 185c0 116 90 215 221 215c23 0 45 -3 66 -9h177zM254 365c-59 0 -98 -46 -98 -97c0 -52 39 -99 98 -99c58 0 97 47 97 99s-39 97 -97 97zM254 -139c49 0 82 30 82 71c0 42 -36 72 -82 72c-47 0 -83 -30 -83 -72
c0 -41 33 -71 83 -71z" />
    <glyph glyph-name="uni0123.ss01" horiz-adv-x="526" 
d="M258 546c-41 0 -72 32 -72 83c0 62 36 110 107 152l30 -39c-49 -24 -67 -56 -67 -77c3 1 8 2 17 2c27 0 54 -24 54 -56c0 -35 -30 -65 -69 -65zM497 475v-96h-52c19 -32 30 -70 30 -110c0 -78 -41 -148 -107 -185c63 -30 104 -85 104 -157c0 -107 -87 -186 -218 -186
s-218 79 -218 186c0 72 41 127 104 157c-66 37 -107 107 -107 185c0 116 90 215 221 215c23 0 45 -3 66 -9h177zM254 365c-59 0 -98 -46 -98 -97c0 -52 39 -99 98 -99c58 0 97 47 97 99s-39 97 -97 97zM254 -139c49 0 82 30 82 71c0 42 -36 72 -82 72c-47 0 -83 -30 -83 -72
c0 -41 33 -71 83 -71z" />
    <glyph glyph-name="gdotaccent.ss01" horiz-adv-x="526" 
d="M260 572c-45 0 -79 34 -79 80c0 44 34 78 79 78c44 0 79 -34 79 -78c0 -46 -35 -80 -79 -80zM497 475v-96h-52c19 -32 30 -70 30 -110c0 -78 -41 -148 -107 -185c63 -30 104 -85 104 -157c0 -107 -87 -186 -218 -186s-218 79 -218 186c0 72 41 127 104 157
c-66 37 -107 107 -107 185c0 116 90 215 221 215c23 0 45 -3 66 -9h177zM254 365c-59 0 -98 -46 -98 -97c0 -52 39 -99 98 -99c58 0 97 47 97 99s-39 97 -97 97zM254 -139c49 0 82 30 82 71c0 42 -36 72 -82 72c-47 0 -83 -30 -83 -72c0 -41 33 -71 83 -71z" />
    <glyph glyph-name="g.ss02" horiz-adv-x="499" 
d="M473 475v-94h-45c17 -30 26 -64 26 -100c0 -109 -85 -202 -208 -202c-18 0 -36 2 -52 6c-17 -3 -24 -11 -24 -29s11 -29 28 -31c16 3 34 5 52 5c118 0 190 -65 190 -143c0 -79 -67 -145 -190 -145s-190 66 -190 145c0 34 14 66 40 91c-26 21 -38 41 -38 75s12 60 39 81
c-40 37 -63 90 -63 147c0 110 85 203 208 203c23 0 44 -3 64 -9h163zM246 191c54 0 90 43 90 91s-36 90 -90 90s-90 -42 -90 -90s36 -91 90 -91zM321 -113c0 22 -18 41 -71 41s-71 -19 -71 -41s18 -42 71 -42s71 20 71 42z" />
    <glyph glyph-name="gbreve.ss.ss02" horiz-adv-x="499" 
d="M252 541c-109 0 -184 82 -184 194h105c0 -52 26 -85 79 -85c52 0 78 33 78 85h106c0 -112 -76 -194 -184 -194zM473 475v-94h-45c17 -30 26 -64 26 -100c0 -109 -85 -202 -208 -202c-18 0 -36 2 -52 6c-17 -3 -24 -11 -24 -29s11 -29 28 -31c16 3 34 5 52 5
c118 0 190 -65 190 -143c0 -79 -67 -145 -190 -145s-190 66 -190 145c0 34 14 66 40 91c-26 21 -38 41 -38 75s12 60 39 81c-40 37 -63 90 -63 147c0 110 85 203 208 203c23 0 44 -3 64 -9h163zM246 191c54 0 90 43 90 91s-36 90 -90 90s-90 -42 -90 -90s36 -91 90 -91z
M321 -113c0 22 -18 41 -71 41s-71 -19 -71 -41s18 -42 71 -42s71 20 71 42z" />
    <glyph glyph-name="uni0123.ss.ss02" horiz-adv-x="499" 
d="M253 546c-40 0 -72 32 -72 83c0 62 36 110 108 152l29 -39c-49 -24 -67 -56 -67 -77c3 1 8 2 17 2c27 0 54 -24 54 -56c0 -35 -30 -65 -69 -65zM473 475v-94h-45c17 -30 26 -64 26 -100c0 -109 -85 -202 -208 -202c-18 0 -36 2 -52 6c-17 -3 -24 -11 -24 -29
s11 -29 28 -31c16 3 34 5 52 5c118 0 190 -65 190 -143c0 -79 -67 -145 -190 -145s-190 66 -190 145c0 34 14 66 40 91c-26 21 -38 41 -38 75s12 60 39 81c-40 37 -63 90 -63 147c0 110 85 203 208 203c23 0 44 -3 64 -9h163zM246 191c54 0 90 43 90 91s-36 90 -90 90
s-90 -42 -90 -90s36 -91 90 -91zM321 -113c0 22 -18 41 -71 41s-71 -19 -71 -41s18 -42 71 -42s71 20 71 42z" />
    <glyph glyph-name="gdotaccent.ss.ss02" horiz-adv-x="499" 
d="M256 572c-46 0 -80 34 -80 80c0 44 34 78 80 78c44 0 78 -34 78 -78c0 -46 -34 -80 -78 -80zM473 475v-94h-45c17 -30 26 -64 26 -100c0 -109 -85 -202 -208 -202c-18 0 -36 2 -52 6c-17 -3 -24 -11 -24 -29s11 -29 28 -31c16 3 34 5 52 5c118 0 190 -65 190 -143
c0 -79 -67 -145 -190 -145s-190 66 -190 145c0 34 14 66 40 91c-26 21 -38 41 -38 75s12 60 39 81c-40 37 -63 90 -63 147c0 110 85 203 208 203c23 0 44 -3 64 -9h163zM246 191c54 0 90 43 90 91s-36 90 -90 90s-90 -42 -90 -90s36 -91 90 -91zM321 -113
c0 22 -18 41 -71 41s-71 -19 -71 -41s18 -42 71 -42s71 20 71 42z" />
    <glyph glyph-name="zero.osf" horiz-adv-x="581" 
d="M290 -13c-141 0 -252 112 -252 249c0 138 111 248 252 248c142 0 253 -110 253 -248c0 -137 -111 -249 -253 -249zM290 107c72 0 130 59 130 129c0 69 -58 128 -130 128c-71 0 -129 -59 -129 -128c0 -70 58 -129 129 -129z" />
    <glyph glyph-name="one.osf" horiz-adv-x="334" 
d="M138 358h-112v117h238v-475h-126v358z" />
    <glyph glyph-name="two.osf" horiz-adv-x="437" 
d="M180 102l214 5v-107h-350v117c160 72 228 151 228 204c0 37 -25 52 -53 52c-31 0 -64 -20 -65 -77h-111c0 102 57 188 178 188c107 0 166 -66 166 -153c0 -78 -47 -174 -207 -229z" />
    <glyph glyph-name="three.osf" horiz-adv-x="490" 
d="M351 177c70 -29 100 -81 100 -150c0 -126 -98 -205 -221 -205c-130 0 -199 89 -207 196h123c9 -49 36 -81 90 -81c61 0 91 43 91 87c0 46 -33 91 -96 91h-26v116h27c55 0 80 37 80 72s-24 69 -69 69c-50 0 -72 -39 -73 -75h-123c4 105 67 187 192 187s196 -80 196 -174
c0 -59 -28 -106 -84 -133z" />
    <glyph glyph-name="four.osf" horiz-adv-x="520" 
d="M487 116v-116h-76v-168h-126v168h-261v120l259 355h128v-359h76zM158 116h127v183z" />
    <glyph glyph-name="five.osf" horiz-adv-x="509" 
d="M279 282c134 0 201 -107 201 -219c0 -119 -79 -241 -225 -241c-129 0 -226 95 -233 217h110c10 -59 44 -99 110 -99c68 0 114 45 114 111s-45 113 -110 113c-33 0 -70 -11 -92 -34l-83 50l50 295h294v-117h-180l-17 -88c19 8 35 12 61 12z" />
    <glyph glyph-name="six.osf" horiz-adv-x="518" 
d="M274 426c119 0 216 -96 216 -216s-97 -223 -228 -223c-129 0 -225 103 -225 223c0 39 10 85 44 148l166 304h136l-130 -238c7 1 14 2 21 2zM263 107c62 0 105 50 105 103s-43 103 -105 103c-59 0 -103 -50 -103 -103s44 -103 103 -103z" />
    <glyph glyph-name="seven.osf" horiz-adv-x="455" 
d="M15 475h419v-113l-230 -530h-130l230 526h-289v117z" />
    <glyph glyph-name="eight.osf" horiz-adv-x="545" 
d="M419 398c54 -42 89 -107 89 -181c0 -127 -104 -230 -236 -230c-130 0 -234 103 -234 230c0 74 35 140 89 182c-23 28 -34 62 -34 98c0 99 80 177 179 177c102 0 181 -78 181 -177c0 -36 -11 -71 -34 -99zM272 559c-33 0 -61 -28 -61 -62c0 -21 11 -40 27 -52
c11 2 22 3 34 3s24 -1 36 -3c17 12 27 31 27 52c0 34 -27 62 -63 62zM272 107c62 0 114 51 114 110s-51 111 -114 111c-60 0 -111 -52 -111 -111s51 -110 111 -110z" />
    <glyph glyph-name="nine.osf" horiz-adv-x="514" 
d="M256 484c130 0 226 -103 226 -223c0 -39 -11 -85 -45 -148l-166 -304h-136l131 238c-7 -1 -15 -2 -22 -2c-119 0 -216 96 -216 216s97 223 228 223zM255 158c59 0 103 50 103 103s-44 103 -103 103c-62 0 -104 -50 -104 -103s42 -103 104 -103z" />
    <glyph glyph-name="zero.tf" 
d="M300 -13c-159 0 -238 116 -238 256v254c0 140 79 256 238 256c153 0 238 -107 238 -256v-254c0 -149 -85 -256 -238 -256zM300 110c80 0 109 60 109 144v232c0 84 -29 144 -109 144c-76 0 -109 -54 -109 -144v-232c0 -90 33 -144 109 -144z" />
    <glyph glyph-name="one.tf" 
d="M262 612h-118v128h252v-740h-134v612z" />
    <glyph glyph-name="two.tf" 
d="M398 277l-153 -149h285v-128h-463v129l186 181c103 101 143 165 143 226c0 55 -33 94 -94 94c-57 0 -96 -34 -111 -95h-128c22 148 119 218 242 218c124 0 225 -76 225 -215c0 -78 -40 -172 -132 -261z" />
    <glyph glyph-name="three.tf" 
d="M414 397c75 -34 118 -93 118 -185c0 -131 -100 -225 -236 -225c-150 0 -234 92 -245 227h128c10 -66 48 -104 116 -104c72 0 102 53 102 109c0 59 -42 117 -113 117h-34v124h32c64 0 98 41 98 90c0 42 -23 80 -80 80c-63 0 -89 -43 -92 -93h-128c4 121 77 216 222 216
c142 0 212 -92 212 -198c0 -73 -33 -126 -100 -158z" />
    <glyph glyph-name="four.tf" 
d="M557 235v-118h-76v-117h-130v117h-326v114l333 509h123v-505h76zM167 235h184v284z" />
    <glyph glyph-name="five.tf" 
d="M315 494c133 0 236 -102 236 -249c0 -150 -109 -258 -255 -258c-138 0 -241 97 -255 228h128c4 -34 34 -106 125 -106c81 0 128 56 128 135c0 92 -64 135 -131 135c-41 0 -82 -16 -112 -43l-94 75l57 329h374l-10 -122h-258l-27 -143c29 14 60 19 94 19z" />
    <glyph glyph-name="six.tf" 
d="M316 462c129 0 234 -103 234 -234c0 -129 -105 -241 -247 -241c-141 0 -246 112 -246 241c0 43 10 86 42 146l192 366h147l-148 -280c8 1 17 2 26 2zM303 107c72 0 122 59 122 121s-50 121 -122 121c-71 0 -121 -59 -121 -121s50 -121 121 -121z" />
    <glyph glyph-name="seven.tf" 
d="M57 740h483v-127l-290 -613h-146l295 612h-342v128z" />
    <glyph glyph-name="eight.tf" 
d="M463 445c60 -47 98 -119 98 -201c0 -142 -115 -257 -262 -257c-146 0 -261 115 -261 257c0 83 38 156 99 202c-27 31 -39 68 -39 109c0 111 90 198 201 198c112 0 202 -87 202 -198c0 -41 -13 -79 -38 -110zM299 631c-41 0 -76 -35 -76 -77c0 -23 10 -43 26 -58
c16 3 33 5 50 5s34 -2 51 -5c16 15 27 35 27 58c0 42 -35 77 -78 77zM299 107c77 0 138 63 138 137c0 73 -61 137 -138 137c-75 0 -137 -64 -137 -137c0 -74 62 -137 137 -137z" />
    <glyph glyph-name="nine.tf" 
d="M297 753c141 0 246 -112 246 -241c0 -47 -13 -90 -42 -145l-193 -367h-147l149 280c-9 -1 -17 -2 -26 -2c-129 0 -234 104 -234 234c0 129 105 241 247 241zM297 392c71 0 121 58 121 120s-50 121 -121 121c-72 0 -122 -59 -122 -121s50 -120 122 -120z" />
    <glyph glyph-name="zero.tosf" 
d="M299 -13c-141 0 -252 112 -252 249c0 138 111 248 252 248c142 0 253 -110 253 -248c0 -137 -111 -249 -253 -249zM299 107c72 0 130 59 130 129c0 69 -58 128 -130 128c-71 0 -129 -59 -129 -128c0 -70 58 -129 129 -129z" />
    <glyph glyph-name="one.tosf" 
d="M271 358h-111v117h237v-475h-126v358z" />
    <glyph glyph-name="two.tosf" 
d="M261 102l215 5v-107h-351v117c161 72 229 151 229 204c0 37 -25 52 -53 52c-32 0 -64 -20 -65 -77h-112c0 102 58 188 179 188c106 0 166 -66 166 -153c0 -78 -48 -174 -208 -229z" />
    <glyph glyph-name="three.tosf" 
d="M406 177c70 -29 100 -81 100 -150c0 -126 -99 -205 -222 -205c-129 0 -199 89 -207 196h124c9 -49 35 -81 89 -81c62 0 91 43 91 87c0 46 -32 91 -96 91h-26v116h28c54 0 79 37 79 72s-23 69 -68 69c-50 0 -73 -39 -74 -75h-122c3 105 66 187 192 187
c125 0 196 -80 196 -174c0 -59 -28 -106 -84 -133z" />
    <glyph glyph-name="four.tosf" 
d="M527 116v-116h-76v-168h-126v168h-261v120l259 355h128v-359h76zM198 116h127v183z" />
    <glyph glyph-name="five.tosf" 
d="M324 282c134 0 200 -107 200 -219c0 -119 -78 -241 -224 -241c-129 0 -226 95 -233 217h110c10 -59 44 -99 110 -99c68 0 114 45 114 111s-45 113 -110 113c-33 0 -70 -11 -92 -34l-84 50l50 295h295v-117h-180l-18 -88c19 8 36 12 62 12z" />
    <glyph glyph-name="six.tosf" 
d="M315 426c119 0 216 -96 216 -216s-97 -223 -228 -223c-130 0 -226 103 -226 223c0 39 10 85 45 148l166 304h135l-130 -238c7 1 14 2 22 2zM304 107c62 0 104 50 104 103s-42 103 -104 103c-59 0 -104 -50 -104 -103s45 -103 104 -103z" />
    <glyph glyph-name="seven.tosf" 
d="M88 475h418v-113l-230 -530h-129l230 526h-289v117z" />
    <glyph glyph-name="eight.tosf" 
d="M447 398c54 -42 89 -107 89 -181c0 -127 -105 -230 -236 -230c-130 0 -235 103 -235 230c0 74 35 139 89 182c-22 28 -34 62 -34 98c0 99 81 177 180 177c101 0 181 -78 181 -177c0 -36 -11 -71 -34 -99zM300 559c-34 0 -61 -28 -61 -62c0 -21 11 -40 26 -52
c11 2 23 3 35 3s24 -1 36 -3c16 12 27 31 27 52c0 34 -27 62 -63 62zM300 107c62 0 113 51 113 110s-51 111 -113 111c-60 0 -111 -52 -111 -111s51 -110 111 -110z" />
    <glyph glyph-name="nine.tosf" 
d="M299 484c130 0 226 -103 226 -223c0 -40 -11 -85 -45 -148l-166 -304h-136l130 238c-7 -1 -14 -2 -21 -2c-119 0 -216 96 -216 216s97 223 228 223zM298 158c59 0 103 50 103 103s-44 103 -103 103c-62 0 -105 -50 -105 -103s43 -103 105 -103z" />
    <glyph glyph-name="zero.numr" horiz-adv-x="364" 
d="M181 288c-86 0 -148 56 -148 142v176c0 86 62 142 148 142c90 0 150 -60 150 -142v-176c0 -82 -60 -142 -150 -142zM183 370c26 0 61 14 61 61v174c0 47 -35 61 -61 61c-29 0 -62 -17 -62 -61v-174c0 -45 34 -61 62 -61z" />
    <glyph glyph-name="one.numr" horiz-adv-x="224" 
d="M90 663h-74v77h162v-444h-88v367z" />
    <glyph glyph-name="two.numr" horiz-adv-x="353" 
d="M26 377l149 140c40 37 52 63 52 91c0 29 -18 53 -54 53s-54 -25 -55 -59h-96c0 92 67 145 155 145c96 0 150 -63 150 -135c0 -51 -22 -96 -80 -149l-86 -79h163v-88h-298v81z" />
    <glyph glyph-name="three.numr" horiz-adv-x="345" 
d="M261 526c24 -15 59 -39 59 -102c0 -88 -60 -136 -150 -136c-78 0 -146 39 -153 143h89c1 -35 26 -61 66 -61c32 0 63 14 63 54c0 39 -24 60 -69 60h-37v74h28c48 0 72 21 72 55c0 37 -24 53 -55 53c-29 0 -54 -16 -58 -54l-89 1c8 89 69 135 149 135
c72 0 139 -35 139 -119c0 -56 -26 -86 -54 -103z" />
    <glyph glyph-name="four.numr" horiz-adv-x="363" 
d="M342 444v-73h-49v-75h-83v75h-199v71l180 298h102v-296h49zM93 444h117v184z" />
    <glyph glyph-name="five.numr" horiz-adv-x="347" 
d="M186 584c81 0 139 -63 139 -147c0 -96 -62 -149 -156 -149c-86 0 -141 45 -152 142h85c8 -48 38 -61 69 -61c35 0 68 24 68 67c0 37 -24 67 -63 67c-34 0 -54 -8 -79 -23l-60 32l38 228h224l-6 -74h-145l-15 -90c17 5 35 8 53 8z" />
    <glyph glyph-name="six.numr" horiz-adv-x="358" 
d="M192 584c87 0 147 -60 147 -145c0 -79 -61 -148 -159 -148s-158 64 -158 141c0 30 11 68 32 109l108 199h100l-84 -156h14zM180 365c44 0 77 33 77 76c0 42 -34 74 -77 74s-77 -32 -77 -74c0 -43 33 -76 77 -76z" />
    <glyph glyph-name="seven.numr" horiz-adv-x="306" 
d="M12 740h280v-66l-154 -378h-92l150 372h-184v72z" />
    <glyph glyph-name="eight.numr" horiz-adv-x="368" 
d="M296 554c33 -30 51 -72 51 -113c0 -79 -58 -153 -162 -153c-103 0 -163 74 -163 153c0 42 19 86 55 116c-8 18 -16 41 -16 66c0 68 51 125 123 125s124 -56 124 -125c0 -23 -5 -50 -12 -69zM184 662c-31 0 -52 -25 -52 -53c0 -10 1 -17 4 -25c16 7 32 9 48 9
c18 0 34 -3 47 -9c4 9 4 18 4 25c0 29 -21 53 -51 53zM185 363c43 0 71 36 71 78c0 44 -29 77 -71 77s-74 -35 -74 -77c0 -43 33 -78 74 -78z" />
    <glyph glyph-name="nine.numr" horiz-adv-x="357" 
d="M177 748c98 0 159 -64 159 -141c0 -35 -11 -69 -36 -110l-117 -201h-100l95 165h-13c-86 0 -146 60 -146 139c0 78 60 148 158 148zM177 523c43 0 77 33 77 75c0 43 -33 76 -77 76c-43 0 -76 -33 -76 -76c0 -42 34 -75 76 -75z" />
    <glyph glyph-name="period.tf" horiz-adv-x="300" 
d="M151 -7c-45 0 -79 33 -79 79c0 44 34 77 79 77c44 0 78 -33 78 -77c0 -46 -34 -79 -78 -79z" />
    <glyph glyph-name="comma.tf" horiz-adv-x="300" 
d="M148 149c54 0 84 -45 84 -108c0 -101 -74 -191 -154 -194v62c36 0 75 28 85 89c-6 -1 -12 -2 -20 -2c-43 0 -72 31 -72 75s31 78 77 78z" />
    <glyph glyph-name="colon.tf" horiz-adv-x="300" 
d="M151 309c-45 0 -79 33 -79 78s34 78 79 78c44 0 78 -33 78 -78s-34 -78 -78 -78zM151 -7c-45 0 -79 33 -79 79c0 44 34 77 79 77c44 0 78 -33 78 -77c0 -46 -34 -79 -78 -79z" />
    <glyph glyph-name="semicolon.tf" horiz-adv-x="300" 
d="M149 309c-45 0 -79 33 -79 78s34 78 79 78c44 0 78 -33 78 -78s-34 -78 -78 -78zM147 149c54 0 84 -45 84 -108c0 -101 -74 -191 -154 -194v62c36 0 75 28 85 89c-6 -1 -12 -2 -20 -2c-42 0 -72 31 -72 75s32 78 77 78z" />
    <glyph glyph-name="slash.tf" horiz-adv-x="300" 
d="M193 740h127l-212 -740h-127z" />
    <glyph glyph-name="backslash.tf" horiz-adv-x="300" 
d="M108 740l212 -740h-127l-212 740h127z" />
    <glyph glyph-name="parenleft.case" horiz-adv-x="361" 
d="M299 -102c-166 98 -264 273 -264 475c0 206 97 379 264 475l57 -92c-119 -84 -189 -228 -189 -383c0 -151 71 -297 189 -383z" />
    <glyph glyph-name="parenright.case" horiz-adv-x="361" 
d="M5 -10c118 86 189 232 189 383c0 154 -70 299 -189 383l57 92c167 -96 264 -269 264 -475c0 -202 -98 -377 -264 -475z" />
    <glyph glyph-name="braceleft.case" horiz-adv-x="391" 
d="M12 419c84 3 119 38 119 118v167c0 80 54 131 126 131h110v-111h-51c-35 0 -53 -23 -53 -66v-139c0 -75 -39 -137 -127 -155c88 -18 127 -80 127 -155v-139c0 -43 18 -66 53 -66h51v-111h-110c-72 0 -126 51 -126 131v167c0 79 -34 113 -119 116v112z" />
    <glyph glyph-name="braceright.case" horiz-adv-x="391" 
d="M380 307c-85 -3 -119 -37 -119 -116v-167c0 -80 -55 -131 -127 -131h-110v111h51c36 0 53 23 53 66v139c0 75 39 137 127 155c-88 18 -127 80 -127 155v139c0 43 -17 66 -53 66h-51v111h110c72 0 127 -51 127 -131v-167c0 -80 34 -115 119 -118v-112z" />
    <glyph glyph-name="bracketleft.case" horiz-adv-x="380" 
d="M78 836h283v-111h-150v-720h150v-111h-283v942z" />
    <glyph glyph-name="bracketright.case" horiz-adv-x="380" 
d="M19 5h151v720h-151v111h283v-942h-283v111z" />
    <glyph glyph-name="parenleft.tf" 
d="M418 -198c-166 98 -264 273 -264 475c0 206 97 379 264 475l57 -92c-118 -84 -189 -228 -189 -383c0 -151 72 -297 189 -383z" />
    <glyph glyph-name="parenright.tf" 
d="M125 -106c117 86 189 232 189 383c0 154 -71 299 -189 383l57 92c167 -96 264 -269 264 -475c0 -202 -98 -377 -264 -475z" />
    <glyph glyph-name="braceleft.tf" 
d="M116 323c85 3 119 38 119 118v167c0 80 55 131 127 131h110v-111h-51c-36 0 -53 -23 -53 -66v-139c0 -75 -39 -137 -128 -155c89 -18 128 -80 128 -155v-139c0 -43 17 -66 53 -66h51v-111h-110c-72 0 -127 51 -127 131v167c0 79 -34 113 -119 116v112z" />
    <glyph glyph-name="braceright.tf" 
d="M484 211c-85 -3 -119 -37 -119 -116v-167c0 -80 -55 -131 -127 -131h-110v111h51c36 0 53 23 53 66v139c0 75 40 137 128 155c-88 18 -128 80 -128 155v139c0 43 -17 66 -53 66h-51v111h110c72 0 127 -51 127 -131v-167c0 -80 34 -115 119 -118v-112z" />
    <glyph glyph-name="bracketleft.tf" 
d="M188 740h283v-111h-150v-720h150v-111h-283v942z" />
    <glyph glyph-name="bracketright.tf" 
d="M129 -91h151v720h-151v111h283v-942h-283v111z" />
    <glyph glyph-name="hyphen.case" horiz-adv-x="413" 
d="M56 437h302v-116h-302v116z" />
    <glyph glyph-name="endash.case" horiz-adv-x="670" 
d="M56 437h559v-116h-559v116z" />
    <glyph glyph-name="emdash.case" horiz-adv-x="1115" 
d="M56 437h1004v-116h-1004v116z" />
    <glyph glyph-name="hyphen.tf" 
d="M149 341h302v-116h-302v116z" />
    <glyph glyph-name="endash.tf" 
d="M21 341h558v-116h-558v116z" />
    <glyph glyph-name="emdash.tf" 
d="M0 341h600v-116h-600v116z" />
    <glyph glyph-name="guillemotleft.case" horiz-adv-x="560" 
d="M32 337l127 189h134l-124 -189l126 -191h-136zM261 337l127 189h133l-124 -189l126 -191h-135z" />
    <glyph glyph-name="guillemotright.case" horiz-adv-x="560" 
d="M163 337l-124 189h134l127 -189l-127 -191h-136zM392 337l-124 189h133l127 -189l-127 -191h-135z" />
    <glyph glyph-name="guilsinglleft.case" horiz-adv-x="332" 
d="M32 337l127 189h134l-124 -189l126 -191h-136z" />
    <glyph glyph-name="guilsinglright.case" horiz-adv-x="332" 
d="M163 337l-124 189h134l127 -189l-127 -191h-136z" />
    <glyph glyph-name="space.tf" horiz-adv-x="300" 
 />
    <glyph glyph-name="plus.tf" 
d="M236 286h-214v120h214v228h124v-228h218v-120h-218v-228h-124v228z" />
    <glyph glyph-name="minus.tf" 
d="M22 406h556v-120h-556v120z" />
    <glyph glyph-name="multiply.tf" horiz-adv-x="588" 
d="M44 182l165 164l-165 165l85 84l164 -165l165 165l84 -85l-164 -164l164 -165l-84 -84l-165 165l-164 -165z" />
    <glyph glyph-name="divide.tf" 
d="M301 488c-45 0 -79 33 -79 78s34 78 79 78c44 0 78 -33 78 -78s-34 -78 -78 -78zM22 406h556v-120h-556v120zM301 48c-45 0 -79 33 -79 79c0 44 34 77 79 77c44 0 78 -33 78 -77c0 -46 -34 -79 -78 -79z" />
    <glyph glyph-name="equal.tf" 
d="M33 415v120h534v-120h-534zM33 157v120h534v-120h-534z" />
    <glyph glyph-name="notequal.tf" 
d="M567 415h-180l-55 -138h235v-120h-283l-45 -113h-123l45 113h-128v120h176l55 138h-231v120h279l45 113h123l-45 -113h132v-120z" />
    <glyph glyph-name="greater.tf" 
d="M113 121l227 225l-227 225l85 84l300 -309l-300 -309z" />
    <glyph glyph-name="less.tf" 
d="M102 346l300 309l85 -84l-227 -225l227 -225l-85 -84z" />
    <glyph glyph-name="plusminus.tf" 
d="M236 376h-214v120h214v168h124v-168h218v-120h-218v-168h-124v168zM22 149h556v-120h-556v120z" />
    <glyph glyph-name="approxequal.tf" 
d="M37 381c0 107 55 175 157 175c94 0 146 -45 204 -45c40 0 61 21 61 65h104c0 -107 -56 -175 -155 -175c-96 0 -148 45 -204 45c-41 0 -62 -23 -62 -65h-105zM37 116c0 107 55 175 157 175c94 0 146 -45 204 -45c40 0 61 21 61 65h104c0 -107 -56 -175 -155 -175
c-96 0 -148 45 -204 45c-41 0 -62 -23 -62 -65h-105z" />
    <glyph glyph-name="percent.tf" horiz-adv-x="900" 
d="M416 573c0 -103 -86 -187 -189 -187s-189 84 -189 187s86 187 189 187s189 -84 189 -187zM601 740h109l-406 -740h-109zM227 496c42 0 74 35 74 77c0 43 -32 76 -74 76c-43 0 -75 -33 -75 -76c0 -42 32 -77 75 -77zM862 173c0 -103 -86 -187 -189 -187s-189 84 -189 187
s86 187 189 187s189 -84 189 -187zM673 96c42 0 75 35 75 77s-33 76 -75 76c-43 0 -75 -34 -75 -76s32 -77 75 -77z" />
    <glyph glyph-name="perthousand.tf" horiz-adv-x="1200" 
d="M362 573c0 -103 -86 -187 -189 -187s-189 84 -189 187s86 187 189 187s189 -84 189 -187zM547 740h110l-406 -740h-110zM173 496c42 0 75 35 75 77c0 43 -33 76 -75 76c-43 0 -75 -33 -75 -76c0 -42 32 -77 75 -77zM808 173c0 -103 -86 -187 -189 -187s-189 84 -189 187
s86 187 189 187s189 -84 189 -187zM1217 173c0 -103 -86 -187 -189 -187s-189 84 -189 187s86 187 189 187s189 -84 189 -187zM619 96c42 0 75 35 75 77s-33 76 -75 76c-43 0 -75 -34 -75 -76s32 -77 75 -77zM1028 96c43 0 75 35 75 77s-32 76 -75 76c-42 0 -75 -34 -75 -76
s33 -77 75 -77z" />
    <glyph glyph-name="ampersand.ss01" horiz-adv-x="611" 
d="M597 458v-122h-75v-121c0 -135 -91 -228 -241 -228c-137 0 -236 94 -236 216c0 92 41 158 117 194c-67 31 -100 87 -100 166c0 98 70 190 212 190c75 0 121 -22 156 -57l-83 -92c-17 17 -38 26 -71 26c-56 0 -79 -38 -79 -83c0 -46 30 -89 96 -89h104v96h125v-96h75z
M397 215v121h-105c-72 0 -113 -59 -113 -117c0 -56 31 -109 103 -109c70 0 115 33 115 105z" />
    <glyph glyph-name="ampersand.ss02" horiz-adv-x="584" 
d="M521 377c24 -39 38 -85 38 -134c0 -141 -115 -256 -262 -256c-146 0 -261 115 -261 257c0 81 36 152 95 199c-22 32 -35 70 -35 112c0 111 90 198 201 198c68 0 128 -32 164 -81l-103 -70c-14 18 -36 30 -61 30c-41 0 -76 -35 -76 -77c0 -41 35 -76 76 -76
c25 0 47 12 61 29l103 -69c-36 -49 -96 -81 -164 -81c-21 0 -41 3 -60 9c-45 -24 -76 -72 -76 -123c0 -74 61 -137 136 -137c77 0 138 63 138 136c0 25 -6 48 -19 69z" />
    <glyph glyph-name="uni030C.alt" horiz-adv-x="0" 
d="M-201 500l30 240h111l-35 -240h-106z" />
    <glyph glyph-name="caron.alt" horiz-adv-x="261" 
d="M201 740l-35 -240h-106l30 240h111z" />
    <glyph glyph-name="uni0308.case" horiz-adv-x="0" 
d="M-387 826c-48 0 -85 36 -85 84c0 47 37 84 85 84s85 -37 85 -84c0 -48 -37 -84 -85 -84zM-145 826c-48 0 -85 36 -85 84c0 47 37 84 85 84s85 -37 85 -84c0 -48 -37 -84 -85 -84z" />
    <glyph glyph-name="uni0307.case" horiz-adv-x="0" 
d="M-149 822c-50 0 -88 38 -88 87c0 50 38 88 88 88s89 -38 89 -88c0 -49 -39 -87 -89 -87z" />
    <glyph glyph-name="gravecomb.case" horiz-adv-x="0" 
d="M-347 903l47 107l240 -105l-44 -99z" />
    <glyph glyph-name="acutecomb.case" horiz-adv-x="0" 
d="M-303 806l-44 99l240 105l47 -107z" />
    <glyph glyph-name="uni030B.case" horiz-adv-x="0" 
d="M-367 806l-85 66l110 139l90 -73zM-175 806l-85 66l109 139l91 -73z" />
    <glyph glyph-name="uni0302.case" horiz-adv-x="0" 
d="M-60 895l-59 -89l-130 86l-131 -86l-59 89l168 115h43z" />
    <glyph glyph-name="uni030C.case" horiz-adv-x="0" 
d="M-119 1010l59 -89l-168 -115h-43l-168 115l59 89l131 -86z" />
    <glyph glyph-name="uni0306.case" horiz-adv-x="0" 
d="M-239 806c-109 0 -184 82 -184 194h106c0 -52 26 -85 78 -85c53 0 79 33 79 85h106c0 -112 -76 -194 -185 -194z" />
    <glyph glyph-name="uni030A.case" horiz-adv-x="0" 
d="M-188 766c-75 0 -128 54 -128 122c0 67 53 122 128 122s128 -55 128 -122c0 -68 -53 -122 -128 -122zM-188 841c29 0 48 21 48 47s-19 47 -48 47s-48 -21 -48 -47s19 -47 48 -47z" />
    <glyph glyph-name="tildecomb.case" horiz-adv-x="0" 
d="M-463 838c0 92 42 150 123 150c69 0 117 -47 152 -47c22 0 34 11 34 47h94c0 -92 -44 -150 -120 -150c-73 0 -119 47 -152 47c-24 0 -37 -14 -37 -47h-94z" />
    <glyph glyph-name="uni0304.case" horiz-adv-x="0" 
d="M-399 966h339v-113h-339v113z" />
    <glyph glyph-name="uni0337.case" horiz-adv-x="0" 
d="M-383 250l-49 102l323 151l49 -102z" />
    <glyph glyph-name="uni0338.case" horiz-adv-x="0" 
d="M-853 63l704 704l89 -90l-704 -704z" />
    <glyph glyph-name="dieresis.case" horiz-adv-x="612" 
d="M145 826c-48 0 -85 36 -85 84c0 47 37 84 85 84s85 -37 85 -84c0 -48 -37 -84 -85 -84zM387 826c-48 0 -85 36 -85 84c0 47 37 84 85 84s85 -37 85 -84c0 -48 -37 -84 -85 -84z" />
    <glyph glyph-name="dotaccent.case" horiz-adv-x="607" 
d="M148 822c-50 0 -88 38 -88 87c0 50 38 88 88 88s89 -38 89 -88c0 -49 -39 -87 -89 -87z" />
    <glyph glyph-name="grave.case" horiz-adv-x="608" 
d="M60 903l47 107l240 -105l-44 -99z" />
    <glyph glyph-name="acute.case" horiz-adv-x="608" 
d="M104 806l-44 99l240 105l47 -107z" />
    <glyph glyph-name="hungarumlaut.case" horiz-adv-x="599" 
d="M145 806l-85 66l110 139l90 -73zM337 806l-85 66l109 139l91 -73z" />
    <glyph glyph-name="circumflex.case" horiz-adv-x="606" 
d="M439 895l-59 -89l-130 86l-131 -86l-59 89l168 115h43z" />
    <glyph glyph-name="caron.case" horiz-adv-x="606" 
d="M380 1010l59 -89l-168 -115h-43l-168 115l59 89l131 -86z" />
    <glyph glyph-name="breve.case" horiz-adv-x="619" 
d="M238 806c-109 0 -184 82 -184 194h106c0 -52 26 -85 78 -85c53 0 79 33 79 85h106c0 -112 -76 -194 -185 -194z" />
    <glyph glyph-name="ring.case" horiz-adv-x="628" 
d="M188 766c-75 0 -128 54 -128 122c0 67 53 122 128 122s128 -55 128 -122c0 -68 -53 -122 -128 -122zM188 841c29 0 48 21 48 47s-19 47 -48 47s-48 -21 -48 -47s19 -47 48 -47z" />
    <glyph glyph-name="tilde.case" horiz-adv-x="623" 
d="M60 838c0 92 42 150 123 150c69 0 117 -47 152 -47c22 0 34 11 34 47h94c0 -92 -44 -150 -120 -150c-73 0 -119 47 -152 47c-24 0 -37 -14 -37 -47h-94z" />
    <glyph glyph-name="macron.case" horiz-adv-x="604" 
d="M60 966h339v-113h-339v113z" />
    <glyph glyph-name="tonos.case" horiz-adv-x="288" 
d="M60 507l49 233h119l-62 -254z" />
    <glyph glyph-name="brevecombcy" horiz-adv-x="0" 
d="M-244 541c-109 0 -184 82 -184 194h106c0 -52 25 -85 78 -85s78 33 78 85h106c0 -112 -76 -194 -184 -194z" />
    <glyph glyph-name="dieresistonoscomb" horiz-adv-x="614" 
d="M237 580l46 220h118l-59 -241zM139 567c-45 0 -79 33 -79 79c0 44 34 78 79 78s79 -34 79 -78c0 -46 -34 -79 -79 -79zM475 567c-45 0 -79 33 -79 79c0 44 34 78 79 78s79 -34 79 -78c0 -46 -34 -79 -79 -79z" />
    </font>
</defs>
</svg>
